<?xml version="1.0" encoding="iso-8859-1"?>
<!-- Generator: Adobe Illustrator 19.0.0, SVG Export Plug-In . SVG Version: 6.00 Build 0)  -->
<svg version="1.1" id="Layer_1" xmlns="http://www.w3.org/2000/svg" xmlns:xlink="http://www.w3.org/1999/xlink" x="0px" y="0px"
	 viewBox="0 0 295.239 295.239" style="enable-background:new 0 0 295.239 295.239;" xml:space="preserve">
<g>
	<g>
		<path d="M239.229,35.657c2.371-3.724,3.629-8.033,3.629-12.452c0-12.795-10.41-23.205-23.2-23.205H218.3
			c-7.019,0-13.581,3.124-18.005,8.571L145.352,76.19H52.381v51.705c0,42.957,16.114,83.419,45.424,114.562l-6.376,5.31
			c-12.71,10.59-20,26.157-20,42.71v4.762H223.81v-4.762c0-16.552-7.29-32.119-20-42.71l-6.376-5.314
			c29.31-31.138,45.424-71.6,45.424-114.557V76.19h-29.419L239.229,35.657z M207.686,14.576c2.61-3.21,6.481-5.052,10.614-5.052
			h1.357c7.543,0,13.676,6.138,13.676,13.681c0,2.605-0.738,5.143-2.138,7.343L202.148,76.19h-44.524L207.686,14.576z
			 M197.704,255.081c9.31,7.757,15.11,18.729,16.334,30.633H81.2c1.224-11.905,7.029-22.876,16.333-30.633l8.952-7.462h82.262
			L197.704,255.081z M233.334,85.714V100h-0.001h-14.286v9.524h14.286v18.371c0,41.505-15.91,80.557-44.848,110.2h-81.733
			c-28.938-29.643-44.848-68.695-44.848-110.2v-18.371h147.619V100H61.905V85.714H233.334z"/>
	</g>
</g>
<g>
</g>
<g>
</g>
<g>
</g>
<g>
</g>
<g>
</g>
<g>
</g>
<g>
</g>
<g>
</g>
<g>
</g>
<g>
</g>
<g>
</g>
<g>
</g>
<g>
</g>
<g>
</g>
<g>
</g>
</svg>
