<?xml version="1.0"?>
<svg xmlns="http://www.w3.org/2000/svg" id="Layer_1" enable-background="new 0 0 512 512" height="512px" viewBox="0 0 512 512" width="512px"><g><g><path d="m382.451 0h-252.902c-19.216 0-34.849 15.633-34.849 34.848v39.086c0 17.57 13.071 32.145 30 34.512v354.931c0 26.811 21.813 48.623 48.623 48.623h165.354c26.811 0 48.623-21.812 48.623-48.623v-354.931c16.929-2.367 30-16.942 30-34.512v-39.086c0-19.215-15.633-34.848-34.849-34.848zm-25.151 160.075h-202.6v-51.292h202.6zm-160.8-81.293v-48.782h44.113v48.782zm74.113 0v-48.782h44.887v48.782zm-145.913-43.934c0-2.673 2.175-4.848 4.849-4.848h36.951v48.782h-36.951c-2.674 0-4.849-2.175-4.849-4.848zm213.977 447.152h-165.354c-10.269 0-18.623-8.354-18.623-18.623v-21.986h38.484c8.284 0 15-6.716 15-15s-6.716-15-15-15h-38.484v-29.895h68.484c8.284 0 15-6.716 15-15s-6.716-15-15-15h-68.484v-30.21h38.484c8.284 0 15-6.716 15-15s-6.716-15-15-15h-38.484v-29.895h68.484c8.284 0 15-6.716 15-15s-6.716-15-15-15h-68.484v-41.316h202.6v273.303c0 10.268-8.355 18.622-18.623 18.622zm48.623-408.066c0 2.673-2.175 4.848-4.849 4.848h-36.951v-48.782h36.951c2.674 0 4.849 2.175 4.849 4.848z" data-original="#000000" class="active-path" data-old_color="#000000" fill="#3EBCFB"/></g></g> </svg>
