<?xml version="1.0" standalone="no"?>
<!DOCTYPE svg PUBLIC "-//W3C//DTD SVG 20010904//EN"
 "http://www.w3.org/TR/2001/REC-SVG-20010904/DTD/svg10.dtd">
<svg version="1.0" xmlns="http://www.w3.org/2000/svg"
 width="196.000000pt" height="196.000000pt" viewBox="0 0 196.000000 196.000000"
 preserveAspectRatio="xMidYMid meet">
<metadata>
Created by potrace 1.11, written by Peter Selinger 2001-2013
</metadata>
<g transform="translate(0.000000,196.000000) scale(0.100000,-0.100000)"
fill="#000000" stroke="none">
<path d="M205 1951 c-74 -18 -131 -67 -164 -141 -20 -44 -21 -62 -21 -830 0
-768 1 -786 21 -830 25 -55 62 -95 114 -123 40 -22 44 -22 790 -25 528 -2 765
0 802 8 66 14 124 57 160 117 l28 48 0 805 0 805 -22 42 c-12 22 -39 55 -60
72 -75 62 -62 61 -877 60 -408 -1 -754 -4 -771 -8z m1495 -321 l0 -110 -725 0
-725 0 0 103 c0 57 3 107 7 110 3 4 330 7 725 7 l718 0 0 -110z m-233 -722
c273 -552 263 -524 197 -598 -19 -21 -58 -48 -87 -61 -48 -22 -67 -24 -249
-27 l-198 -4 0 116 0 116 138 0 c153 0 179 8 169 51 -3 13 -98 222 -211 463
-113 242 -206 441 -206 443 0 2 46 2 101 1 l102 -3 244 -497z m-587 203 c0 -5
-63 -143 -140 -307 -77 -164 -140 -306 -140 -316 0 -30 35 -38 174 -38 l136 0
0 -116 0 -116 -197 4 c-183 3 -202 5 -250 27 -29 13 -68 41 -87 62 -65 71 -67
64 120 444 91 187 171 346 176 353 12 14 208 18 208 3z"/>
</g>
</svg>
