<?xml version="1.0" encoding="iso-8859-1"?>
<!-- Generator: Adobe Illustrator 19.0.0, SVG Export Plug-In . SVG Version: 6.00 Build 0)  -->
<svg version="1.1" id="Layer_1" xmlns="http://www.w3.org/2000/svg" xmlns:xlink="http://www.w3.org/1999/xlink" x="0px" y="0px"
	 viewBox="0 0 512 512" style="enable-background:new 0 0 512 512;" xml:space="preserve">
<g transform="translate(1 1)">
	<g>
		<g>
			<path d="M67.267,41.667c0-5.12-3.413-8.533-8.533-8.533c-14.507,0-25.6,11.093-25.6,25.6c0,5.12,3.413,8.533,8.533,8.533
				s8.533-3.413,8.533-8.533s3.413-8.533,8.533-8.533S67.267,46.787,67.267,41.667z"/>
			<path d="M306.2,67.267c5.12,0,8.533-3.413,8.533-8.533s3.413-8.533,8.533-8.533s8.533-3.413,8.533-8.533
				s-3.413-8.533-8.533-8.533c-14.507,0-25.6,11.093-25.6,25.6C297.667,63.853,301.08,67.267,306.2,67.267z"/>
			<path d="M58.733,297.667c-14.507,0-25.6,11.093-25.6,25.6c0,5.12,3.413,8.533,8.533,8.533s8.533-3.413,8.533-8.533
				s3.413-8.533,8.533-8.533s8.533-3.413,8.533-8.533S63.853,297.667,58.733,297.667z"/>
			<path d="M323.267,297.667c-14.507,0-25.6,11.093-25.6,25.6c0,5.12,3.413,8.533,8.533,8.533s8.533-3.413,8.533-8.533
				s3.413-8.533,8.533-8.533s8.533-3.413,8.533-8.533S328.387,297.667,323.267,297.667z"/>
			<path d="M169.667,195.267c5.12,0,8.533-3.413,8.533-8.533s3.413-8.533,8.533-8.533s8.533-3.413,8.533-8.533
				s-3.413-8.533-8.533-8.533c-14.507,0-25.6,11.093-25.6,25.6C161.133,191.853,164.547,195.267,169.667,195.267z"/>
			<path d="M425.667,186.733c0,5.12,3.413,8.533,8.533,8.533s8.533-3.413,8.533-8.533s3.413-8.533,8.533-8.533
				c5.12,0,8.533-3.413,8.533-8.533s-3.413-8.533-8.533-8.533C436.76,161.133,425.667,172.227,425.667,186.733z"/>
			<path d="M186.733,425.667c-14.507,0-25.6,11.093-25.6,25.6c0,5.12,3.413,8.533,8.533,8.533s8.533-3.413,8.533-8.533
				c0-5.12,3.413-8.533,8.533-8.533s8.533-3.413,8.533-8.533S191.853,425.667,186.733,425.667z"/>
			<path d="M451.267,425.667c-14.507,0-25.6,11.093-25.6,25.6c0,5.12,3.413,8.533,8.533,8.533s8.533-3.413,8.533-8.533
				c0-5.12,3.413-8.533,8.533-8.533c5.12,0,8.533-3.413,8.533-8.533S456.387,425.667,451.267,425.667z"/>
			<path d="M459.8,392.136V245.864c29.155-4.075,51.2-28.753,51.2-59.131c0-33.28-26.453-59.733-59.733-59.733
				c-11.326,0-21.858,3.07-30.829,8.424l-45.861-45.861C379.93,80.591,383,70.06,383,58.733C383,25.453,356.547-1,323.267-1
				c-30.378,0-55.056,22.045-59.131,51.2H117.864C113.789,21.045,89.111-1,58.733-1C25.453-1-1,25.453-1,58.733
				c0,30.378,22.045,55.056,51.2,59.131v146.272C21.045,268.211-1,292.889-1,323.267C-1,356.547,25.453,383,58.733,383
				c11.326,0,21.858-3.07,30.829-8.424l45.861,45.861C130.07,429.409,127,439.94,127,451.267c0,33.28,26.453,59.733,59.733,59.733
				c30.378,0,55.056-22.045,59.131-51.2h146.272c4.075,29.155,28.753,51.2,59.131,51.2c33.28,0,59.733-26.453,59.733-59.733
				C511,420.889,488.955,396.211,459.8,392.136z M435.105,393.715c-7.244,1.871-14.012,5.123-19.97,9.474l-43.979-43.979
				c7.452-9.964,11.844-22.387,11.844-35.943c0-30.378-22.045-55.056-51.2-59.131v-68.869h59.733
				c3.146,23.593,20.792,43.55,44.246,49.208c1.994,0.523,4.027,0.952,6.1,1.272v146.508
				C439.572,392.61,437.314,393.107,435.105,393.715z M235.898,417.116c-9.123-13.405-23.64-22.842-40.632-25.582V331.8h68.869
				c4.075,29.155,28.753,51.2,59.131,51.2c13.557,0,25.979-4.391,35.943-11.844l43.834,43.834
				c-6.049,7.878-10.169,17.346-11.51,27.743H245.864C244.542,433.274,241.051,424.568,235.898,417.116z M146.135,407.255
				l-43.389-43.389c7.98-8.66,13.394-19.724,15.119-32.065H178.2v60.336C165.859,393.861,154.794,399.274,146.135,407.255z
				 M67.267,263.533V117.864c10.225-1.429,19.578-5.384,27.41-11.241l44.167,44.167C131.391,160.755,127,173.177,127,186.733
				c0,30.378,22.045,55.056,51.2,59.131v68.869h-60.336c-1.322-9.458-4.812-18.164-9.964-25.615
				C98.777,275.712,84.259,266.274,67.267,263.533z M307.78,116.475c1.993,0.523,4.027,0.952,6.1,1.271V178.2h-68.016
				c-4.075-29.155-28.753-51.2-59.131-51.2c-13.557,0-25.979,4.391-35.943,11.844l-44.167-44.167
				c5.857-7.831,9.812-17.184,11.241-27.41h145.669C266.679,90.86,284.326,110.817,307.78,116.475z M363.865,102.745l43.389,43.389
				c-7.98,8.66-13.394,19.724-15.119,32.065H331.8v-60.336C344.141,116.139,355.206,110.726,363.865,102.745z M323.267,365.933
				c-23.893,0-42.667-18.773-42.667-42.667c0-23.893,18.773-42.667,42.667-42.667c23.893,0,42.667,18.773,42.667,42.667
				C365.933,347.16,347.16,365.933,323.267,365.933z M313.88,264.254c-2.308,0.356-4.566,0.853-6.774,1.461
				c-22.507,5.813-40.465,24.938-43.572,49.019h-68.267v-68.869c26.37-3.686,46.912-24.228,50.597-50.597h68.016V264.254z
				 M154.539,158.489c0.839-0.408,1.65-0.945,2.327-1.622c0.735-0.735,1.303-1.553,1.721-2.413
				c7.466-6.49,17.272-10.387,28.146-10.387c23.893,0,42.667,18.773,42.667,42.667S210.627,229.4,186.733,229.4
				s-42.667-18.773-42.667-42.667C144.067,175.811,147.998,165.967,154.539,158.489z M493.933,186.733
				c0,23.893-18.773,42.667-42.667,42.667c-23.893,0-42.667-18.773-42.667-42.667c0-13.176,5.716-24.786,14.844-32.559
				c0.801-0.402,1.574-0.926,2.222-1.575c0.184-0.184,0.353-0.375,0.518-0.569c7.001-5.023,15.638-7.965,25.082-7.965
				C475.16,144.067,493.933,162.84,493.933,186.733z M323.267,16.067c23.893,0,42.667,18.773,42.667,42.667
				c0,9.444-2.942,18.081-7.965,25.083c-0.193,0.164-0.385,0.333-0.568,0.517c-0.722,0.722-1.282,1.523-1.698,2.366
				c-7.772,9.044-19.328,14.701-32.435,14.701c-23.893,0-42.667-18.773-42.667-42.667S299.373,16.067,323.267,16.067z
				 M16.067,58.733c0-23.893,18.773-42.667,42.667-42.667S101.4,34.84,101.4,58.733S82.627,101.4,58.733,101.4
				S16.067,82.627,16.067,58.733z M16.067,323.267c0-23.893,18.773-42.667,42.667-42.667s42.667,18.773,42.667,42.667
				c0,13.106-5.657,24.663-14.701,32.435c-0.842,0.417-1.644,0.976-2.366,1.698c-0.184,0.184-0.353,0.375-0.517,0.568
				c-7.001,5.023-15.638,7.965-25.083,7.965C34.84,365.933,16.067,347.16,16.067,323.267z M186.733,493.933
				c-23.893,0-42.667-18.773-42.667-42.667c0-9.46,2.952-18.111,7.99-25.118c0.187-0.154,0.372-0.31,0.543-0.482
				c0.722-0.722,1.282-1.523,1.698-2.366c7.772-9.044,19.328-14.701,32.435-14.701c23.893,0,42.667,18.773,42.667,42.667
				C229.4,475.16,210.627,493.933,186.733,493.933z M451.267,493.933c-23.893,0-42.667-18.773-42.667-42.667
				c0-10.922,3.931-20.766,10.473-28.245c0.839-0.408,1.65-0.945,2.327-1.622c0.735-0.735,1.303-1.553,1.721-2.413
				c7.466-6.49,17.271-10.387,28.146-10.387c23.893,0,42.667,18.773,42.667,42.667C493.933,475.16,475.16,493.933,451.267,493.933z"
				/>
		</g>
	</g>
</g>
<g>
</g>
<g>
</g>
<g>
</g>
<g>
</g>
<g>
</g>
<g>
</g>
<g>
</g>
<g>
</g>
<g>
</g>
<g>
</g>
<g>
</g>
<g>
</g>
<g>
</g>
<g>
</g>
<g>
</g>
</svg>
