<?xml version="1.0" encoding="iso-8859-1"?>
<!-- Generator: Adobe Illustrator 19.0.0, SVG Export Plug-In . SVG Version: 6.00 Build 0)  -->
<svg version="1.1" id="Layer_1" xmlns="http://www.w3.org/2000/svg" xmlns:xlink="http://www.w3.org/1999/xlink" x="0px" y="0px"
	 viewBox="0 0 512 512" style="enable-background:new 0 0 512 512;" xml:space="preserve">
<g transform="translate(1 1)">
	<g>
		<g>
			<path d="M67.267,41.667c0-5.12-3.413-8.533-8.533-8.533c-14.507,0-25.6,11.093-25.6,25.6c0,5.12,3.413,8.533,8.533,8.533
				s8.533-3.413,8.533-8.533s3.413-8.533,8.533-8.533S67.267,46.787,67.267,41.667z"/>
			<path d="M306.2,67.267c5.12,0,8.533-3.413,8.533-8.533s3.413-8.533,8.533-8.533s8.533-3.413,8.533-8.533
				s-3.413-8.533-8.533-8.533c-14.507,0-25.6,11.093-25.6,25.6C297.667,63.853,301.08,67.267,306.2,67.267z"/>
			<path d="M58.733,297.667c-14.507,0-25.6,11.093-25.6,25.6c0,5.12,3.413,8.533,8.533,8.533s8.533-3.413,8.533-8.533
				s3.413-8.533,8.533-8.533s8.533-3.413,8.533-8.533S63.853,297.667,58.733,297.667z"/>
			<path d="M306.2,331.8c5.12,0,8.533-3.413,8.533-8.533s3.413-8.533,8.533-8.533s8.533-3.413,8.533-8.533s-3.413-8.533-8.533-8.533
				c-14.507,0-25.6,11.093-25.6,25.6C297.667,328.387,301.08,331.8,306.2,331.8z"/>
			<path d="M186.733,161.133c-14.507,0-25.6,11.093-25.6,25.6c0,5.12,3.413,8.533,8.533,8.533s8.533-3.413,8.533-8.533
				s3.413-8.533,8.533-8.533s8.533-3.413,8.533-8.533S191.853,161.133,186.733,161.133z"/>
			<path d="M434.2,195.267c5.12,0,8.533-3.413,8.533-8.533s3.413-8.533,8.533-8.533c5.12,0,8.533-3.413,8.533-8.533
				s-3.413-8.533-8.533-8.533c-14.507,0-25.6,11.093-25.6,25.6C425.667,191.853,429.08,195.267,434.2,195.267z"/>
			<path d="M186.733,425.667c-14.507,0-25.6,11.093-25.6,25.6c0,5.12,3.413,8.533,8.533,8.533s8.533-3.413,8.533-8.533
				c0-5.12,3.413-8.533,8.533-8.533s8.533-3.413,8.533-8.533S191.853,425.667,186.733,425.667z"/>
			<path d="M451.267,425.667c-14.507,0-25.6,11.093-25.6,25.6c0,5.12,3.413,8.533,8.533,8.533s8.533-3.413,8.533-8.533
				c0-5.12,3.413-8.533,8.533-8.533c5.12,0,8.533-3.413,8.533-8.533S456.387,425.667,451.267,425.667z"/>
			<path d="M459.8,392.136V245.864c29.155-4.075,51.2-28.753,51.2-59.131c0-33.28-26.453-59.733-59.733-59.733
				c-30.378,0-55.056,22.045-59.131,51.2H331.8v-60.336c29.155-4.075,51.2-28.753,51.2-59.131C383,25.453,356.547-1,323.267-1
				c-30.378,0-55.056,22.045-59.131,51.2H117.864C113.789,21.045,89.111-1,58.733-1C25.453-1-1,25.453-1,58.733
				c0,30.378,22.045,55.056,51.2,59.131v146.272C21.045,268.211-1,292.889-1,323.267C-1,356.547,25.453,383,58.733,383
				c30.378,0,55.056-22.045,59.131-51.2H178.2v60.336c-29.155,4.075-51.2,28.753-51.2,59.131c0,33.28,26.453,59.733,59.733,59.733
				c30.378,0,55.056-22.045,59.131-51.2h146.272c4.075,29.155,28.753,51.2,59.131,51.2c33.28,0,59.733-26.453,59.733-59.733
				C511,420.889,488.955,396.211,459.8,392.136z M451.267,144.067c23.893,0,42.667,18.773,42.667,42.667S475.16,229.4,451.267,229.4
				c-23.893,0-42.667-18.773-42.667-42.667S427.373,144.067,451.267,144.067z M323.267,16.067c23.893,0,42.667,18.773,42.667,42.667
				S347.16,101.4,323.267,101.4c-23.893,0-42.667-18.773-42.667-42.667S299.373,16.067,323.267,16.067z M16.067,58.733
				c0-23.893,18.773-42.667,42.667-42.667S101.4,34.84,101.4,58.733S82.627,101.4,58.733,101.4S16.067,82.627,16.067,58.733z
				 M58.733,365.933c-23.893,0-42.667-18.773-42.667-42.667c0-23.893,18.773-42.667,42.667-42.667s42.667,18.773,42.667,42.667
				C101.4,347.16,82.627,365.933,58.733,365.933z M117.864,314.733c-1.322-9.458-4.812-18.164-9.964-25.615
				c-9.123-13.406-23.641-22.844-40.633-25.585V117.864c26.37-3.686,46.912-24.228,50.597-50.597h145.669
				c3.146,23.593,20.793,43.55,44.247,49.208c1.993,0.523,4.027,0.952,6.1,1.271V178.2h-68.016
				c-4.075-29.155-28.753-51.2-59.131-51.2C153.453,127,127,153.453,127,186.733c0,30.378,22.045,55.056,51.2,59.131v68.869H117.864
				z M323.267,280.6c23.893,0,42.667,18.773,42.667,42.667c0,23.893-18.773,42.667-42.667,42.667
				c-23.893,0-42.667-18.773-42.667-42.667C280.6,299.373,299.373,280.6,323.267,280.6z M313.88,264.254
				c-2.308,0.356-4.566,0.853-6.774,1.461c-22.507,5.813-40.465,24.938-43.572,49.019h-68.267v-68.869
				c26.37-3.686,46.912-24.228,50.597-50.597h68.016V264.254z M186.733,229.4c-23.893,0-42.667-18.773-42.667-42.667
				s18.773-42.667,42.667-42.667S229.4,162.84,229.4,186.733S210.627,229.4,186.733,229.4z M264.136,331.8
				c4.075,29.155,28.753,51.2,59.131,51.2c33.28,0,59.733-26.453,59.733-59.733c0-30.378-22.045-55.056-51.2-59.131v-68.869h59.733
				c3.146,23.593,20.792,43.55,44.246,49.208c1.994,0.523,4.027,0.952,6.1,1.272v146.508c-2.309,0.356-4.566,0.853-6.775,1.461
				c-22.507,5.813-40.465,24.938-43.572,49.019H245.864c-1.322-9.459-4.813-18.166-9.966-25.618
				c-9.123-13.405-23.64-22.842-40.632-25.582V331.8H264.136z M186.733,493.933c-23.893,0-42.667-18.773-42.667-42.667
				c0-23.893,18.773-42.667,42.667-42.667s42.667,18.773,42.667,42.667C229.4,475.16,210.627,493.933,186.733,493.933z
				 M451.267,493.933c-23.893,0-42.667-18.773-42.667-42.667c0-23.893,18.773-42.667,42.667-42.667
				c23.893,0,42.667,18.773,42.667,42.667C493.933,475.16,475.16,493.933,451.267,493.933z"/>
		</g>
	</g>
</g>
<g>
</g>
<g>
</g>
<g>
</g>
<g>
</g>
<g>
</g>
<g>
</g>
<g>
</g>
<g>
</g>
<g>
</g>
<g>
</g>
<g>
</g>
<g>
</g>
<g>
</g>
<g>
</g>
<g>
</g>
</svg>
