<?xml version="1.0" encoding="iso-8859-1"?>
<!-- Generator: Adobe Illustrator 19.0.0, SVG Export Plug-In . SVG Version: 6.00 Build 0)  -->
<svg version="1.1" id="Layer_1" xmlns="http://www.w3.org/2000/svg" xmlns:xlink="http://www.w3.org/1999/xlink" x="0px" y="0px"
	 viewBox="0 0 512 512" style="enable-background:new 0 0 512 512;" xml:space="preserve">
<g transform="translate(1 1)">
	<g>
		<path d="M378.586,210.862c-6.321,0-12.641,0.518-18.911,1.516c17.794-22.967,27.738-51.343,27.738-80.964
			c0.883-36.193-13.241-69.738-39.724-93.572c-3.531-3.531-8.828-3.531-12.359,0c-3.531,3.531-3.531,8.828,0,12.359
			c22.069,21.186,33.545,50.317,33.545,81.214c-0.734,25.684-8.796,49.534-24.17,69.53c-20.998-26.267-53.324-43.047-89.706-43.047
			c-36.713,0-69.302,17.084-90.283,43.764c-34.947-47.365-32.69-113.102,8.186-152.344c3.531-3.531,3.531-8.828,0-12.359
			c-3.531-3.531-8.828-3.531-12.359,0c-46.627,44.991-50.039,121.056-9.55,175.522c-6.49-1.07-13.035-1.619-19.581-1.619
			C58.145,210.862-1,270.007-1,343.276c0,5.297,3.531,8.828,8.828,8.828s8.828-3.531,8.828-8.828
			c0-63.559,51.2-114.759,114.759-114.759c5.674,0,11.348,0.509,16.97,1.481c-5.252,13.177-8.143,27.567-8.143,42.657
			c0,57.991,42.625,105.685,98.368,113.598c-16.356,42.483-57.588,71.782-107.196,71.782c-5.297,0-8.828,3.531-8.828,8.828
			c0,5.297,3.531,8.828,8.828,8.828c57.005,0,104.614-33.914,123.586-82.886c18.972,48.972,66.581,82.886,123.586,82.886
			c5.297,0,8.828-3.531,8.828-8.828c0-5.297-3.531-8.828-8.828-8.828c-49.758,0-91.088-29.477-107.342-71.761
			c55.815-7.85,98.514-55.577,98.514-113.618c0-15.119-2.902-29.535-8.174-42.733c5.632-0.928,11.316-1.405,17.001-1.405
			c63.559,0,114.759,51.2,114.759,114.759c0,5.297,3.531,8.828,8.828,8.828c5.297,0,8.828-3.531,8.828-8.828
			C511,270.007,451.855,210.862,378.586,210.862z M255,175.552c31.915,0,60.108,15.196,77.781,38.785
			c-4.81,4.867-10.149,9.182-15.871,12.945c-2.707,1.5-5.377,3.094-8.003,4.788c-7.167,3.875-14.766,6.964-22.538,9.281
			c-7.947-7.964-18.994-12.833-31.369-12.833c-0.142,0-0.281,0.009-0.422,0.01c-0.154-0.001-0.305-0.01-0.46-0.01
			c-11.476,0-22.952,4.414-30.897,13.241c-5.808-1.584-11.453-3.651-16.852-6.112c-6.462-4.589-13.215-8.585-20.182-11.945
			c-3.475-2.611-6.731-5.398-9.721-8.336C194.084,191.192,222.624,175.552,255,175.552z M255,299.138
			c-0.69,0-1.369-0.032-2.043-0.08c-0.733-0.325-1.524-0.591-2.371-0.803c-8.268-1.102-14.814-5.647-18.566-12.129
			c-0.009-0.016-0.018-0.032-0.027-0.048c-0.35-0.608-0.673-1.234-0.973-1.875c-0.054-0.117-0.103-0.236-0.156-0.354
			c-0.227-0.505-0.437-1.02-0.632-1.542c-0.068-0.182-0.137-0.364-0.201-0.549c-0.184-0.529-0.349-1.069-0.5-1.615
			c-0.054-0.195-0.11-0.39-0.161-0.587c-0.15-0.595-0.28-1.199-0.391-1.811c-0.032-0.177-0.062-0.355-0.091-0.533
			c-0.105-0.651-0.192-1.31-0.252-1.978c-0.011-0.12-0.017-0.242-0.026-0.362c-0.056-0.731-0.093-1.468-0.093-2.217
			c0-2.648,0.883-6.179,1.766-8.828c0.219-0.656,0.383-1.367,0.466-2.105c0.541-1.246,1.174-2.437,1.891-3.566
			c0.446-0.424,0.841-0.892,1.174-1.391c5.297-7.062,13.241-10.593,21.186-10.593s15.89,3.531,21.186,10.593
			c0.347,0.521,0.737,0.956,1.146,1.347c0.809,1.269,1.518,2.613,2.103,4.03c0.053,0.543,0.135,1.098,0.281,1.685
			c0.883,3.531,1.766,6.179,1.766,8.828c0,0.749-0.037,1.486-0.093,2.217c-0.009,0.121-0.015,0.242-0.026,0.362
			c-0.059,0.669-0.147,1.327-0.252,1.978c-0.029,0.178-0.059,0.356-0.091,0.533c-0.111,0.612-0.241,1.216-0.391,1.811
			c-0.05,0.197-0.106,0.392-0.161,0.587c-0.152,0.546-0.316,1.086-0.5,1.615c-0.064,0.185-0.133,0.366-0.201,0.549
			c-0.195,0.523-0.405,1.038-0.632,1.542c-0.053,0.118-0.102,0.237-0.156,0.354c-0.3,0.641-0.623,1.267-0.973,1.875
			c-0.009,0.016-0.018,0.032-0.027,0.048c-3.752,6.482-10.298,11.026-18.566,12.129c-0.846,0.212-1.638,0.478-2.371,0.803
			C256.369,299.106,255.69,299.138,255,299.138z M157.897,272.655c0-13.568,2.749-26.463,7.719-38.163
			c4.815,1.685,9.546,3.706,14.16,6.047c4.405,3.015,9.057,5.795,13.955,8.294c6.372,4.379,12.407,9.392,17.99,14.971
			c-0.019,0.096-0.032,0.194-0.051,0.291c-0.8,2.616-0.807,5.998-0.807,8.561c0,0.658,0.018,1.313,0.048,1.965
			c0.023,0.549,0.062,1.093,0.104,1.637c0,0.003,0,0.006,0.001,0.009c1.44,18.508,13.857,33.5,30.923,38.625
			c2.544,10.302,4.234,19.808,4.234,30.15c0,8.289-0.863,16.334-2.495,24.064C195.216,363.541,157.897,322.671,157.897,272.655z
			 M352.103,272.655c0,50.058-37.383,90.955-85.905,96.465c-1.553-7.469-2.371-15.224-2.371-23.196
			c0-10.593,1.766-21.186,4.414-30.897c1.362-0.477,2.694-1.024,4-1.623c14.889-6.168,25.423-20.178,26.744-37.138
			c0-0.004,0.001-0.007,0.001-0.011c0.042-0.543,0.081-1.087,0.104-1.635c0.03-0.652,0.048-1.306,0.048-1.965
			c0-2.563-0.007-5.945-0.807-8.561c-0.018-0.097-0.032-0.195-0.051-0.292c5.625-5.846,11.709-11,18.134-15.442
			c4.691-2.43,9.243-5.124,13.628-8.098c4.641-2.34,9.402-4.339,14.248-5.991C349.318,246.032,352.103,259.002,352.103,272.655z"/>
	</g>
</g>
<g>
</g>
<g>
</g>
<g>
</g>
<g>
</g>
<g>
</g>
<g>
</g>
<g>
</g>
<g>
</g>
<g>
</g>
<g>
</g>
<g>
</g>
<g>
</g>
<g>
</g>
<g>
</g>
<g>
</g>
</svg>
