<?xml version="1.0" encoding="iso-8859-1"?>
<!-- Generator: Adobe Illustrator 19.0.0, SVG Export Plug-In . SVG Version: 6.00 Build 0)  -->
<svg version="1.1" id="Layer_1" xmlns="http://www.w3.org/2000/svg" xmlns:xlink="http://www.w3.org/1999/xlink" x="0px" y="0px"
	 viewBox="0 0 510.293 510.293" style="enable-background:new 0 0 510.293 510.293;" xml:space="preserve">
<g transform="translate(1 1)">
	<g>
		<g>
			<path d="M313.88,276.333c0-33.28-26.453-59.733-59.733-59.733c-33.28,0-59.733,26.453-59.733,59.733
				c0,33.28,26.453,59.733,59.733,59.733C287.427,336.067,313.88,309.613,313.88,276.333z M254.147,319
				c-23.893,0-42.667-18.773-42.667-42.667c0-23.893,18.773-42.667,42.667-42.667c23.893,0,42.667,18.773,42.667,42.667
				C296.813,300.227,278.04,319,254.147,319z"/>
			<path d="M202.093,206.36c0.853,2.56,2.56,4.267,5.12,5.12c0.853,0.853,1.707,0.853,2.56,0.853c1.707,0,3.413-0.853,4.267-2.56
				c23.893-14.507,55.467-14.507,79.36,0c2.56,1.707,5.12,1.707,7.68,0.853c2.56-0.853,4.267-2.56,5.12-5.12L358.253,50.2
				c0.853-4.267-0.853-8.533-5.12-10.24c-31.573-12.8-64.853-19.627-98.987-19.627c-34.133,0-67.413,6.827-98.987,20.48
				c-4.267,1.707-6.827,5.973-5.12,10.24L202.093,206.36z M339.48,52.76L293.4,191c-24.747-11.093-53.76-11.093-78.507,0
				l-46.08-138.24C223.427,32.28,284.867,32.28,339.48,52.76z"/>
			<path d="M502.467,287.427l-162.133-33.28c-2.56,0-5.973,0.853-7.68,2.56c-1.707,1.707-3.413,5.12-2.56,7.68
				c0.853,4.267,0.853,8.533,0.853,11.947c0,31.573-18.773,59.733-47.787,70.827c-2.56,0.853-4.267,3.413-5.12,5.973
				s0,5.973,1.707,7.68L389.827,485.4c0.853,1.707,3.413,2.56,5.973,2.56c1.707,0,3.413-0.853,5.12-1.707
				c63.147-44.373,102.4-113.493,108.373-189.44C509.293,292.547,506.733,288.28,502.467,287.427z M397.507,467.48l-97.28-109.227
				c29.013-16.213,47.787-47.787,47.787-81.92c0-0.853,0-1.707,0-2.56l143.36,29.013
				C484.547,368.493,450.413,428.227,397.507,467.48z"/>
			<path d="M225.133,347.16c-29.013-11.093-47.787-39.253-47.787-70.827c0-3.413,0-7.68,0.853-11.947c0-2.56-0.853-5.973-2.56-7.68
				c-1.707-2.56-5.12-3.413-7.68-2.56L5.827,287.427C1.56,288.28-1,292.547-1,296.813c5.973,75.947,45.227,145.067,108.373,189.44
				c1.707,0.853,3.413,1.707,5.12,1.707c2.56,0,4.267-0.853,5.973-3.413l110.08-123.733c1.707-2.56,2.56-5.12,1.707-7.68
				S227.693,348.013,225.133,347.16z M110.787,467.48c-52.907-39.253-87.04-98.987-93.867-164.693l143.36-29.013
				c0,0.853,0,1.707,0,2.56c0,34.133,18.773,65.707,47.787,81.92L110.787,467.48z"/>
		</g>
	</g>
</g>
<g>
</g>
<g>
</g>
<g>
</g>
<g>
</g>
<g>
</g>
<g>
</g>
<g>
</g>
<g>
</g>
<g>
</g>
<g>
</g>
<g>
</g>
<g>
</g>
<g>
</g>
<g>
</g>
<g>
</g>
</svg>
