<?xml version="1.0" encoding="iso-8859-1"?>
<!-- Generator: Adobe Illustrator 19.0.0, SVG Export Plug-In . SVG Version: 6.00 Build 0)  -->
<svg version="1.1" id="Layer_1" xmlns="http://www.w3.org/2000/svg" xmlns:xlink="http://www.w3.org/1999/xlink" x="0px" y="0px"
	 viewBox="0 0 512 512" style="enable-background:new 0 0 512 512;" xml:space="preserve">
<g transform="translate(1 1)">
	<g>
		<path d="M429.933,397.507l-15.36-18.773c-0.57-0.57-1.189-1.042-1.834-1.443L305.771,244.951
			c9.875-3.507,16.642-12.755,16.642-24.085c0-14.227-10.672-25.163-24.767-25.58l0.873-0.873
			c30.72-26.453,37.547-69.973,17.92-105.813l-42.667-77.653C269.507,3.267,262.68-1,254.147-1c-8.533,0-15.36,4.267-20.48,11.947
			L191,88.6c-19.627,34.987-11.947,78.507,17.92,105.813l0.907,0.907c-13.687,0.808-23.947,11.596-23.947,25.546
			c0,11.825,7.372,21.379,17.953,24.509L80.92,396.653c-9.387,11.093-14.507,25.6-14.507,40.107c0,17.067,6.827,33.28,18.773,45.227
			C103.96,500.76,128.707,511,155.16,511h194.56c23.04,0,45.227-8.533,64.853-23.04l7.68-5.973
			c13.653-11.093,21.333-28.16,21.333-46.08C443.587,421.4,438.467,408.6,429.933,397.507z M237.333,372.31
			c-28.527-22.076-66.641-28.625-99.709-19.364l86.656-106.48h21.324C245.495,299.023,244.245,341.77,237.333,372.31z
			 M262.678,246.467h21.335l108.798,134.232c-12.401,5.366-23.841,12.917-32.852,21.928
			c-32.007,29.665-76.151,10.765-108.266-17.496C262.107,348.69,262.651,298.728,262.678,246.467z M264.387,190.147l-1.707,1.707
			c-5.12,4.267-12.8,4.267-17.92,0l-1.707-1.707c-11.947-11.093-15.36-29.013-6.827-43.52l17.92-34.987l17.067,34.987
			C279.747,161.133,276.333,179.053,264.387,190.147z M206.36,96.28l42.667-77.653c1.707-2.56,4.267-2.56,5.12-2.56
			s3.413,0,5.12,2.56l42.667,77.653c14.648,26.855,9.881,60.685-11.314,82.267c3.453-12.676,1.933-26.547-4.899-38.747
			l-18.773-37.547c-2.56-5.12-7.68-8.533-13.653-8.533c-5.973,0-11.093,3.413-13.653,8.533l-18.773,36.693
			c-6.697,11.958-8.028,25.524-4.752,37.995C195.422,154.724,191.242,122.537,206.36,96.28z M211.48,212.333h85.333
			c5.12,0,8.533,3.413,8.533,8.533s-3.413,8.533-8.533,8.533h-7.68h-68.267h-9.387c-5.12,0-8.533-3.413-8.533-8.533
			S206.36,212.333,211.48,212.333z M349.72,493.933H155.16c-22.187,0-42.667-8.533-58.027-23.893
			c-8.533-8.533-13.653-20.48-13.653-33.28c0-11.093,3.413-21.333,10.24-29.013L113.347,383
			c32.427-24.747,85.333-22.187,118.613,6.827c0.062,0.063,0.125,0.126,0.187,0.189c-8.71,23.153-22.972,35.651-46.267,35.651
			c-5.12,0-8.533,3.413-8.533,8.533s3.413,8.533,8.533,8.533c30.209,0,48.531-15.322,59.649-40.344
			c36.7,30.747,87.881,49.27,126.378,13.038c8.533-9.387,19.627-16.213,32.427-20.48l11.093,13.653
			c5.973,7.68,9.387,17.067,9.387,27.307c0,12.8-5.12,24.747-15.36,33.28l-7.68,5.973
			C387.267,487.107,368.493,493.933,349.72,493.933z"/>
	</g>
</g>
<g>
</g>
<g>
</g>
<g>
</g>
<g>
</g>
<g>
</g>
<g>
</g>
<g>
</g>
<g>
</g>
<g>
</g>
<g>
</g>
<g>
</g>
<g>
</g>
<g>
</g>
<g>
</g>
<g>
</g>
</svg>
