<?xml version="1.0" encoding="iso-8859-1"?>
<!-- Generator: Adobe Illustrator 19.0.0, SVG Export Plug-In . SVG Version: 6.00 Build 0)  -->
<svg version="1.1" id="Layer_1" xmlns="http://www.w3.org/2000/svg" xmlns:xlink="http://www.w3.org/1999/xlink" x="0px" y="0px"
	 viewBox="0 0 512 512" style="enable-background:new 0 0 512 512;" xml:space="preserve">
<g transform="translate(1 1)">
	<g>
		<g>
			<path d="M135.533,92.867c5.12,0,8.533-3.413,8.533-8.533S147.48,75.8,152.6,75.8c5.12,0,8.533-3.413,8.533-8.533
				s-3.413-8.533-8.533-8.533c-14.507,0-25.6,11.093-25.6,25.6C127,89.453,130.413,92.867,135.533,92.867z"/>
			<path d="M348.867,92.867c5.12,0,8.533-3.413,8.533-8.533s3.413-8.533,8.533-8.533s8.533-3.413,8.533-8.533
				s-3.413-8.533-8.533-8.533c-14.507,0-25.6,11.093-25.6,25.6C340.333,89.453,343.747,92.867,348.867,92.867z"/>
			<path d="M152.6,400.067c-14.507,0-25.6,11.093-25.6,25.6c0,5.12,3.413,8.533,8.533,8.533s8.533-3.413,8.533-8.533
				s3.413-8.533,8.533-8.533c5.12,0,8.533-3.413,8.533-8.533C161.133,403.48,157.72,400.067,152.6,400.067z"/>
			<path d="M365.933,400.067c-14.507,0-25.6,11.093-25.6,25.6c0,5.12,3.413,8.533,8.533,8.533s8.533-3.413,8.533-8.533
				s3.413-8.533,8.533-8.533s8.533-3.413,8.533-8.533C374.467,403.48,371.053,400.067,365.933,400.067z"/>
			<path d="M58.733,229.4c-14.507,0-25.6,11.093-25.6,25.6c0,5.12,3.413,8.533,8.533,8.533S50.2,260.12,50.2,255
				c0-5.12,3.413-8.533,8.533-8.533s8.533-3.413,8.533-8.533S63.853,229.4,58.733,229.4z"/>
			<path d="M255,161.133c-52.053,0-93.867,41.813-93.867,93.867s41.813,93.867,93.867,93.867s93.867-41.813,93.867-93.867
				S307.053,161.133,255,161.133z M255,331.8c-42.667,0-76.8-34.133-76.8-76.8s34.133-76.8,76.8-76.8
				c42.667,0,76.8,34.133,76.8,76.8S297.667,331.8,255,331.8z"/>
			<path d="M255,195.267c-33.28,0-59.733,26.453-59.733,59.733c0,5.12,3.413,8.533,8.533,8.533c5.12,0,8.533-3.413,8.533-8.533
				c0-23.893,18.773-42.667,42.667-42.667c5.12,0,8.533-3.413,8.533-8.533S260.12,195.267,255,195.267z"/>
			<path d="M451.267,195.267c-5.829,0-11.441,0.828-16.746,2.345l-35.52-63.378c16.13-10.633,26.666-28.904,26.666-49.9
				c0-33.28-26.453-59.733-59.733-59.733c-30.378,0-55.056,22.045-59.131,51.2h-95.072c-4.075-29.155-28.753-51.2-59.131-51.2
				c-33.28,0-59.733,26.453-59.733,59.733c0,20.639,10.18,38.646,25.846,49.352l-49.062,62.571c-3.537-0.639-7.181-0.99-10.918-0.99
				C25.453,195.267-1,221.72-1,255c0,33.28,26.453,59.733,59.733,59.733c3.473,0,6.866-0.304,10.168-0.858l49.263,62.828
				c-15.353,10.75-25.298,28.568-25.298,48.964c0,33.28,26.453,59.733,59.733,59.733c30.378,0,55.056-22.045,59.131-51.2h95.072
				c4.075,29.155,28.753,51.2,59.131,51.2c33.28,0,59.733-26.453,59.733-59.733c0-21.293-10.839-39.777-27.357-50.341l34.806-63.347
				c5.712,1.787,11.806,2.754,18.151,2.754C484.547,314.733,511,288.28,511,255C511,221.72,484.547,195.267,451.267,195.267z
				 M365.933,41.667c23.893,0,42.667,18.773,42.667,42.667c0,23.75-18.551,42.433-42.24,42.656
				c-23.689-0.223-42.24-18.906-42.24-42.656c0-1.355-0.245-2.586-0.692-3.67C325.24,58.547,343.279,41.667,365.933,41.667z
				 M109.933,84.333c0-23.893,18.773-42.667,42.667-42.667c23.893,0,42.667,18.773,42.667,42.667
				c0,23.725-18.512,42.392-42.165,42.654c-5.856-0.065-11.712-1.745-17.568-4.254c-1.098-0.549-2.284-0.829-3.473-0.849
				C118.782,114.726,109.933,100.737,109.933,84.333z M16.067,255c0-23.893,18.773-42.667,42.667-42.667
				c3.954,0,7.763,0.524,11.375,1.491c0.19,0.074,0.38,0.152,0.572,0.216c16.794,4.798,29.091,20.09,30.57,37.445
				c0.002,0.024,0.003,0.048,0.005,0.072c0.043,0.512,0.074,1.026,0.098,1.541c0.027,0.631,0.047,1.263,0.047,1.902
				c0,0.638-0.02,1.271-0.047,1.901c-0.024,0.521-0.056,1.041-0.099,1.559c-0.001,0.016-0.002,0.033-0.004,0.049
				c-1.48,17.358-13.828,32.652-31.424,37.451c-0.449,0.15-0.894,0.367-1.333,0.612c-3.128,0.708-6.39,1.094-9.76,1.094
				C34.84,297.667,16.067,278.893,16.067,255z M152.6,468.333c-23.893,0-42.667-18.773-42.667-42.667
				c0-16.468,8.92-30.502,22.286-37.635c0.845-0.122,1.676-0.372,2.461-0.765c5.973-2.56,11.947-4.267,17.92-4.267
				c23.893,0,42.667,18.773,42.667,42.667S176.493,468.333,152.6,468.333z M408.6,425.667c0,23.893-18.773,42.667-42.667,42.667
				s-42.667-18.773-42.667-42.667S342.04,383,365.933,383S408.6,401.773,408.6,425.667z M382.323,368.179
				c-5.2-1.453-10.691-2.245-16.39-2.245c-0.121,0-0.24,0.008-0.36,0.009c-0.166-0.001-0.326-0.009-0.493-0.009
				c-29.867,0-54.613,22.187-58.88,51.2h-94.469c-3.821-27.339-25.761-48.416-53.528-50.936c-0.203-0.019-0.409-0.029-0.613-0.046
				c-0.699-0.056-1.397-0.114-2.103-0.147c-0.957-0.046-1.919-0.072-2.887-0.072c-6.827,0-12.8,0.853-18.773,2.56l-47.599-60.349
				c17.974-9.215,30.491-27.251,32.055-48.612c0.018-0.227,0.036-0.454,0.051-0.681c0.027-0.429,0.052-0.858,0.07-1.29
				c0.038-0.852,0.064-1.705,0.064-2.562s-0.026-1.711-0.064-2.562c-0.018-0.432-0.043-0.861-0.07-1.29
				c-0.015-0.227-0.033-0.454-0.051-0.681c-1.564-21.361-14.081-39.397-32.055-48.612l47.599-60.349
				c4.891,1.397,10.348,2.213,15.446,2.466c0.143,0.008,0.285,0.015,0.428,0.022c0.981,0.043,1.953,0.072,2.899,0.072
				c0.968,0,1.93-0.026,2.887-0.072c0.706-0.033,1.404-0.09,2.103-0.147c0.204-0.017,0.41-0.027,0.613-0.046
				c27.767-2.52,49.707-23.597,53.528-50.936h95.072c3.821,27.339,25.761,48.416,53.528,50.936c0.203,0.019,0.409,0.029,0.613,0.046
				c0.699,0.056,1.397,0.114,2.103,0.147c0.957,0.046,1.919,0.072,2.887,0.072c0.926,0,1.851-0.028,2.774-0.069
				c0.26-0.012,0.519-0.027,0.778-0.042c0.71-0.041,1.416-0.094,2.119-0.158c0.236-0.022,0.472-0.04,0.707-0.064
				c0.851-0.089,1.697-0.192,2.533-0.317c0.571-0.083,1.135-0.187,1.701-0.286c0.154-0.028,0.309-0.052,0.462-0.081
				c2.058-0.378,4.077-0.855,6.052-1.434l34.818,63.691c-4.394,2.937-8.355,6.453-11.804,10.429
				c-0.159,0.182-0.317,0.364-0.474,0.548c-0.262,0.31-0.525,0.619-0.781,0.934c-0.478,0.586-0.945,1.181-1.4,1.787
				c-0.097,0.129-0.19,0.26-0.286,0.389c-0.465,0.63-0.919,1.269-1.359,1.919c-0.053,0.079-0.108,0.156-0.161,0.235
				c-0.473,0.706-0.93,1.424-1.372,2.152c-0.097,0.159-0.192,0.319-0.287,0.479c-0.384,0.645-0.759,1.297-1.119,1.958
				c-0.106,0.193-0.209,0.388-0.313,0.582c-0.304,0.574-0.598,1.154-0.884,1.74c-0.162,0.332-0.322,0.664-0.479,0.999
				c-0.205,0.44-0.401,0.883-0.595,1.329c-0.264,0.604-0.518,1.214-0.762,1.829c-0.1,0.253-0.2,0.506-0.297,0.76
				c-0.591,1.546-1.12,3.124-1.584,4.731c-0.048,0.167-0.094,0.335-0.141,0.503c-0.256,0.915-0.49,1.84-0.703,2.773
				c-0.052,0.227-0.106,0.454-0.155,0.682c-0.107,0.494-0.209,0.989-0.304,1.488c-0.087,0.458-0.166,0.919-0.243,1.38
				c-0.093,0.56-0.179,1.121-0.257,1.686c-0.073,0.529-0.14,1.06-0.199,1.593c-0.034,0.308-0.072,0.615-0.101,0.924
				c-0.079,0.818-0.138,1.641-0.184,2.466c-0.012,0.227-0.022,0.455-0.032,0.683c-0.04,0.903-0.067,1.808-0.067,2.718
				s0.027,1.815,0.067,2.718c0.01,0.228,0.02,0.456,0.032,0.683c0.046,0.826,0.106,1.648,0.184,2.466
				c0.029,0.309,0.067,0.616,0.101,0.924c0.06,0.533,0.126,1.064,0.199,1.593c0.078,0.565,0.164,1.127,0.257,1.687
				c0.077,0.461,0.155,0.921,0.242,1.378c0.095,0.499,0.197,0.994,0.304,1.488c0.049,0.228,0.103,0.454,0.155,0.681
				c0.213,0.934,0.448,1.859,0.704,2.774c0.047,0.167,0.092,0.335,0.141,0.501c0.464,1.608,0.993,3.185,1.584,4.732
				c0.097,0.254,0.196,0.507,0.296,0.759c0.245,0.616,0.499,1.227,0.764,1.833c0.194,0.444,0.39,0.887,0.594,1.325
				c0.157,0.335,0.317,0.668,0.479,1c0.285,0.584,0.579,1.164,0.883,1.737c0.104,0.196,0.209,0.392,0.315,0.587
				c0.36,0.66,0.734,1.311,1.117,1.956c0.095,0.16,0.19,0.32,0.287,0.479c0.443,0.728,0.899,1.446,1.372,2.151
				c0.054,0.08,0.109,0.158,0.163,0.238c0.44,0.649,0.893,1.288,1.358,1.917c0.096,0.13,0.189,0.261,0.286,0.39
				c0.455,0.605,0.922,1.201,1.4,1.787c0.256,0.315,0.518,0.624,0.781,0.934c0.157,0.184,0.315,0.366,0.474,0.548
				c3.448,3.976,7.409,7.491,11.802,10.428L382.323,368.179z M451.267,297.667c-5.531,0-10.781-1.017-15.594-2.859
				c-0.583-0.599-1.32-1.072-2.326-1.407c-14.355-6.38-23.488-20.214-24.622-35.232c-0.006-0.089-0.014-0.178-0.02-0.267
				c-0.067-0.963-0.105-1.931-0.105-2.902c0-0.974,0.038-1.945,0.105-2.911c0.005-0.081,0.012-0.162,0.018-0.243
				c1.136-15.023,10.375-28.864,26.33-35.246c0.913-0.457,1.822-1.166,2.605-2.111c4.26-1.393,8.829-2.155,13.609-2.155
				c23.893,0,42.667,18.773,42.667,42.667S475.16,297.667,451.267,297.667z"/>
			<path d="M451.267,229.4c-14.507,0-25.6,11.093-25.6,25.6c0,5.12,3.413,8.533,8.533,8.533s8.533-3.413,8.533-8.533
				c0-5.12,3.413-8.533,8.533-8.533c5.12,0,8.533-3.413,8.533-8.533S456.387,229.4,451.267,229.4z"/>
		</g>
	</g>
</g>
<g>
</g>
<g>
</g>
<g>
</g>
<g>
</g>
<g>
</g>
<g>
</g>
<g>
</g>
<g>
</g>
<g>
</g>
<g>
</g>
<g>
</g>
<g>
</g>
<g>
</g>
<g>
</g>
<g>
</g>
</svg>
