<?xml version="1.0" encoding="iso-8859-1"?>
<!-- Generator: Adobe Illustrator 19.0.0, SVG Export Plug-In . SVG Version: 6.00 Build 0)  -->
<svg version="1.1" id="Layer_1" xmlns="http://www.w3.org/2000/svg" xmlns:xlink="http://www.w3.org/1999/xlink" x="0px" y="0px"
	 viewBox="0 0 510.579 510.579" style="enable-background:new 0 0 510.579 510.579;" xml:space="preserve">
<g transform="translate(1 1)">
	<g>
		<path d="M481.218,99.249c-18.224-3.471-36.447,8.678-39.919,27.769c-0.868,9.546,0.868,18.224,6.075,26.034
			c3.596,4.795,8.435,8.76,14.228,11.327l-21.751,122.737c-11.769,1.064-22.429,8.309-27.726,19.233l-123.099-21.815
			c-1.038-12.114-8.624-23.08-20.04-28.26l21.683-121.579c15.258-1.354,28.428-13.013,30.874-28.504
			c3.471-18.224-8.678-36.447-27.769-39.919c-15.406-2.935-30.81,5.296-37.303,19.445L133.752,63.971
			c-0.965-15.116-12.143-28.606-28.29-31.542c-18.224-3.471-36.447,8.678-39.919,27.77c-2.205,16.174,6.179,31.72,20.4,37.679
			L64.336,219.809c-6.395,0.516-12.358,2.455-17.884,6.139c-6.942,5.207-12.149,13.017-13.885,22.563
			c-2.935,15.406,5.296,30.81,19.445,37.303L30.408,407.726c-14.82,1.27-27.928,12.341-30.817,28.229
			c-3.471,18.224,8.678,36.447,27.769,39.919c1.736,0.868,4.339,0.868,6.075,0.868c16.488,0,31.241-11.281,33.844-28.637
			c2.935-15.406-5.296-30.81-19.445-37.303L69.39,289.162c12.255-1.093,23.16-8.865,28.243-20.333l122.786,21.76
			c1.27,14.82,12.341,27.928,28.229,30.817c1.736,0.868,4.339,0.868,6.075,0.868c6.942,0,13.885-1.736,19.959-6.075
			c4.795-3.596,8.76-8.435,11.327-14.228l122.661,21.737c0.965,15.116,12.143,28.606,28.29,31.542
			c1.736,0.868,4.339,0.868,6.075,0.868c6.942,0,13.885-2.603,19.959-6.075c6.942-5.207,12.149-13.017,13.885-22.563
			c2.944-15.457-5.352-30.91-19.588-37.365l21.699-122.444c15.251-1.358,28.367-13.015,29.998-28.503
			C512.459,120.944,500.31,102.72,481.218,99.249z M287.699,82.761c1.736,0,2.603,0,3.471,0c9.546,1.736,15.62,10.414,13.885,19.959
			c-1.736,9.546-10.414,15.62-19.959,13.885s-15.62-10.414-13.885-19.091c0.179-1.072,0.165-2.104,0.006-3.08
			C273.817,87.432,280.09,82.761,287.699,82.761z M82.899,63.67c1.736-8.678,8.678-14.753,17.356-14.753
			c0.868,0,1.736,0,2.603,0.868c9.546,0.868,15.62,10.414,13.885,19.959c-1.5,8.251-8.189,13.896-16.14,14.159
			c-0.971-0.016-1.955-0.093-2.952-0.274c-0.457-0.076-0.904-0.108-1.346-0.119c-4.177-0.958-8.296-3.48-10.804-6.823
			C82.899,72.348,82.032,68.009,82.899,63.67z M49.923,445.5c-1.736,9.546-10.414,15.62-19.959,13.885s-15.62-10.414-13.885-19.959
			c1.736-8.678,8.678-14.753,17.356-14.753c0.093,0,0.187,0.014,0.28,0.032c0.475,0.253,0.972,0.461,1.486,0.62
			c0.279,0.122,0.559,0.215,0.838,0.215C45.584,427.276,52.527,435.954,49.923,445.5z M66.639,272.211
			c-0.869-0.542-1.825-0.937-2.831-1.138c-1.086-0.181-2.131-0.164-3.118,0.001c-7.705-2.871-12.305-10.636-10.767-19.093
			c0.868-4.339,3.471-8.678,6.942-11.281c2.603-2.603,6.075-3.471,9.546-3.471c1.736,0,2.603,0,3.471,0.868
			c8.251,1.5,13.896,8.189,14.159,16.14c-0.016,0.971-0.093,1.955-0.274,2.952c-0.078,0.47-0.11,0.931-0.12,1.385
			C81.893,266.872,74.846,272.401,66.639,272.211z M91.324,229.995c-2.832-2.965-6.215-5.453-10.048-7.282l21.582-120.86
			c12.149-0.868,23.431-8.678,28.637-19.959l121.492,21.695c0.868,12.149,8.678,23.431,19.959,28.637l-21.619,121.066
			c-5.88,0.569-11.477,2.678-16.259,6.02c-5.318,3.506-9.725,8.451-12.454,14.364l-121.492-21.695
			C100.551,243.394,96.943,235.577,91.324,229.995z M264.269,302.314c-3.471,2.603-8.678,3.471-13.017,2.603
			c-9.546-1.736-15.62-10.414-13.885-19.959c1.736-8.678,8.678-14.753,17.356-14.753c0.868,0,1.736,0,2.603,0.868
			c8.897,1.618,14.772,9.267,14.125,18.028c-0.095,0.342-0.179,0.694-0.24,1.063c-0.076,0.457-0.108,0.904-0.119,1.346
			C270.134,295.687,267.613,299.806,264.269,302.314z M459.523,324.876c-0.868,4.339-3.471,8.678-6.942,11.281
			s-8.678,3.471-13.017,2.603c-9.546-1.736-15.62-10.414-13.885-19.959c1.736-8.678,8.678-14.753,17.356-14.753
			c0.868,0,1.736,0,2.603,0.868C455.184,306.653,461.259,315.331,459.523,324.876z M492.499,136.565
			c-1.507,8.286-8.247,13.949-16.243,14.166c-0.874-0.548-1.836-0.946-2.849-1.149c-1.255-0.209-2.458-0.161-3.576,0.085
			c-3.369-1.231-6.515-3.416-8.573-6.16c-2.603-3.471-3.471-8.678-2.603-13.017c1.736-8.678,8.678-14.753,17.356-14.753
			c0.868,0,1.736,0,2.603,0.868C488.16,118.341,494.235,127.019,492.499,136.565z"/>
	</g>
</g>
<g>
</g>
<g>
</g>
<g>
</g>
<g>
</g>
<g>
</g>
<g>
</g>
<g>
</g>
<g>
</g>
<g>
</g>
<g>
</g>
<g>
</g>
<g>
</g>
<g>
</g>
<g>
</g>
<g>
</g>
</svg>
