<?xml version="1.0" encoding="iso-8859-1"?>
<!-- Generator: Adobe Illustrator 19.0.0, SVG Export Plug-In . SVG Version: 6.00 Build 0)  -->
<svg version="1.1" id="Layer_1" xmlns="http://www.w3.org/2000/svg" xmlns:xlink="http://www.w3.org/1999/xlink" x="0px" y="0px"
	 viewBox="0 0 511.753 511.753" style="enable-background:new 0 0 511.753 511.753;" xml:space="preserve">
<g transform="translate(1 1)">
	<g>
		<path d="M472.112,322.499c21.253,0,38.641-17.389,38.641-38.641c0-17.92-12.363-33.092-28.981-37.41v-78.514
			c0-3.864-2.898-6.762-5.796-8.694l-62.638-31.748c0.53-2.54,0.811-5.168,0.811-7.86c0-17.92-12.363-33.092-28.981-37.41V13.367
			c0-5.796-3.864-9.66-9.66-9.66c-5.796,0-9.66,3.864-9.66,9.66v68.854c-16.618,4.318-28.981,19.49-28.981,37.41
			c0,2.647,0.27,5.234,0.784,7.735l-30.085,14.722c-7.085-7.846-17.322-12.797-28.661-12.797c-11.457,0-21.786,5.059-28.878,13.047
			l-63.862-32.368c-2.898-0.966-5.796-0.966-8.694,0l-63.191,32.028c-7.082-7.794-17.287-12.707-28.583-12.707
			c-9.093,0-17.473,3.19-24.092,8.497L14.21,102.243c-3.864-2.898-10.626-1.932-13.525,1.932
			c-2.898,3.864-1.932,10.626,1.932,13.525l47.369,35.527c-1.884,4.54-2.932,9.506-2.932,14.707c0,17.92,12.363,33.092,28.981,37.41
			v78.514c0,3.864,1.932,6.762,5.796,8.694L144.47,324.3c-0.53,2.54-0.811,5.168-0.811,7.86c0,18.264,12.846,33.664,29.947,37.636
			v40.652c-17.101,3.973-29.947,19.372-29.947,37.636c0,2.534,0.254,5.012,0.726,7.413l-63.518,32.194
			c-3.864,1.932-5.796,7.728-3.864,12.558c1.932,3.864,4.83,5.796,8.694,5.796c1.932,0,2.898,0,3.864-1.932l62.715-31.787
			c7.099,8.766,17.934,14.398,30.025,14.398c11.775,0,22.357-5.343,29.46-13.719l63.28,32.073c0.966,0.966,1.932,0.966,3.864,0.966
			s2.898,0,4.83-0.966l62.609-31.733c7.099,8.178,17.551,13.378,29.165,13.378c11.775,0,22.357-5.343,29.46-13.719l63.28,32.073
			c0.966,0.966,1.932,0.966,3.864,0.966c3.864,0,6.762-1.932,8.694-4.83c2.898-4.83,0.966-10.626-3.864-12.558l-63.703-32.288
			c0.59-2.672,0.91-5.443,0.91-8.286c0-17.92-12.363-33.092-28.981-37.41V369.57c16.618-4.318,28.981-19.49,28.981-37.41
			c0-2.858-0.324-5.642-0.92-8.327l29.439-15.033C449.771,317.164,460.346,322.499,472.112,322.499z M491.432,283.858
			c0,10.626-8.694,19.321-19.321,19.321c-7.938,0-14.794-4.854-17.757-11.738c-0.689-2.101-1.307-4.202-1.499-6.303
			c-0.028-0.425-0.065-0.848-0.065-1.28c0-1.5,0.19-2.955,0.518-4.359c0.199-0.854,0.458-1.684,0.767-2.491
			c0.701-1.831,1.667-3.53,2.862-5.048c0.131-0.166,0.257-0.336,0.393-0.498c3.551-4.224,8.864-6.925,14.781-6.925c0,0,0,0,0.001,0
			C482.738,264.537,491.432,273.231,491.432,283.858z M375.508,100.31c10.626,0,19.321,8.694,19.321,19.321
			c0,2.076-0.341,4.074-0.955,5.952c-0.386,0.538-0.719,1.129-0.978,1.776c-3.864,6.762-9.66,10.626-17.389,10.626
			c-7.728,0-14.491-3.864-17.389-10.626c-0.206-0.412-0.464-0.796-0.752-1.162c-0.75-2.055-1.18-4.26-1.18-6.567
			C356.187,109.005,364.881,100.31,375.508,100.31z M261.147,291.441c-0.689-2.101-1.308-4.202-1.499-6.303
			c-0.028-0.425-0.065-0.848-0.065-1.28c0-10.626,8.694-19.32,19.32-19.321c0,0,0,0,0.001,0c5.313,0,10.143,2.174,13.645,5.675
			c0.04,0.04,0.074,0.084,0.113,0.125c0.72,0.732,1.374,1.526,1.971,2.364c2.251,3.159,3.591,7.005,3.591,11.157
			c0,0.432-0.037,0.855-0.065,1.281c-0.191,2.101-0.81,4.201-1.498,6.302c-2.963,6.884-9.819,11.738-17.757,11.738
			C270.966,303.178,264.11,298.325,261.147,291.441z M278.904,148.612c7.938,0,14.794,4.853,17.757,11.738
			c0.689,2.101,1.308,4.202,1.499,6.303c0.028,0.425,0.065,0.849,0.065,1.281c0,10.626-8.694,19.321-19.321,19.321
			s-19.321-8.694-19.321-19.321c0-0.461,0.037-0.912,0.07-1.365c0.078-0.883,0.213-1.766,0.359-2.649
			C261.873,155.203,269.653,148.612,278.904,148.612z M66.376,167.933c0-10.626,8.694-19.321,19.321-19.321
			c7.938,0,14.794,4.853,17.757,11.737c0.689,2.101,1.308,4.203,1.499,6.304c0.028,0.425,0.065,0.848,0.065,1.28
			c0,10.626-8.694,19.321-19.321,19.321C75.07,187.254,66.376,178.56,66.376,167.933z M95.357,278.061v-72.453
			c4.788-1.408,9.242-3.642,13.158-6.549c0.192-0.141,0.381-0.285,0.571-0.429c0.205-0.158,0.408-0.318,0.609-0.48
			c0.279-0.222,0.556-0.445,0.829-0.675c0.076-0.064,0.151-0.131,0.226-0.196c0.97-0.83,1.897-1.706,2.781-2.626
			c0.19-0.197,0.38-0.393,0.566-0.594c0.151-0.164,0.298-0.33,0.446-0.496c0.28-0.313,0.555-0.63,0.825-0.952
			c0.071-0.085,0.143-0.171,0.213-0.257c4.643-5.632,7.731-12.575,8.539-20.344c0.008-0.078,0.017-0.156,0.025-0.234
			c0.051-0.524,0.091-1.052,0.121-1.584c0.007-0.123,0.018-0.245,0.024-0.368c0.03-0.626,0.048-1.256,0.048-1.892
			c0-2.898,0-5.796-0.966-8.694l58.928-28.981l58.928,28.981c-0.966,1.932-0.966,4.83-0.966,7.728c0,0.176,0.009,0.35,0.011,0.526
			c-0.002,0.147-0.011,0.292-0.011,0.44c0,17.92,12.363,33.092,28.981,37.41v40.839c-4.788,1.408-9.242,3.642-13.158,6.549
			c-0.192,0.141-0.381,0.285-0.571,0.429c-0.205,0.158-0.408,0.318-0.609,0.48c-0.279,0.222-0.556,0.445-0.829,0.675
			c-0.076,0.064-0.151,0.131-0.226,0.196c-0.97,0.83-1.897,1.706-2.781,2.626c-0.19,0.197-0.38,0.393-0.566,0.594
			c-0.151,0.164-0.298,0.33-0.446,0.496c-0.28,0.313-0.555,0.63-0.825,0.952c-0.071,0.085-0.143,0.171-0.213,0.257
			c-4.643,5.632-7.731,12.575-8.539,20.344c-0.008,0.078-0.017,0.156-0.025,0.234c-0.051,0.524-0.091,1.052-0.121,1.584
			c-0.007,0.123-0.018,0.245-0.024,0.368c-0.03,0.626-0.048,1.256-0.048,1.892c0,2.898,0,5.796,0.966,8.694L211.5,306.937
			c-1.288-1.488-2.686-2.878-4.183-4.156c-6.148-5.57-14.247-8.786-23.013-9.211c-0.664-0.034-1.331-0.052-2.003-0.052
			s-1.34,0.018-2.003,0.052c-8.766,0.425-16.865,3.641-23.013,9.211c-1.497,1.277-2.894,2.666-4.181,4.154L95.357,278.061z
			 M162.979,332.16c0-2.265,0.415-4.433,1.14-6.457c0.309-0.417,0.578-0.844,0.792-1.272c3.864-6.762,9.66-10.626,17.389-10.626
			c7.728,0,14.491,3.864,17.389,10.626c0.214,0.428,0.483,0.854,0.792,1.272c0.725,2.024,1.14,4.192,1.14,6.457
			c0,10.626-8.694,19.321-19.321,19.321S162.979,342.786,162.979,332.16z M182.3,467.405c-10.626,0-19.321-8.694-19.321-19.321
			c0-10.626,8.694-19.321,19.321-19.321c12.558,0,19.321,6.762,19.321,19.321C201.621,458.71,192.927,467.405,182.3,467.405z
			 M278.904,484.794l-58.762-28.899c0.06-0.29,0.107-0.584,0.16-0.876c0.639-1.886,0.64-4.41,0.64-6.934v0l0,0c0,0,0,0,0,0
			c0-19.981-10.315-33.395-28.163-37.487c-0.117-0.027-0.234-0.055-0.351-0.081c-0.156-0.035-0.309-0.074-0.466-0.107v-40.574
			c4.788-1.408,9.244-3.643,13.159-6.55c0.191-0.14,0.379-0.283,0.567-0.427c0.206-0.159,0.41-0.32,0.613-0.483
			c0.278-0.221,0.554-0.444,0.825-0.672c0.078-0.066,0.155-0.135,0.233-0.202c0.967-0.827,1.892-1.701,2.773-2.619
			c0.191-0.198,0.383-0.396,0.57-0.598c0.149-0.162,0.295-0.327,0.442-0.492c0.282-0.315,0.558-0.634,0.83-0.957
			c0.07-0.084,0.139-0.167,0.208-0.251c4.645-5.633,7.733-12.576,8.541-20.347c0.008-0.078,0.017-0.156,0.025-0.234
			c0.051-0.524,0.091-1.052,0.121-1.584c0.007-0.123,0.018-0.245,0.024-0.368c0.03-0.626,0.048-1.256,0.048-1.892
			c0-2.475-0.005-4.95-0.607-7.425l29.956-14.978c1.121,1.237,2.326,2.395,3.596,3.479c6.148,5.57,14.248,8.786,23.014,9.211
			c0.664,0.034,1.331,0.052,2.003,0.052s1.34-0.018,2.003-0.052c8.766-0.425,16.865-3.641,23.013-9.211
			c1.497-1.278,2.895-2.668,4.183-4.156l14.752,7.138l14.948,7.315c-0.934,1.932-0.938,4.794-0.938,7.66
			c0,0.176,0.009,0.351,0.011,0.526c-0.002,0.147-0.011,0.292-0.011,0.44c0,17.92,12.363,33.092,28.981,37.41v40.839
			c-4.788,1.408-9.242,3.642-13.158,6.549c-0.192,0.141-0.381,0.285-0.571,0.429c-0.205,0.158-0.408,0.318-0.61,0.48
			c-0.278,0.222-0.555,0.444-0.827,0.673c-0.078,0.066-0.154,0.135-0.232,0.201c-0.967,0.828-1.892,1.702-2.773,2.619
			c-0.191,0.198-0.383,0.396-0.57,0.598c-0.15,0.163-0.297,0.329-0.444,0.494c-0.28,0.313-0.556,0.631-0.826,0.953
			c-0.071,0.085-0.142,0.17-0.212,0.256c-4.644,5.632-7.732,12.575-8.539,20.345c-0.008,0.078-0.017,0.156-0.025,0.234
			c-0.051,0.524-0.091,1.052-0.121,1.583c-0.007,0.123-0.018,0.245-0.024,0.368c-0.03,0.626-0.048,1.256-0.048,1.892
			c0,2.525,0.001,5.048,0.64,6.934c0.053,0.292,0.1,0.586,0.16,0.876L278.904,484.794z M394.829,448.084
			c0,10.626-8.694,19.321-19.321,19.321c-7.938,0-14.794-4.854-17.757-11.738c-0.689-2.101-1.307-4.202-1.499-6.303
			c-0.028-0.425-0.065-0.848-0.065-1.28c0-10.626,8.694-19.321,19.321-19.321S394.829,437.458,394.829,448.084z M375.508,351.48
			c-10.626,0-19.321-8.694-19.321-19.321c0-0.432,0.037-0.855,0.065-1.28c0.191-2.101,0.81-4.202,1.499-6.303
			c2.963-6.884,9.819-11.738,17.757-11.738c10.626,0,19.321,8.694,19.321,19.321S386.134,351.48,375.508,351.48z M404.703,306.932
			c-1.287-1.487-2.684-2.875-4.18-4.152c-6.148-5.57-14.247-8.785-23.013-9.21c-0.664-0.034-1.331-0.052-2.003-0.052
			s-1.34,0.018-2.003,0.052c-8.765,0.425-16.865,3.64-23.013,9.21c-1.498,1.278-2.895,2.668-4.184,4.156l-14.766-7.145
			l-14.934-7.308c0.934-1.932,0.938-4.794,0.938-7.66c0-0.176-0.009-0.35-0.011-0.526c0.002-0.147,0.011-0.292,0.011-0.44
			c0-17.92-12.363-33.092-28.981-37.41v-40.839c4.787-1.408,9.242-3.642,13.157-6.548c0.193-0.142,0.383-0.286,0.573-0.431
			c0.204-0.157,0.406-0.317,0.607-0.477c0.279-0.222,0.557-0.446,0.83-0.676c0.076-0.064,0.151-0.131,0.226-0.196
			c0.97-0.83,1.898-1.707,2.782-2.628c0.189-0.196,0.38-0.392,0.565-0.592c0.151-0.164,0.298-0.33,0.446-0.496
			c0.28-0.313,0.555-0.63,0.825-0.952c0.071-0.085,0.143-0.171,0.213-0.257c4.643-5.632,7.731-12.575,8.539-20.344
			c0.008-0.078,0.017-0.156,0.025-0.234c0.051-0.524,0.091-1.052,0.121-1.584c0.007-0.123,0.018-0.245,0.024-0.368
			c0.03-0.626,0.048-1.256,0.048-1.892c0-1.495-0.006-2.99-0.271-4.485c-0.183-1.567-0.461-3.106-0.828-4.612l29.114-14.087
			c6.762,8.694,17.389,13.525,28.981,13.525c0.16,0,0.318-0.011,0.478-0.012c0.163,0.002,0.325,0.012,0.488,0.012
			c11.472,0,21.812-5.073,28.906-13.079l57.072,28.536v72.453c-16.423,4.83-28.015,19.321-28.015,37.675
			c0,2.237,0.005,3.903,0.45,5.878c0.1,0.651,0.218,1.296,0.351,1.936L404.703,306.932z"/>
	</g>
</g>
<g>
</g>
<g>
</g>
<g>
</g>
<g>
</g>
<g>
</g>
<g>
</g>
<g>
</g>
<g>
</g>
<g>
</g>
<g>
</g>
<g>
</g>
<g>
</g>
<g>
</g>
<g>
</g>
<g>
</g>
</svg>
