<?xml version="1.0" encoding="iso-8859-1"?>
<!-- Generator: Adobe Illustrator 19.0.0, SVG Export Plug-In . SVG Version: 6.00 Build 0)  -->
<svg version="1.1" id="Layer_1" xmlns="http://www.w3.org/2000/svg" xmlns:xlink="http://www.w3.org/1999/xlink" x="0px" y="0px"
	 viewBox="0 0 512.557 512.557" style="enable-background:new 0 0 512.557 512.557;" xml:space="preserve">
<g transform="translate(1 1)">
	<g>
		<g>
			<path d="M507.557,342.319l-72.533-44.326v-86.756l72.533-52.385c3.413-2.56,4.267-8.533,1.707-11.947
				c-2.56-3.413-8.533-4.267-11.947-1.707l-71.68,52.053l-76.8-49.493v-89.6c0-5.12-3.413-8.533-8.533-8.533
				c-5.12,0-8.533,3.413-8.533,8.533v90.667l-76.373,49.643l-77.227-50.197V58.159c0-5.12-3.413-8.533-8.533-8.533
				s-8.533,3.413-8.533,8.533v90.453l-76.8,49.493l-72.533-43.52c-4.267-2.56-9.387-1.707-11.947,2.56
				c-1.707,4.267-0.853,9.387,3.413,11.947l72.533,44.326v84.433L2.384,350.852c-3.413,2.56-4.267,8.533-1.707,11.947
				c2.56,3.413,8.533,4.267,11.947,1.707l71.68-52.053l76.8,49.493v90.453c0,5.12,3.413,8.533,8.533,8.533s8.533-4.267,8.533-8.533
				V363.14l77.883-50.624l75.717,49.216v90.667c0,5.12,3.413,8.533,8.533,8.533c5.12,0,8.533-4.267,8.533-9.387V363.14
				l77.409-50.316l71.925,44.001c4.267,2.56,9.387,1.707,11.947-2.56S511.824,344.879,507.557,342.319z M264.357,212.062
				l75.947-48.943l76.8,49.493v85.333l-76.8,49.493l-75.947-48.943V212.062z M246.437,297.945l-76.8,49.493l-76.8-49.493v-85.333
				l76.8-49.493l76.8,49.493V297.945z"/>
			<path d="M118.437,255.279c0,28.16,23.04,51.2,51.2,51.2c28.16,0,51.2-23.04,51.2-51.2s-23.04-51.2-51.2-51.2
				C141.477,204.079,118.437,227.119,118.437,255.279z M203.771,255.279c0,18.773-15.36,34.133-34.133,34.133
				c-18.773,0-34.133-15.36-34.133-34.133s15.36-34.133,34.133-34.133C188.411,221.145,203.771,236.505,203.771,255.279z"/>
			<path d="M391.504,255.279c0-28.16-23.04-51.2-51.2-51.2c-28.16,0-51.2,23.04-51.2,51.2s23.04,51.2,51.2,51.2
				C368.464,306.479,391.504,283.439,391.504,255.279z M306.171,255.279c0-18.773,15.36-34.133,34.133-34.133
				c18.773,0,34.133,15.36,34.133,34.133s-15.36,34.133-34.133,34.133C321.531,289.412,306.171,274.052,306.171,255.279z"/>
		</g>
	</g>
</g>
<g>
</g>
<g>
</g>
<g>
</g>
<g>
</g>
<g>
</g>
<g>
</g>
<g>
</g>
<g>
</g>
<g>
</g>
<g>
</g>
<g>
</g>
<g>
</g>
<g>
</g>
<g>
</g>
<g>
</g>
</svg>
