<?xml version="1.0" encoding="iso-8859-1"?>
<!-- Generator: Adobe Illustrator 19.0.0, SVG Export Plug-In . SVG Version: 6.00 Build 0)  -->
<svg version="1.1" id="Layer_1" xmlns="http://www.w3.org/2000/svg" xmlns:xlink="http://www.w3.org/1999/xlink" x="0px" y="0px"
	 viewBox="0 0 512.868 512.868" style="enable-background:new 0 0 512.868 512.868;" xml:space="preserve">
<g transform="translate(1 1)">
	<g>
		<g>
			<path d="M423.786,298.824l86.78-139.715c1.736-2.603,1.736-6.075,0-8.678L423.786,3.773c-1.736-2.603-4.339-4.339-7.81-4.339
				H251.095c-3.471,0-6.075,1.736-6.942,4.339l-86.78,146.658c-1.736,2.603-1.736,6.075,0,8.678l14.014,22.563H68.858
				c-3.471,0-6.075,1.736-7.81,4.339L0.302,290.146c-1.736,2.603-1.736,6.075,0,8.678l60.746,104.136
				c1.736,2.603,4.339,4.339,7.81,4.339H185.07l58.215,99.797c1.736,2.603,4.339,4.339,7.81,4.339h121.492
				c3.471,0,6.075-1.736,6.942-4.339l60.746-112.814c1.736-2.603,1.736-6.075,0-8.678l-52.462-82.441h28.164
				C418.58,303.163,422.051,301.427,423.786,298.824z M18.525,294.485l55.539-95.458h107.607l50.539,80.569l8.885,14.305
				l-56.024,96.042H74.064L18.525,294.485z M422.919,389.942L367.38,494.078H256.302l-55.539-95.458l55.539-95.458H367.38
				L422.919,389.942z M372.586,285.807H256.302l-81.573-131.037l81.573-137.98H410.77l82.441,137.98l-81.573,131.037H372.586z"/>
			<path d="M389.942,34.146H277.129c-2.603,0-6.075,1.736-6.942,4.339l-69.424,112.814c-2.603,4.339-1.736,9.546,2.603,12.149
				c0.868,0.868,2.603,0.868,4.339,0.868c2.603,0,6.075-1.736,7.81-4.339l66.82-108.475h107.607c5.207,0,8.678-3.471,8.678-8.678
				S395.149,34.146,389.942,34.146z"/>
			<path d="M164.315,216.383H94.892c-2.603,0-6.075,1.736-6.942,3.471l-43.39,69.424c-2.603,4.339-1.736,9.546,2.603,12.149
				c0.868,1.736,2.603,1.736,4.339,1.736c2.603,0,6.075-1.736,7.81-4.339l40.786-65.085h64.217c5.207,0,8.678-3.471,8.678-8.678
				S169.522,216.383,164.315,216.383z"/>
			<path d="M229.4,407.298c0.868,0.868,2.603,0.868,4.339,0.868c2.603,0,6.075-1.736,8.678-4.339l40.786-65.953h72.895
				c5.207,0,8.678-3.471,8.678-8.678c0-5.207-3.471-8.678-8.678-8.678h-78.102c-3.471,0-6.075,1.736-7.81,4.339l-43.39,70.292
				C224.193,399.488,225.061,404.695,229.4,407.298z"/>
		</g>
	</g>
</g>
<g>
</g>
<g>
</g>
<g>
</g>
<g>
</g>
<g>
</g>
<g>
</g>
<g>
</g>
<g>
</g>
<g>
</g>
<g>
</g>
<g>
</g>
<g>
</g>
<g>
</g>
<g>
</g>
<g>
</g>
</svg>
