<?xml version="1.0"?>
<svg xmlns="http://www.w3.org/2000/svg" id="Layer_1" enable-background="new 0 0 128 128" height="512px" viewBox="0 0 128 128" width="512px" class="hovered-paths"><g><g><g fill="#e6e7e8"><path d="m113.356 18.343c2.12-2.539 1.779-6.33-.759-8.451-.001 0-.001 0-.001 0-2.538-2.12-6.33-1.778-8.451.76l-35.5 42.501c-.899 1.077-1.395 2.442-1.395 3.846v60.5c0 3.309 2.691 6 6 6s6-2.691 6-6v-58.325z" data-original="#E6E7E8" class=""/><path d="m123.597 20.892c-.001 0-.001 0 0 0-2.539-2.12-6.33-1.779-8.452.76l-25.938 31.053c-2.12 2.539-1.779 6.33.76 8.451 1.076.899 2.441 1.395 3.843 1.395 1.785 0 3.465-.785 4.608-2.154l25.938-31.053c2.12-2.54 1.779-6.331-.759-8.452z" data-original="#E6E7E8" class=""/><path d="m27.856 10.651c-2.121-2.537-5.911-2.879-8.451-.759 0 0 0 0-.001 0-2.538 2.121-2.879 5.912-.759 8.451l34.105 40.831v58.324c0 3.309 2.691 6 6 6s6-2.691 6-6v-60.5c0-1.403-.495-2.769-1.395-3.846z" data-original="#E6E7E8" class=""/><path d="m16.856 21.651c-2.12-2.536-5.911-2.879-8.451-.759 0 0 0 0-.001 0-2.538 2.121-2.879 5.912-.759 8.451l25.938 31.053c1.144 1.369 2.823 2.154 4.608 2.154 1.401 0 2.767-.495 3.844-1.395 2.538-2.121 2.879-5.912.759-8.451z" data-original="#E6E7E8" class=""/></g><g><path d="m65.412 49.794c-.751.899-1.162 2.033-1.162 3.205v60.5c0 2.762 2.238 5 5 5s5-2.238 5-5v-58.687l20.024-23.972-7.861-6.188z" fill="#0089ef" data-original="#0089EF" class="" data-old_color="#0089ef" style="fill:#FFFFFF"/><path d="m107.955 6.66c-2.119-1.77-5.271-1.487-7.043.633l-14.5 17.359 7.861 6.188 14.314-17.137c1.771-2.119 1.487-5.273-.632-7.043z" fill="#fa759e" data-original="#FA759E" class="" data-old_color="#fa759e" style="fill:#FFFFFF"/><path d="m118.955 17.66c-2.12-1.771-5.271-1.487-7.043.633l-13.32 15.947 7.862 6.188 13.134-15.724c1.77-2.12 1.486-5.274-.633-7.044z" fill="#d4fbff" data-original="#D4FBFF" class="" data-old_color="#d4fbff" style="fill:#FFFFFF"/><path d="m85.975 49.345c-1.77 2.119-1.486 5.272.633 7.043.936.781 2.072 1.162 3.202 1.162 1.431 0 2.852-.61 3.841-1.795l12.804-15.329-7.862-6.188z" fill="#6dc9f7" data-original="#6DC9F7" class="" data-old_color="#6dc9f7" style="fill:#FFFFFF"/></g><g><path d="m58.588 49.794c.751.899 1.162 2.033 1.162 3.205v60.5c0 2.762-2.238 5-5 5s-5-2.238-5-5v-58.687l-20.023-23.972 7.861-6.188z" fill="#0089ef" data-original="#0089EF" class="" data-old_color="#0089ef" style="fill:#FFFFFF"/><g><path d="m54.75 115.499c-2.762 0-5-2.238-5-5v3c0 2.762 2.238 5 5 5s5-2.238 5-5v-3c0 2.761-2.238 5-5 5z" fill="#fff" data-original="#FFF" class="" data-old_color="#fff" style="fill:#FFFFFF"/></g><path d="m16.045 6.66c2.119-1.77 5.271-1.487 7.043.633l14.5 17.359-7.861 6.188-14.315-17.137c-1.769-2.119-1.486-5.273.633-7.043z" fill="#fa759e" data-original="#FA759E" class="" data-old_color="#fa759e" style="fill:#FFFFFF"/><path d="m5.045 17.66c2.12-1.771 5.271-1.487 7.043.633l13.32 15.947-7.862 6.188-13.134-15.725c-1.769-2.119-1.486-5.273.633-7.043z" fill="#d4fbff" data-original="#D4FBFF" class="" data-old_color="#d4fbff" style="fill:#FFFFFF"/><g><path d="m38.026 49.345c1.77 2.119 1.486 5.272-.633 7.043-.936.781-2.072 1.162-3.202 1.162-1.431 0-2.852-.61-3.841-1.795l-12.804-15.328 7.862-6.188z" fill="#6dc9f7" data-original="#6DC9F7" class="" data-old_color="#6dc9f7" style="fill:#FFFFFF"/><g fill="#3a2c60"><path d="m109.355 14.344c2.12-2.539 1.779-6.33-.759-8.451-.001 0-.001 0-.001 0-2.538-2.12-6.33-1.778-8.451.76l-35.5 42.501c-.899 1.077-1.395 2.442-1.395 3.846v60.5c0 3.309 2.691 6 6 6s6-2.691 6-6v-58.325zm-7.676-6.409c1.413-1.693 3.941-1.92 5.634-.507 1.693 1.414 1.92 3.941.507 5.635l-13.69 16.39-6.289-4.95zm-28.197 46.237c-.15.18-.232.406-.232.641v58.687c0 2.206-1.794 4-4 4s-4-1.794-4-4v-60.5c0-.936.33-1.846.93-2.564l20.378-24.396 6.289 4.95z" data-original="#3A2C60" class="hovered-path active-path" style="fill:#0B0B0B" data-old_color="#3A2C60"/><path d="m119.596 16.893c-.001 0-.001 0 0 0-2.539-2.12-6.33-1.778-8.452.76l-25.937 31.052c-2.12 2.539-1.779 6.33.76 8.451 1.076.899 2.441 1.395 3.843 1.395 1.785 0 3.465-.785 4.608-2.154l25.938-31.053c2.119-2.539 1.779-6.33-.76-8.451zm-26.713 38.222c-.762.912-1.882 1.436-3.073 1.436-.934 0-1.844-.33-2.561-.93-1.693-1.414-1.92-3.941-.507-5.635l11.995-14.36 6.289 4.95zm25.937-31.052-12.511 14.977-6.289-4.95 12.659-15.155c1.414-1.693 3.942-1.92 5.634-.507 1.694 1.414 1.92 3.941.507 5.635z" data-original="#3A2C60" class="hovered-path active-path" style="fill:#0B0B0B" data-old_color="#3A2C60"/><path d="m49.75 78.249c.553 0 1-.447 1-1v-6c0-.553-.447-1-1-1s-1 .447-1 1v6c0 .553.447 1 1 1z" data-original="#3A2C60" class="hovered-path active-path" style="fill:#0B0B0B" data-old_color="#3A2C60"/><path d="m23.855 6.651c-2.121-2.536-5.911-2.879-8.451-.759 0 0 0 0-.001 0-2.538 2.121-2.879 5.912-.759 8.451l34.106 40.832v12.449c0 .553.447 1 1 1s1-.447 1-1v-12.811c0-.234-.082-.461-.232-.641l-19.364-23.183 6.289-4.95 20.377 24.396c.6.719.93 1.629.93 2.564v60.5c0 2.206-1.794 4-4 4s-4-1.794-4-4v-32.875c0-.553-.447-1-1-1s-1 .447-1 1v32.875c0 3.309 2.691 6 6 6s6-2.691 6-6v-60.5c0-1.403-.495-2.769-1.395-3.846zm-7.169.777c1.691-1.412 4.22-1.186 5.634.506l13.84 16.569-6.289 4.95-13.692-16.39c-1.413-1.694-1.186-4.221.507-5.635z" data-original="#3A2C60" class="hovered-path active-path" style="fill:#0B0B0B" data-old_color="#3A2C60"/><path d="m12.855 17.651c-2.12-2.537-5.911-2.879-8.451-.759 0 0 0 0-.001 0-2.538 2.121-2.879 5.912-.759 8.451l25.938 31.053c1.144 1.369 2.823 2.154 4.608 2.154 1.401 0 2.767-.495 3.844-1.395 2.538-2.121 2.879-5.912.759-8.451zm-7.17.777c1.694-1.415 4.221-1.187 5.635.506l12.66 15.156-6.289 4.95-12.512-14.977c-1.413-1.694-1.186-4.221.506-5.635zm31.067 37.193c-.718.6-1.628.93-2.562.93-1.191 0-2.312-.523-3.073-1.436l-12.143-14.539 6.289-4.95 11.994 14.36c1.414 1.694 1.187 4.221-.505 5.635z" data-original="#3A2C60" class="hovered-path active-path" style="fill:#0B0B0B" data-old_color="#3A2C60"/></g></g></g></g></g> </svg>
