<?xml version="1.0" encoding="iso-8859-1"?>
<!-- Generator: Adobe Illustrator 19.0.0, SVG Export Plug-In . SVG Version: 6.00 Build 0)  -->
<svg version="1.1" id="Capa_1" xmlns="http://www.w3.org/2000/svg" xmlns:xlink="http://www.w3.org/1999/xlink" x="0px" y="0px"
	 viewBox="0 0 56 56" style="enable-background:new 0 0 56 56;" xml:space="preserve">
<g>
	<g>
		<path d="M4,42.5c0,4.963,4.038,9,9,9s9-4.037,9-9s-4.038-9-9-9S4,37.537,4,42.5z M13,35.5c3.86,0,7,3.141,7,7s-3.14,7-7,7
			s-7-3.141-7-7S9.14,35.5,13,35.5z"/>
		<path d="M50.391,31.819C50.791,29.918,51,27.964,51,26C51,11.939,40.682,0.5,28,0.5S5,11.939,5,26
			c0,1.967,0.209,3.921,0.609,5.819C2.224,34.168,0,38.077,0,42.5c0,7.168,5.832,13,13,13s13-5.832,13-13s-5.832-13-13-13
			c-0.576,0-1.14,0.051-1.697,0.124C11.105,28.422,11,27.208,11,26c0-10.752,7.626-19.5,17-19.5S45,15.248,45,26
			c0,1.207-0.105,2.422-0.304,3.624C44.14,29.551,43.576,29.5,43,29.5c-7.168,0-13,5.832-13,13s5.832,13,13,13s13-5.832,13-13
			C56,38.077,53.776,34.168,50.391,31.819z M13,31.5c6.065,0,11,4.935,11,11s-4.935,11-11,11s-11-4.935-11-11
			c0-4.377,2.577-8.155,6.287-9.924l0.01-0.004c0.393-0.187,0.791-0.35,1.191-0.487c0.004-0.001,0.007-0.003,0.011-0.004
			c0.401-0.138,0.804-0.25,1.205-0.335l0.162-0.035C11.557,31.575,12.27,31.5,13,31.5z M28,4.5C17.523,4.5,9,14.145,9,26
			c0,1.344,0.114,2.696,0.339,4.032c-0.006,0.002-0.012,0.004-0.017,0.006c-0.253,0.075-0.498,0.164-0.744,0.253
			c-0.07,0.026-0.141,0.05-0.211,0.077c-0.279,0.107-0.553,0.223-0.823,0.348c-0.001,0-0.002,0.001-0.003,0.001l-0.113,0.025
			C7.144,29.19,7,27.599,7,26C7,13.042,16.42,2.5,28,2.5S49,13.042,49,26c0,1.596-0.144,3.186-0.427,4.738l-0.132-0.029l0,0
			c-0.263-0.122-0.531-0.235-0.804-0.339c-0.082-0.032-0.165-0.061-0.247-0.091c-0.232-0.083-0.463-0.168-0.701-0.238
			c-0.009-0.003-0.018-0.007-0.028-0.009C46.886,28.695,47,27.343,47,26C47,14.145,38.477,4.5,28,4.5z M43,53.5
			c-6.065,0-11-4.935-11-11s4.935-11,11-11c0.74,0,1.463,0.076,2.162,0.216l0.12,0.026c0.013,0.003,0.026,0.007,0.04,0.01
			c0.389,0.084,0.778,0.192,1.167,0.325c0.008,0.003,0.015,0.005,0.022,0.008c0.394,0.136,0.787,0.296,1.176,0.48l0.006,0.001
			C51.414,34.331,54,38.114,54,42.5C54,48.565,49.065,53.5,43,53.5z"/>
		<path d="M43,33.5c-4.962,0-9,4.037-9,9s4.038,9,9,9s9-4.037,9-9S47.962,33.5,43,33.5z M43,49.5c-3.86,0-7-3.141-7-7s3.14-7,7-7
			s7,3.141,7,7S46.86,49.5,43,49.5z"/>
	</g>
</g>
<g>
</g>
<g>
</g>
<g>
</g>
<g>
</g>
<g>
</g>
<g>
</g>
<g>
</g>
<g>
</g>
<g>
</g>
<g>
</g>
<g>
</g>
<g>
</g>
<g>
</g>
<g>
</g>
<g>
</g>
</svg>
