<?xml version="1.0" encoding="iso-8859-1"?>
<!-- Generator: Adobe Illustrator 19.0.0, SVG Export Plug-In . SVG Version: 6.00 Build 0)  -->
<svg version="1.1" id="Layer_1" xmlns="http://www.w3.org/2000/svg" xmlns:xlink="http://www.w3.org/1999/xlink" x="0px" y="0px"
	 viewBox="0 0 508.746 508.746" style="enable-background:new 0 0 508.746 508.746;" xml:space="preserve">
<g transform="translate(1 1)">
	<g>
		<g>
			<path d="M484.966,21.78c-30.373-30.373-79.837-30.373-110.21,0l-24.298,24.298c-26.902-26.902-71.159-26.902-98.061,0
				l-18.224,18.224c-3.471,3.471-3.471,8.678,0,12.149l61.18,61.18L102.269,330.714c0,0-0.001,0.001-0.001,0.001L52.803,380.18
				c-3.525,3.525-6.627,7.39-9.305,11.514c-1.071,1.65-2.075,3.341-3.01,5.068c-0.936,1.728-1.803,3.492-2.603,5.287
				c-2.8,6.284-4.77,12.951-5.909,19.785c-0.325,2.278-0.773,4.525-1.342,6.731c-1.329,5.146-3.322,10.064-5.98,14.608
				c-2.278,3.895-5.044,7.515-8.298,10.769l-9.546,9.546c-3.468,2.89-5.774,6.936-6.932,11.366
				c-0.595,2.176-0.889,4.427-0.874,6.691c0,0.056-0.004,0.111-0.004,0.167c0,6.942,2.603,13.017,7.81,18.224
				c4.339,5.207,11.281,7.81,18.224,7.81s13.885-2.603,18.224-7.81l9.546-9.546c8.678-7.81,19.959-13.885,32.108-15.62
				c15.62-2.603,30.373-9.546,41.654-20.827l242.549-242.549l61.18,61.18c1.736,1.736,3.471,2.603,6.075,2.603
				s4.339-0.868,6.075-1.736l18.224-18.224c13.017-13.885,19.959-31.241,19.959-49.464c0-19.092-6.942-36.447-19.959-49.464
				l24.298-24.298C515.339,101.617,515.339,52.153,484.966,21.78z M82.308,457.414c-15.62,2.603-30.373,9.546-41.654,20.827
				l-9.546,9.546c-3.471,3.471-8.678,3.471-12.149,0c-3.471-3.471-3.471-8.678,0-12.149l9.546-9.546
				c11.281-11.281,18.224-26.034,20.827-41.654c1.736-12.149,6.942-23.43,15.62-32.108l47.029-46.861h98.761l-96.325,96.325
				C105.739,449.603,94.458,455.678,82.308,457.414z M356.532,199.678L228.098,328.112H129.4l178.536-177.898l0.003,0.003
				L356.532,199.678z M442.444,151.081c-1.736,1.736-2.603,3.471-2.603,6.075s0.868,4.339,2.603,6.075l6.075,6.075
				c10.414,9.546,15.62,22.563,15.62,36.447c0,13.885-6.075,26.902-15.62,36.447l-12.149,12.149L252.397,70.376l13.017-12.149
				c20.827-19.959,53.803-19.959,73.763,0l6.075,6.075c3.471,3.471,8.678,3.471,12.149,0l30.373-30.373
				c23.43-23.43,62.481-23.43,85.912,0c23.43,23.431,23.43,62.481,0,85.912L442.444,151.081z"/>
			<path d="M430.295,33.061c-9.546,0-22.563,1.736-32.109,11.281l-17.356,17.356c-3.471,3.471-3.471,8.678,0,12.149
				c1.736,1.736,3.471,2.603,6.075,2.603s4.339-0.868,6.075-2.603l17.356-17.356c5.207-5.207,14.753-6.075,19.959-6.075
				s14.753,0.868,19.959,6.075c3.471,3.471,8.678,3.471,12.149,0s3.471-8.678,0-12.149
				C452.858,34.797,439.841,33.061,430.295,33.061z"/>
		</g>
	</g>
</g>
<g>
</g>
<g>
</g>
<g>
</g>
<g>
</g>
<g>
</g>
<g>
</g>
<g>
</g>
<g>
</g>
<g>
</g>
<g>
</g>
<g>
</g>
<g>
</g>
<g>
</g>
<g>
</g>
<g>
</g>
</svg>
