<?xml version="1.0" encoding="iso-8859-1"?>
<!-- Generator: Adobe Illustrator 19.0.0, SVG Export Plug-In . SVG Version: 6.00 Build 0)  -->
<svg version="1.1" id="Layer_1" xmlns="http://www.w3.org/2000/svg" xmlns:xlink="http://www.w3.org/1999/xlink" x="0px" y="0px"
	 viewBox="0 0 505.093 505.093" style="enable-background:new 0 0 505.093 505.093;" xml:space="preserve">
<g transform="translate(1 1)">
	<g>
		<g>
			<path d="M486.737,17.241C475.456,5.092,460.703-0.982,444.215-0.982c-16.488,0-32.108,6.942-43.39,18.224l-91.986,91.986
				c-10.873,10.873-16.893,24.977-17.315,40.745L163.917,277.58c-17.075,17.075-33.576,34.785-49.465,53.07
				c-0.305,0.226-0.599,0.466-0.867,0.733c-8.642,10.053-17.095,20.294-25.372,30.691c-32.586,40.625-62.195,83.784-88.31,128.983
				c-1.736,3.471-0.868,7.81,1.736,10.414c1.736,1.736,3.471,2.603,6.075,2.603c1.736,0,2.603,0,4.339-0.868
				c75.897-43.852,146.056-97.54,208.091-158.671c0.347-0.337,0.701-0.667,1.048-1.004c0.164-0.164,0.321-0.332,0.471-0.503
				c1.291-1.277,2.584-2.552,3.868-3.836l128.472-126.759c15.42-0.616,29.205-6.62,39.88-17.295l92.854-92.854
				c11.281-11.281,17.356-26.034,17.356-42.522C504.093,44.143,498.018,28.523,486.737,17.241z M147.925,386.465
				c-36.429,30.482-74.909,58.613-115.046,83.766c27.246-43.478,57.995-85.007,91.695-124.095h67.98
				C178.125,360.05,163.227,373.493,147.925,386.465z M213.381,327.045c-0.591,0.582-1.194,1.155-1.787,1.736h-71.718
				c12.016-13.325,24.365-26.359,37.057-39.051l117.153-117.153c3.471,7.81,7.81,15.62,13.885,23.43
				c6.075,6.075,13.885,11.281,22.563,13.885L213.381,327.045z M473.72,90.136l-91.986,92.854
				c-7.81,8.678-19.092,13.017-30.373,13.017c-1.293,0-2.585-0.076-3.873-0.209c-2.532-0.3-4.969-0.79-7.32-1.454
				c-7.247-2.125-13.984-6.157-19.18-11.354c-16.488-17.356-16.488-45.125,0-61.614l91.986-91.986
				c7.81-8.678,19.092-13.017,30.373-13.017c11.281,0,22.563,4.339,30.373,12.149C490.208,45.879,490.208,73.648,473.72,90.136z"/>
			<path d="M443.347,33.729c-4.339,0-12.149,0.868-18.224,7.81l-59.01,59.01c-3.471,3.471-3.471,8.678,0,12.149
				c1.736,1.736,3.471,2.603,6.075,2.603s4.339-0.868,6.075-2.603l59.01-59.01c1.736-2.603,4.339-2.603,6.075-2.603
				s4.339,0,6.075,2.603c3.471,3.471,8.678,3.471,12.149,0s3.471-8.678,0-12.149C455.496,34.597,447.686,33.729,443.347,33.729z"/>
		</g>
	</g>
</g>
<g>
</g>
<g>
</g>
<g>
</g>
<g>
</g>
<g>
</g>
<g>
</g>
<g>
</g>
<g>
</g>
<g>
</g>
<g>
</g>
<g>
</g>
<g>
</g>
<g>
</g>
<g>
</g>
<g>
</g>
</svg>
