<?xml version="1.0" encoding="iso-8859-1"?>
<!-- Generator: Adobe Illustrator 19.0.0, SVG Export Plug-In . SVG Version: 6.00 Build 0)  -->
<svg version="1.1" id="Layer_1" xmlns="http://www.w3.org/2000/svg" xmlns:xlink="http://www.w3.org/1999/xlink" x="0px" y="0px"
	 viewBox="0 0 509.397 509.397" style="enable-background:new 0 0 509.397 509.397;" xml:space="preserve">
<g transform="translate(1 1)">
	<g>
		<g>
			<path d="M334.837-1C239.38-1,161.278,77.102,161.278,172.559c0,22.355,4.284,43.757,12.07,63.428l-16.409,16.409
				c-8.117,8.117-9.905,19.923-5.369,29.668l-98.766,98.766c-11.281,11.281-19.092,26.034-20.827,41.654
				c-1.736,12.149-6.942,23.431-15.62,32.108l-9.546,9.546c-10.414,9.546-10.414,26.034,0,36.447
				c4.339,5.207,11.281,7.81,18.224,7.81s13.017-2.603,18.224-7.81l9.546-9.546c8.678-8.678,19.959-13.885,32.108-15.62
				c15.62-2.603,30.373-9.546,41.654-20.827l59.01-59.01c0.779-0.779,1.321-1.637,1.68-2.548l37.526-37.526
				c3.757,1.834,7.874,2.758,11.994,2.758c6.942,0,13.885-2.603,18.224-7.81l16.409-16.409c19.671,7.786,41.073,12.07,63.428,12.07
				c95.458,0,173.559-78.102,173.559-173.559S430.295-1,334.837-1z M176.031,380.831H77.855l84.726-85.476l49.463,49.463
				L176.031,380.831z M18.959,488.437c-3.471-3.471-3.471-8.678,0-12.149l9.546-8.678c11.281-11.281,18.224-26.034,20.827-41.654
				c1.459-10.216,5.384-19.812,11.752-27.769h97.59l-44.258,44.258c-8.678,7.81-19.959,13.885-32.108,15.62
				c-15.62,2.603-30.373,9.546-41.654,20.827l-9.546,9.546C27.637,491.909,22.43,491.909,18.959,488.437z M243.719,338.308
				c-3.471,3.471-9.546,3.471-13.017,0l-60.746-60.746c-3.471-3.471-3.471-9.546,0-13.017l11.046-11.896
				c1.494,2.849,3.065,5.652,4.71,8.406c7.173,12.797,16.093,24.057,26.766,34.73c12.149,13.017,26.902,23.43,42.522,31.241
				L243.719,338.308z M334.837,328.763c-85.912,0-156.203-70.292-156.203-156.203S248.925,16.356,334.837,16.356
				s156.203,70.292,156.203,156.203S420.749,328.763,334.837,328.763z"/>
			<path d="M334.837,33.712c-51.2,0-96.325,27.77-120.624,73.763c-2.603,4.339-0.868,9.546,3.471,12.149
				c1.736,0.868,2.603,0.868,4.339,0.868c3.471,0,6.075-1.736,7.81-4.339c21.695-40.786,60.746-65.085,105.003-65.085
				c5.207,0,8.678-3.471,8.678-8.678S340.044,33.712,334.837,33.712z"/>
		</g>
	</g>
</g>
<g>
</g>
<g>
</g>
<g>
</g>
<g>
</g>
<g>
</g>
<g>
</g>
<g>
</g>
<g>
</g>
<g>
</g>
<g>
</g>
<g>
</g>
<g>
</g>
<g>
</g>
<g>
</g>
<g>
</g>
</svg>
