<?xml version="1.0" encoding="iso-8859-1"?>
<!-- Generator: Adobe Illustrator 19.0.0, SVG Export Plug-In . SVG Version: 6.00 Build 0)  -->
<svg version="1.1" id="Layer_1" xmlns="http://www.w3.org/2000/svg" xmlns:xlink="http://www.w3.org/1999/xlink" x="0px" y="0px"
	 viewBox="0 0 511.783 511.783" style="enable-background:new 0 0 511.783 511.783;" xml:space="preserve">
<g transform="translate(1 1)">
	<g>
		<g>
			<path d="M474.553,95.976L400.79,2.254c-3.471-4.339-10.414-4.339-13.885,0l-73.763,93.722
				c-42.522,45.993-42.522,119.756,0,164.881c22.563,21.695,51.2,32.976,80.705,32.976c29.505,0,58.142-11.281,80.705-32.976
				C517.075,212.261,517.075,138.498,474.553,95.976z M462.403,248.708c-38.183,37.315-98.929,37.315-136.244,0
				c-37.315-39.051-36.448-102.4,0-142.319l67.688-85.044l67.688,85.044l0.868,0.868
				C498.851,143.705,498.851,207.054,462.403,248.708z"/>
			<path d="M392.98,242.634c-16.488,0-32.108-6.075-43.39-17.356c-23.43-26.034-23.43-67.688,0.868-93.722l0.868-0.868
				c3.471-3.471,3.471-8.678,0-12.149s-8.678-3.471-12.149,0l-0.868,0.868c-29.505,32.108-30.373,85.044,0,117.153
				c14.753,14.753,34.712,22.563,55.539,22.563c5.207,0,7.81-2.603,7.81-7.81S398.186,242.634,392.98,242.634z"/>
			<path d="M260.207,253.915L158.675,139.366c-1.736-1.736-4.339-2.603-6.942-2.603c-2.603,0.868-5.207,1.736-6.942,3.471
				L47.597,254.783C18.959,283.42,3.339,320.736,3.339,360.654c0,39.919,15.62,78.102,44.258,105.871
				c28.637,28.637,65.953,44.258,105.871,44.258s77.234-15.62,106.739-45.125c31.241-27.77,48.597-65.085,48.597-105.003
				C308.803,320.736,291.447,282.553,260.207,253.915z M247.19,454.376c-25.166,25.166-58.142,39.051-93.722,39.051
				s-68.556-13.885-93.722-39.051c-25.166-25.166-39.051-59.01-39.051-93.722c0-34.712,13.885-68.556,39.051-93.722l91.119-107.607
				l95.458,107.607c0,0.868,0.868,0.868,0.868,0.868c28.637,25.166,43.39,59.01,43.39,94.59
				C289.712,397.102,274.959,430.078,247.19,454.376z"/>
			<path d="M153.468,458.715c-26.034,0-51.2-10.414-69.424-28.637c-18.224-19.092-28.637-43.39-28.637-69.424
				c0-26.034,10.414-51.2,28.637-69.424l0.868-0.868c3.471-3.471,3.471-8.678,0-12.149c-3.471-3.471-8.678-3.471-12.149,0
				l-0.868,0.868c-21.695,21.695-33.844,51.2-33.844,81.573c0,31.241,12.149,59.878,33.844,81.573
				c21.695,21.695,51.2,33.844,81.573,33.844c4.339,0,8.678-3.471,8.678-8.678S158.675,458.715,153.468,458.715z"/>
		</g>
	</g>
</g>
<g>
</g>
<g>
</g>
<g>
</g>
<g>
</g>
<g>
</g>
<g>
</g>
<g>
</g>
<g>
</g>
<g>
</g>
<g>
</g>
<g>
</g>
<g>
</g>
<g>
</g>
<g>
</g>
<g>
</g>
</svg>
