<?xml version="1.0" encoding="iso-8859-1"?>
<!-- Generator: Adobe Illustrator 19.0.0, SVG Export Plug-In . SVG Version: 6.00 Build 0)  -->
<svg version="1.1" id="Layer_1" xmlns="http://www.w3.org/2000/svg" xmlns:xlink="http://www.w3.org/1999/xlink" x="0px" y="0px"
	 viewBox="0 0 509.614 509.614" style="enable-background:new 0 0 509.614 509.614;" xml:space="preserve">
<g transform="translate(1 1)">
	<g>
		<g>
			<path d="M485.4,21.78c-30.373-30.373-79.837-30.373-110.21,0L264.525,133.271l-6.487-6.487c-3.471-3.471-8.678-3.471-12.149,0
				l-36.447,36.447c-3.471,3.471-3.471,8.678,0,12.149l24.82,24.645L102.702,331.582c0,0,0,0-0.001,0.001l-49.464,49.464
				c-3.525,3.525-6.627,7.39-9.305,11.514c-1.071,1.65-2.075,3.341-3.01,5.068c-0.936,1.728-1.803,3.492-2.603,5.287
				c-2.8,6.284-4.77,12.951-5.909,19.785c-0.325,2.278-0.773,4.525-1.342,6.731c-1.329,5.146-3.322,10.064-5.98,14.608
				c-2.278,3.895-5.044,7.515-8.298,10.769l-9.546,9.546c-3.468,2.89-5.774,6.936-6.932,11.366
				c-0.595,2.176-0.889,4.427-0.874,6.691c0,0.056-0.004,0.111-0.004,0.167c0,6.942,2.603,13.017,7.81,18.224
				c4.339,5.207,11.281,7.81,18.224,7.81s13.885-2.603,18.224-7.81l9.546-9.546c8.678-7.81,19.959-13.885,32.108-15.62
				c15.62-2.603,30.373-9.546,41.654-20.827l181.284-181.284l24.384,24.212c1.736,1.736,3.471,2.603,6.075,2.603
				c1.736,0,4.339,0,5.207-2.603l36.447-36.447c3.471-3.471,3.471-8.678,0-12.149l-5.662-5.662L485.4,131.99
				C515.773,101.617,515.773,52.153,485.4,21.78z M114.851,442.661c-8.678,7.81-19.959,13.885-32.108,15.62
				c-15.62,2.603-30.373,9.546-41.654,20.827l-9.546,9.546c-3.471,3.471-8.678,3.471-12.149,0c-3.471-3.471-3.471-8.678,0-12.149
				l9.546-9.546c11.281-11.281,18.224-26.034,20.827-41.654c1.736-12.149,6.942-23.43,15.62-32.108l47.086-46.861h98.704
				L114.851,442.661z M228.532,328.98h-98.62l116.844-116.285l25.023,24.584l24.312,24.141L228.532,328.98z M338.742,279.515
				l-110.21-110.21l24.298-24.298l110.21,110.21L338.742,279.515z M363.041,230.919l-85.912-85.912L388.207,33.929
				c23.43-23.43,62.481-23.43,85.912,0c23.43,23.431,23.43,62.481,0,85.912L363.041,230.919z"/>
			<path d="M430.729,33.929c-11.281,0-22.563,4.339-31.241,13.017l-15.62,15.62c-3.471,3.471-3.471,8.678,0,12.149
				c1.736,1.736,3.471,2.603,6.075,2.603s5.207-0.868,6.075-2.603l16.488-15.62c9.546-9.546,26.902-9.546,36.447,0
				c3.471,3.471,8.678,3.471,12.149,0s3.471-8.678,0-12.149C453.292,38.268,442.01,33.929,430.729,33.929z"/>
		</g>
	</g>
</g>
<g>
</g>
<g>
</g>
<g>
</g>
<g>
</g>
<g>
</g>
<g>
</g>
<g>
</g>
<g>
</g>
<g>
</g>
<g>
</g>
<g>
</g>
<g>
</g>
<g>
</g>
<g>
</g>
<g>
</g>
</svg>
