<?xml version="1.0" encoding="iso-8859-1"?>
<!-- Generator: Adobe Illustrator 19.0.0, SVG Export Plug-In . SVG Version: 6.00 Build 0)  -->
<svg version="1.1" id="Layer_1" xmlns="http://www.w3.org/2000/svg" xmlns:xlink="http://www.w3.org/1999/xlink" x="0px" y="0px"
	 viewBox="0 0 512 512" style="enable-background:new 0 0 512 512;" xml:space="preserve">
<g transform="translate(1 3)">
	<g>
		<g>
			<path d="M485.4,280.733h-25.6V195.4c0-5.12-3.413-8.533-8.533-8.533H434.2v-60.821c14.679-3.814,25.6-17.216,25.6-33.046
				c0-18.773-15.36-34.133-34.133-34.133c-15.829,0-29.232,10.921-33.046,25.6H291.693l-19.627,52.907L221.72,3.4l-40.107,81.067
				h-64.234c-3.814-14.679-17.216-25.6-33.046-25.6C65.56,58.867,50.2,74.227,50.2,93c0,15.83,10.921,29.232,25.6,33.046v60.821
				H58.733c-5.12,0-8.533,3.413-8.533,8.533v85.333H24.6c-14.507,0-25.6,11.093-25.6,25.6V477c0,14.507,11.093,25.6,25.6,25.6h460.8
				c14.507,0,25.6-11.093,25.6-25.6V306.333C511,291.827,499.907,280.733,485.4,280.733z M442.733,280.733H408.6v-76.8h34.133
				V280.733z M425.667,75.933c9.387,0,17.067,7.68,17.067,17.067c0,9.387-7.68,17.067-17.067,17.067S408.6,102.387,408.6,93
				C408.6,83.613,416.28,75.933,425.667,75.933z M67.267,93c0-9.387,7.68-17.067,17.067-17.067c9.387,0,17.067,7.68,17.067,17.067
				c0,9.387-7.68,17.067-17.067,17.067C74.947,110.067,67.267,102.387,67.267,93z M92.867,126.046
				c11.949-3.105,21.408-12.563,24.512-24.512h74.474l28.16-55.467l52.053,139.093l31.573-83.627h88.981
				c3.105,11.949,12.563,21.408,24.512,24.512v60.821h-17.067c-5.12,0-8.533,3.413-8.533,8.533v85.333H118.467V195.4
				c0-5.12-3.413-8.533-8.533-8.533H92.867V126.046z M67.267,203.933H101.4v76.8H67.267V203.933z M493.933,477
				c0,5.12-3.413,8.533-8.533,8.533H24.6c-5.12,0-8.533-3.413-8.533-8.533V306.333c0-5.12,3.413-8.533,8.533-8.533h34.133h51.2
				h290.133h51.2H485.4c5.12,0,8.533,3.413,8.533,8.533V477z"/>
			<path d="M468.333,442.867H331.8c-5.12,0-8.533,3.413-8.533,8.533s3.413,8.533,8.533,8.533h136.533
				c5.12,0,8.533-3.413,8.533-8.533S473.453,442.867,468.333,442.867z"/>
			<path d="M468.333,408.733H331.8c-5.12,0-8.533,3.413-8.533,8.533s3.413,8.533,8.533,8.533h136.533
				c5.12,0,8.533-3.413,8.533-8.533S473.453,408.733,468.333,408.733z"/>
			<path d="M357.4,391.667c18.773,0,34.133-15.36,34.133-34.133c0-18.773-15.36-34.133-34.133-34.133
				c-18.773,0-34.133,15.36-34.133,34.133C323.267,376.307,338.627,391.667,357.4,391.667z M357.4,340.467
				c9.387,0,17.067,7.68,17.067,17.067c0,6.28-3.447,11.782-8.533,14.746v-6.212c0-5.12-3.413-8.533-8.533-8.533
				s-8.533,3.413-8.533,8.533v6.212c-5.086-2.963-8.533-8.466-8.533-14.746C340.333,348.147,348.013,340.467,357.4,340.467z"/>
			<path d="M442.733,323.4c-18.773,0-34.133,15.36-34.133,34.133c0,18.773,15.36,34.133,34.133,34.133
				c18.773,0,34.133-15.36,34.133-34.133C476.867,338.76,461.507,323.4,442.733,323.4z M442.733,374.6
				c-9.387,0-17.067-7.68-17.067-17.067s7.68-17.067,17.067-17.067c6.28,0,11.782,3.447,14.746,8.533h-6.212
				c-5.12,0-8.533,3.413-8.533,8.533s3.413,8.533,8.533,8.533h6.212C454.516,371.153,449.013,374.6,442.733,374.6z"/>
			<path d="M169.667,323.4c-70.827,0-128,57.173-128,128c0,5.12,3.413,8.533,8.533,8.533h238.933c5.12,0,8.533-3.413,8.533-8.533
				C297.667,380.573,240.493,323.4,169.667,323.4z M188.074,442.867l38.766-45.227c3.413-3.413,2.56-8.533-0.853-11.947
				s-8.533-2.56-11.947,0.853l-48.274,56.32H58.733c5.12-57.173,52.053-102.4,110.933-102.4s106.667,45.227,110.933,102.4H188.074z"
				/>
		</g>
	</g>
</g>
<g>
</g>
<g>
</g>
<g>
</g>
<g>
</g>
<g>
</g>
<g>
</g>
<g>
</g>
<g>
</g>
<g>
</g>
<g>
</g>
<g>
</g>
<g>
</g>
<g>
</g>
<g>
</g>
<g>
</g>
</svg>
