<?xml version="1.0" encoding="iso-8859-1"?>
<!-- Generator: Adobe Illustrator 19.0.0, SVG Export Plug-In . SVG Version: 6.00 Build 0)  -->
<svg version="1.1" id="Capa_1" xmlns="http://www.w3.org/2000/svg" xmlns:xlink="http://www.w3.org/1999/xlink" x="0px" y="0px"
	 viewBox="0 0 512 512" style="enable-background:new 0 0 512 512;" xml:space="preserve">
<g>
	<g>
		<path d="M467,0H75C50.187,0,30,20.187,30,45v15H0v30h61v422h420V87.759c17.978-5.901,31-22.833,31-42.759
			C512,20.187,491.813,0,467,0z M341,482H201c-19.299,0-35-15.701-35-35s15.701-35,35-35h79v26h94.826
			c0.772,2.908,1.174,5.915,1.174,9C376,466.299,360.299,482,341,482z M280,332v50h-59c-13.785,0-25-11.215-25-25
			c0-13.785,11.215-25,25-25H280z M236,267v-35h35c3.084,0,6.091,0.402,9,1.174v67.662c-2.913,0.772-5.923,1.164-9,1.164
			C251.701,302,236,286.299,236,267z M451,482h-55.271C402.218,471.888,406,459.881,406,447c0-3.042-0.23-6.041-0.638-9H451V482z
			 M451,210H351v30h100v30H351v30h100v30H351v30h100v48H310V160h141V210z M451,130H280v72.638c-2.96-0.408-5.959-0.638-9-0.638h-65
			v65c0,12.969,3.833,25.052,10.404,35.207C188.221,304.552,166,328.222,166,357c0,11.218,3.383,21.657,9.172,30.366
			C152.147,397.377,136,420.334,136,447c0,12.881,3.782,24.888,10.271,35H91V90h360V130z M467,60H60V45c0-8.271,6.729-15,15-15h392
			c8.271,0,15,6.729,15,15S475.271,60,467,60z"/>
	</g>
</g>
<g>
</g>
<g>
</g>
<g>
</g>
<g>
</g>
<g>
</g>
<g>
</g>
<g>
</g>
<g>
</g>
<g>
</g>
<g>
</g>
<g>
</g>
<g>
</g>
<g>
</g>
<g>
</g>
<g>
</g>
</svg>
