<?xml version="1.0" encoding="iso-8859-1"?>
<!-- Generator: Adobe Illustrator 19.0.0, SVG Export Plug-In . SVG Version: 6.00 Build 0)  -->
<svg version="1.1" id="Layer_1" xmlns="http://www.w3.org/2000/svg" xmlns:xlink="http://www.w3.org/1999/xlink" x="0px" y="0px"
	 viewBox="0 0 512 512" style="enable-background:new 0 0 512 512;" xml:space="preserve">
<g transform="translate(1 1)">
	<g>
		<g>
			<path d="M383,161.133c0-70.827-57.173-128-128-128s-128,57.173-128,128s57.173,128,128,128S383,231.96,383,161.133z M255,272.067
				c-61.44,0-110.933-49.493-110.933-110.933S193.56,50.2,255,50.2s110.933,49.493,110.933,110.933S316.44,272.067,255,272.067z"/>
			<path d="M417.133,161.133C417.133,71.533,344.6-1,255-1S92.867,71.533,92.867,161.133c0,80.213,58.027,147.627,136.533,160.427
				v44.373h-59.733c-5.12,0-8.533,3.413-8.533,8.533V408.6c0,5.12,3.413,8.533,8.533,8.533H229.4v85.333
				c0,5.12,3.413,8.533,8.533,8.533h34.133c5.12,0,8.533-3.413,8.533-8.533v-85.333h59.733c5.12,0,8.533-3.413,8.533-8.533v-34.133
				c0-5.12-3.413-8.533-8.533-8.533H280.6V321.56C359.107,308.76,417.133,241.347,417.133,161.133z M272.067,383H331.8v17.067
				h-59.733c-5.12,0-8.533,3.413-8.533,8.533v85.333h-17.067V408.6c0-5.12-3.413-8.533-8.533-8.533H178.2V383h59.733
				c5.12,0,8.533-3.413,8.533-8.533V313.88c0-4.267-3.413-7.68-7.68-8.533c-73.387-8.533-128.853-69.973-128.853-144.213
				c0-80.213,64.853-145.067,145.067-145.067S400.067,80.92,400.067,161.133c0,74.24-55.467,135.68-128.853,144.213
				c-4.267,0.853-7.68,4.267-7.68,8.533v60.587C263.533,379.587,266.947,383,272.067,383z"/>
		</g>
	</g>
</g>
<g>
</g>
<g>
</g>
<g>
</g>
<g>
</g>
<g>
</g>
<g>
</g>
<g>
</g>
<g>
</g>
<g>
</g>
<g>
</g>
<g>
</g>
<g>
</g>
<g>
</g>
<g>
</g>
<g>
</g>
</svg>
