<?xml version="1.0" encoding="iso-8859-1"?>
<!-- Generator: Adobe Illustrator 19.0.0, SVG Export Plug-In . SVG Version: 6.00 Build 0)  -->
<svg version="1.1" id="Layer_1" xmlns="http://www.w3.org/2000/svg" xmlns:xlink="http://www.w3.org/1999/xlink" x="0px" y="0px"
	 viewBox="0 0 512 512" style="enable-background:new 0 0 512 512;" xml:space="preserve">
<g transform="translate(1 1)">
	<g>
		<g>
			<path d="M220.44,118.467h51.2c5.12,0,8.533-3.413,8.533-8.533s-3.413-8.533-8.533-8.533h-51.2c-5.12,0-8.533,3.413-8.533,8.533
				S215.32,118.467,220.44,118.467z"/>
			<path d="M220.44,152.6h25.6c5.12,0,8.533-3.413,8.533-8.533c0-5.12-3.413-8.533-8.533-8.533h-25.6
				c-5.12,0-8.533,3.413-8.533,8.533C211.907,149.187,215.32,152.6,220.44,152.6z"/>
			<path d="M220.44,186.733h51.2c5.12,0,8.533-3.413,8.533-8.533s-3.413-8.533-8.533-8.533h-51.2c-5.12,0-8.533,3.413-8.533,8.533
				S215.32,186.733,220.44,186.733z"/>
			<path d="M220.44,220.867h25.6c5.12,0,8.533-3.413,8.533-8.533c0-5.12-3.413-8.533-8.533-8.533h-25.6
				c-5.12,0-8.533,3.413-8.533,8.533C211.907,217.453,215.32,220.867,220.44,220.867z"/>
			<path d="M400.493,407.747c0-4.267-0.853-8.533-0.853-12.8c0-1.364-0.414-2.725-1.122-3.925
				c-5.421-42.824-30.321-82.005-67.144-105.301V66.179c14.679-3.814,25.6-17.216,25.6-33.046C356.973,14.36,341.613-1,322.84-1
				H186.307c-18.773,0-34.133,15.36-34.133,34.133c0,15.83,10.921,29.232,25.6,33.046V285.72
				c-41.511,26.262-67.87,72.71-68.249,121.808c-0.003,0.073-0.018,0.146-0.018,0.218v0.853c0,37.547,14.507,72.533,40.107,99.84
				c1.707,1.707,3.413,2.56,5.973,2.56H353.56c2.56,0,4.267-0.853,5.973-2.56c0.096-0.102,0.188-0.207,0.284-0.31
				c0.188-0.177,0.372-0.346,0.569-0.544C385.987,480.28,400.493,445.293,400.493,407.747z M169.24,33.133
				c0-9.387,7.68-17.067,17.067-17.067H322.84c9.387,0,17.067,7.68,17.067,17.067c0,9.387-7.68,17.067-17.067,17.067H186.307
				C176.92,50.2,169.24,42.52,169.24,33.133z M190.573,298.52c2.56-1.707,4.267-4.267,4.267-7.68V67.267h120.32v222.72
				c0,3.413,1.707,5.973,4.267,7.68c32.119,18.852,54.515,50.848,61.599,86.632c-37.226-7.069-68.858,2.292-88.052,26.861
				c-34.133,44.373-70.827,35.84-117.76,6.827c-14.076-7.038-31.732-14.777-48.378-17.337
				C129.543,358.425,153.629,319.401,190.573,298.52z M350.147,493.933H159.853c-9.636-10.793-17.35-22.807-22.92-35.644
				c-5.273-12.733-8.229-26.307-8.653-40.302c12.8,2.56,28.16,9.387,39.253,15.36c46.08,28.16,94.72,46.08,139.093-11.093
				c15.342-19.603,43.453-26.435,76.681-18.799c0.071,1.712,0.119,3.426,0.119,5.146C383.427,440.173,371.48,470.04,350.147,493.933
				z"/>
		</g>
	</g>
</g>
<g>
</g>
<g>
</g>
<g>
</g>
<g>
</g>
<g>
</g>
<g>
</g>
<g>
</g>
<g>
</g>
<g>
</g>
<g>
</g>
<g>
</g>
<g>
</g>
<g>
</g>
<g>
</g>
<g>
</g>
</svg>
