<?xml version="1.0" encoding="iso-8859-1"?>
<!-- Generator: Adobe Illustrator 19.0.0, SVG Export Plug-In . SVG Version: 6.00 Build 0)  -->
<svg version="1.1" id="Layer_1" xmlns="http://www.w3.org/2000/svg" xmlns:xlink="http://www.w3.org/1999/xlink" x="0px" y="0px"
	 viewBox="0 0 512 512" style="enable-background:new 0 0 512 512;" xml:space="preserve">
<g transform="translate(1 1)">
	<g>
		<g>
			<path d="M212.6,118.467h34.133c5.12,0,8.533-3.413,8.533-8.533s-3.413-8.533-8.533-8.533H212.6c-5.12,0-8.533,3.413-8.533,8.533
				S207.48,118.467,212.6,118.467z"/>
			<path d="M212.6,152.6h17.067c5.12,0,8.533-3.413,8.533-8.533c0-5.12-3.413-8.533-8.533-8.533H212.6
				c-5.12,0-8.533,3.413-8.533,8.533C204.067,149.187,207.48,152.6,212.6,152.6z"/>
			<path d="M212.6,186.733h34.133c5.12,0,8.533-3.413,8.533-8.533s-3.413-8.533-8.533-8.533H212.6c-5.12,0-8.533,3.413-8.533,8.533
				S207.48,186.733,212.6,186.733z"/>
			<path d="M212.6,220.867h17.067c5.12,0,8.533-3.413,8.533-8.533c0-5.12-3.413-8.533-8.533-8.533H212.6
				c-5.12,0-8.533,3.413-8.533,8.533C204.067,217.453,207.48,220.867,212.6,220.867z"/>
			<path d="M411.427,347.16L340.6,243.907V66.179c14.679-3.814,25.6-17.216,25.6-33.046C366.2,14.36,350.84-1,332.067-1h-153.6
				c-18.773,0-34.133,15.36-34.133,34.133c0,15.83,10.921,29.232,25.6,33.046v177.728l-56.047,80.735
				c-0.091,0.11-0.187,0.217-0.273,0.332l-15.36,22.187c-14.507,22.187-20.48,47.787-17.067,74.24
				c7.68,51.2,52.053,89.6,104.107,89.6H325.24c19.52,0,37.96-5.4,53.745-14.85c2.631-1.575,5.188-3.263,7.664-5.056
				c2.476-1.794,4.871-3.694,7.178-5.694c2.307-2,4.525-4.1,6.648-6.294c3.184-3.291,6.153-6.792,8.882-10.484
				c1.819-2.461,3.532-5.006,5.131-7.63c2.398-3.935,4.541-8.046,6.402-12.312c3.723-8.531,6.323-17.681,7.603-27.281
				C432.76,394.947,425.933,368.493,411.427,347.16z M411.604,417.478c-0.074,0.391-0.118,0.758-0.142,1.092
				c-0.014,0.09-0.021,0.18-0.035,0.27c-5.973,42.667-42.667,75.093-86.187,75.093h-140.8c-42.667,0-80.213-32.427-86.187-75.093
				c-0.628-4.084-0.962-8.167-1.018-12.224c-0.068-17.683,5.246-34.826,15.524-49.216l11.093-16.213
				c1.707,1.707,4.267,3.413,5.12,5.973c36.693,36.693,95.573,65.707,139.093,26.453l0.853-0.853
				c34.987-32.427,84.48-6.827,116.907,25.6c7.575,6.733,16.81,12.629,26.068,16.883
				C411.811,415.987,411.707,416.733,411.604,417.478z M161.4,33.133c0-9.387,7.68-17.067,17.067-17.067h153.6
				c9.387,0,17.067,7.68,17.067,17.067c0,9.387-7.68,17.067-17.067,17.067h-153.6C169.08,50.2,161.4,42.52,161.4,33.133z
				 M185.293,251.587c0.853-1.707,1.707-3.413,1.707-5.12v-179.2h136.533v179.2c0,1.707,0.853,3.413,0.853,4.267l72.533,105.813
				c8.088,11.863,13.101,24.75,14.84,38.226c-5.031-2.919-9.653-6.214-13.987-10.066C361.08,348.013,302.2,319,258.68,358.253
				l-0.853,0.853c-34.987,32.427-84.48,6.827-116.907-25.6c-2.691-1.794-5.386-3.823-8.201-5.841L185.293,251.587z"/>
		</g>
	</g>
</g>
<g>
</g>
<g>
</g>
<g>
</g>
<g>
</g>
<g>
</g>
<g>
</g>
<g>
</g>
<g>
</g>
<g>
</g>
<g>
</g>
<g>
</g>
<g>
</g>
<g>
</g>
<g>
</g>
<g>
</g>
</svg>
