<?xml version="1.0" encoding="iso-8859-1"?>
<!-- Generator: Adobe Illustrator 19.0.0, SVG Export Plug-In . SVG Version: 6.00 Build 0)  -->
<svg version="1.1" id="Layer_1" xmlns="http://www.w3.org/2000/svg" xmlns:xlink="http://www.w3.org/1999/xlink" x="0px" y="0px"
	 viewBox="0 0 512 512" style="enable-background:new 0 0 512 512;" xml:space="preserve">
<g transform="translate(1 1)">
	<g>
		<g>
			<path d="M331.8,115.907V66.179c14.679-3.814,25.6-17.216,25.6-33.046C357.4,14.36,342.04-1,323.267-1H186.733
				C167.96-1,152.6,14.36,152.6,33.133c0,15.83,10.921,29.232,25.6,33.046v49.728c-76.8,31.573-128,106.667-128,190.293
				c0,20.258,2.995,39.847,8.54,58.363c0.157,0.531,0.314,1.062,0.476,1.591c0.191,0.62,0.387,1.237,0.584,1.854
				c0.386,1.22,0.782,2.436,1.19,3.647c0.013,0.037,0.026,0.075,0.038,0.112c7.175,21.215,17.8,40.856,31.17,58.297
				c34.675,45.402,87.823,76.032,147.962,80.391c0.188,0.014,0.377,0.023,0.565,0.036c1.417,0.099,2.835,0.19,4.259,0.26
				c0.661,0.033,1.324,0.05,1.987,0.076c0.988,0.039,1.974,0.084,2.964,0.109C251.62,510.977,253.308,511,255,511
				c3.52,0,7.02-0.09,10.498-0.268C373.31,505.22,459.8,415.32,459.8,306.2C459.8,222.573,408.6,146.627,331.8,115.907z
				 M169.667,33.133c0-9.387,7.68-17.067,17.067-17.067h136.533c9.387,0,17.067,7.68,17.067,17.067
				c0,9.387-7.68,17.067-17.067,17.067H186.733C177.347,50.2,169.667,42.52,169.667,33.133z M189.293,129.56
				c3.413-0.853,5.973-4.267,5.973-7.68V67.267h119.467v55.467c0,3.413,2.56,6.827,5.973,7.68
				c61.023,22.973,105.734,76.148,118.389,139.195c-29.596-12.763-61.384-20.744-97.056,12.698
				c-21.333,21.333-34.133,18.773-75.947-1.707c-46.08-28.16-94.72-46.08-139.093,11.093
				c-16.425,21.651-41.993,23.706-59.563,22.167c-0.103-2.542-0.17-5.094-0.17-7.661C67.267,227.693,116.76,157.72,189.293,129.56z
				 M255,493.933c-1.532,0-3.06-0.022-4.584-0.059c-0.688-0.017-1.373-0.048-2.059-0.073c-0.809-0.029-1.618-0.054-2.425-0.093
				c-0.939-0.046-1.876-0.106-2.812-0.166c-0.52-0.033-1.041-0.063-1.559-0.1c-1.142-0.083-2.28-0.178-3.417-0.281
				c-0.273-0.025-0.546-0.048-0.819-0.073c-1.345-0.128-2.686-0.269-4.024-0.426c-0.014-0.002-0.029-0.003-0.043-0.005
				c-52.675-6.209-99.394-34.66-129.708-75.875c-0.195-0.265-0.389-0.531-0.582-0.797c-0.553-0.761-1.099-1.527-1.641-2.296
				c-0.405-0.577-0.808-1.156-1.207-1.738c-0.349-0.507-0.697-1.015-1.041-1.526c-0.621-0.925-1.236-1.855-1.841-2.791
				c-0.133-0.205-0.267-0.409-0.399-0.614c-8.874-13.84-15.982-28.906-21.005-44.875c-0.052-0.167-0.105-0.332-0.157-0.499
				c-0.338-1.084-0.659-2.175-0.978-3.267c-0.144-0.497-0.292-0.993-0.431-1.492c-0.181-0.641-0.351-1.285-0.525-1.929
				c-2.1-7.814-3.71-15.828-4.771-24.013c30.72,2.56,55.467-7.68,71.68-29.013c34.133-43.52,69.973-34.987,117.76-5.973
				c40.96,19.627,65.707,29.867,96.427-0.853c29.867-27.307,52.907-21.333,87.04-5.973c0.107,0.854,0.2,1.682,0.282,2.486
				c0.379,4.821,0.571,9.684,0.571,14.58C442.733,409.453,358.253,493.933,255,493.933z"/>
			<path d="M161.133,178.2h34.133c5.12,0,8.533-3.413,8.533-8.533s-3.413-8.533-8.533-8.533h-34.133
				c-5.12,0-8.533,3.413-8.533,8.533S156.013,178.2,161.133,178.2z"/>
			<path d="M135.533,212.333h25.6c5.12,0,8.533-3.413,8.533-8.533c0-5.12-3.413-8.533-8.533-8.533h-25.6
				c-5.12,0-8.533,3.413-8.533,8.533C127,208.92,130.413,212.333,135.533,212.333z"/>
			<path d="M109.933,246.467H152.6c5.12,0,8.533-3.413,8.533-8.533s-3.413-8.533-8.533-8.533h-42.667
				c-5.12,0-8.533,3.413-8.533,8.533S104.813,246.467,109.933,246.467z"/>
		</g>
	</g>
</g>
<g>
</g>
<g>
</g>
<g>
</g>
<g>
</g>
<g>
</g>
<g>
</g>
<g>
</g>
<g>
</g>
<g>
</g>
<g>
</g>
<g>
</g>
<g>
</g>
<g>
</g>
<g>
</g>
<g>
</g>
</svg>
