<?xml version="1.0" encoding="iso-8859-1"?>
<!-- Generator: Adobe Illustrator 19.0.0, SVG Export Plug-In . SVG Version: 6.00 Build 0)  -->
<svg version="1.1" id="Layer_1" xmlns="http://www.w3.org/2000/svg" xmlns:xlink="http://www.w3.org/1999/xlink" x="0px" y="0px"
	 viewBox="0 0 512 512" style="enable-background:new 0 0 512 512;" xml:space="preserve">
<g transform="translate(1 1)">
	<g>
		<g>
			<path d="M109.507,203.8h51.2c5.12,0,8.533-3.413,8.533-8.533s-3.413-8.533-8.533-8.533h-51.2c-5.12,0-8.533,3.413-8.533,8.533
				S104.387,203.8,109.507,203.8z"/>
			<path d="M83.907,237.933h25.6c5.12,0,8.533-3.413,8.533-8.533s-3.413-8.533-8.533-8.533h-25.6c-5.12,0-8.533,3.413-8.533,8.533
				S78.787,237.933,83.907,237.933z"/>
			<path d="M66.84,272.067h51.2c5.12,0,8.533-3.413,8.533-8.533S123.16,255,118.04,255h-51.2c-5.12,0-8.533,3.413-8.533,8.533
				S61.72,272.067,66.84,272.067z"/>
			<path d="M500.333,303.64c-0.361-1.443-0.888-2.72-1.618-3.794c-14.368-86.96-74.367-160.509-158.808-191.619V65.693
				c14.945-4.368,25.6-17.342,25.6-32.56C365.507,14.36,349.293-1,329.667-1H180.333c-20.48,0-36.693,15.36-36.693,34.133
				c0,15.218,10.655,28.192,25.6,32.56v42.533c-97.28,35.84-162.133,128-162.133,232.107c0,62.293,23.04,122.027,65.707,168.107
				c1.707,1.707,3.413,2.56,5.973,2.56H430.36c1.707,0,4.267-0.853,6.827-1.707c42.667-46.08,65.707-105.813,65.707-168.107
				C502.893,329.24,502.04,316.44,500.333,303.64z M160.707,33.133c0-9.387,8.533-17.067,19.627-17.067h148.48
				c11.093,0,19.627,7.68,19.627,17.067c0,9.387-8.533,17.067-18.773,17.067H180.333C169.24,50.2,160.707,42.52,160.707,33.133z
				 M180.333,121.88c3.413-0.853,5.973-4.267,5.973-7.68V67.267H322.84V114.2c0,3.413,2.56,6.827,5.973,7.68
				c77.608,27.056,134.413,92.136,151.104,170.449c-47.498-14.08-80.009-16.035-103.318,9.605c-5.973,6.827-23.04,28.16-74.24-2.56
				c-46.08-28.16-94.72-46.08-139.093,11.093c-27.307,34.987-83.627,25.6-125.44-1.707c0-0.853-0.853-0.853-0.853-0.853
				c-3.201-1.601-6.403-3.201-9.812-4.593C40.686,220.136,99.124,150.192,180.333,121.88z M426.093,493.933H83.053
				c-38.4-42.667-58.88-96.427-58.88-153.6c0-2.751,0.057-5.492,0.154-8.223c0.185-3.585,0.596-7.201,1.553-10.55
				c0.853,0.853,2.56,0.853,3.413,1.707c48.64,30.72,114.347,40.107,147.627-2.56c34.133-44.373,69.973-34.987,116.907-6.827
				c52.053,31.573,81.067,16.213,95.573-1.707c16.188-18.744,40.036-18.771,93.617-1.785c0.302,2.31,0.58,4.626,0.813,6.954
				c0.629,7.911,1.144,15.708,1.144,22.99C484.973,397.507,463.64,451.267,426.093,493.933z"/>
		</g>
	</g>
</g>
<g>
</g>
<g>
</g>
<g>
</g>
<g>
</g>
<g>
</g>
<g>
</g>
<g>
</g>
<g>
</g>
<g>
</g>
<g>
</g>
<g>
</g>
<g>
</g>
<g>
</g>
<g>
</g>
<g>
</g>
</svg>
