<?xml version="1.0" encoding="iso-8859-1"?>
<!-- Generator: Adobe Illustrator 19.0.0, SVG Export Plug-In . SVG Version: 6.00 Build 0)  -->
<svg version="1.1" id="Layer_1" xmlns="http://www.w3.org/2000/svg" xmlns:xlink="http://www.w3.org/1999/xlink" x="0px" y="0px"
	 viewBox="0 0 503.333 503.333" style="enable-background:new 0 0 503.333 503.333;" xml:space="preserve">
<g transform="translate(1 1)">
	<g>
		<g>
			<path d="M393.32,95.388h-50.361c-5.036,0-8.393,3.357-8.393,8.393s3.357,8.393,8.393,8.393h50.361
				c5.036,0,8.393-3.357,8.393-8.393S398.356,95.388,393.32,95.388z"/>
			<path d="M342.959,145.749h25.18c5.036,0,8.393-3.357,8.393-8.393s-3.357-8.393-8.393-8.393h-25.18
				c-5.036,0-8.393,3.357-8.393,8.393S337.923,145.749,342.959,145.749z"/>
			<path d="M393.32,162.535h-50.361c-5.036,0-8.393,3.357-8.393,8.393c0,5.036,3.357,8.393,8.393,8.393h50.361
				c5.036,0,8.393-3.357,8.393-8.393C401.713,165.893,398.356,162.535,393.32,162.535z"/>
			<path d="M368.139,196.109h-25.18c-5.036,0-8.393,3.357-8.393,8.393s3.357,8.393,8.393,8.393h25.18
				c5.036,0,8.393-3.357,8.393-8.393S373.175,196.109,368.139,196.109z"/>
			<path d="M141.516,95.388H91.156c-5.036,0-8.393,3.357-8.393,8.393s3.357,8.393,8.393,8.393h50.361
				c5.036,0,8.393-3.357,8.393-8.393S146.552,95.388,141.516,95.388z"/>
			<path d="M91.156,145.749h25.18c5.036,0,8.393-3.357,8.393-8.393s-3.357-8.393-8.393-8.393h-25.18
				c-5.036,0-8.393,3.357-8.393,8.393S86.12,145.749,91.156,145.749z"/>
			<path d="M141.516,162.535H91.156c-5.036,0-8.393,3.357-8.393,8.393c0,5.036,3.357,8.393,8.393,8.393h50.361
				c5.036,0,8.393-3.357,8.393-8.393C149.91,165.893,146.552,162.535,141.516,162.535z"/>
			<path d="M116.336,196.109h-25.18c-5.036,0-8.393,3.357-8.393,8.393s3.357,8.393,8.393,8.393h25.18
				c5.036,0,8.393-3.357,8.393-8.393S121.372,196.109,116.336,196.109z"/>
			<path d="M492.362,402.588l-6.715-10.072c-1.679-1.679-4.197-3.357-6.715-3.357h-16.2c14.744-19.218,22.914-42.927,22.914-67.148
				c0-30.216-12.59-58.754-33.574-78.898V60.461c9.938-3.335,16.787-12.525,16.787-23.827c0-14.269-10.911-25.18-25.18-25.18
				H309.385c-14.269,0-25.18,10.911-25.18,25.18c0,11.302,6.849,20.492,16.787,23.827v182.652
				c-20.984,20.984-33.574,49.521-33.574,78.898c0,24.834,8.144,48.14,22.842,67.148h-79.33
				c14.744-19.218,22.914-42.927,22.914-67.148c0-30.216-12.59-58.754-33.574-78.898V60.461
				c9.938-3.335,16.787-12.525,16.787-23.827c0-14.269-10.911-25.18-25.18-25.18H57.582c-14.269,0-25.18,10.911-25.18,25.18
				c0,11.302,6.849,20.492,16.787,23.827v182.652c-20.984,20.984-33.574,49.521-33.574,78.898c0,24.221,8.17,47.93,22.914,67.148
				h-16.2c-2.518,0-5.036,1.679-6.715,4.197l-5.875,8.393c-12.59,16.787-14.269,39.449-4.197,57.915
				c9.233,18.466,28.538,30.216,49.521,30.216h391.974c20.984,0,39.449-11.751,48.682-30.216
				C505.792,442.037,504.113,419.375,492.362,402.588z M309.385,28.24H443.68c5.036,0,8.393,3.357,8.393,8.393
				s-3.357,8.393-8.393,8.393H309.385c-5.036,0-8.393-3.357-8.393-8.393S304.349,28.24,309.385,28.24z M284.205,322.011
				c0-26.02,10.911-51.2,31.056-68.826c1.679-0.839,2.518-3.357,2.518-5.875V61.814h118.348v185.495
				c0,1.679,0.839,4.197,2.518,5.875c20.144,17.626,31.056,42.807,31.056,68.826c0,25.18-10.911,49.521-29.377,67.148H313.582
				C295.116,371.532,284.205,347.191,284.205,322.011z M57.582,28.24h134.295c5.036,0,8.393,3.357,8.393,8.393
				s-3.357,8.393-8.393,8.393H57.582c-5.036,0-8.393-3.357-8.393-8.393S52.546,28.24,57.582,28.24z M32.402,322.011
				c0-26.02,10.911-51.2,31.056-68.826c1.679-0.839,2.518-3.357,2.518-5.875V61.814h118.348v185.495
				c0,1.679,0.839,4.197,2.518,5.875c20.144,17.626,31.056,42.807,31.056,68.826c0,25.18-10.911,49.521-29.377,67.148H61.779
				C43.313,371.532,32.402,347.191,32.402,322.011z M481.451,452.109c-6.715,13.43-19.305,20.984-34.413,20.984H55.064
				c-14.269,0-27.698-7.554-34.413-20.984c-6.715-13.43-5.875-28.538,2.518-41.128l3.357-5.036h31.895h132.616h119.187h132.616
				h31.895l4.197,5.875C487.326,424.411,488.166,438.68,481.451,452.109z"/>
			<path d="M452.074,431.126H49.188c-5.036,0-8.393,3.357-8.393,8.393c0,5.036,3.357,8.393,8.393,8.393h402.885
				c5.036,0,8.393-3.357,8.393-8.393C460.467,434.483,457.11,431.126,452.074,431.126z"/>
		</g>
	</g>
</g>
<g>
</g>
<g>
</g>
<g>
</g>
<g>
</g>
<g>
</g>
<g>
</g>
<g>
</g>
<g>
</g>
<g>
</g>
<g>
</g>
<g>
</g>
<g>
</g>
<g>
</g>
<g>
</g>
<g>
</g>
</svg>
