<?xml version="1.0" encoding="iso-8859-1"?>
<!-- Generator: Adobe Illustrator 19.0.0, SVG Export Plug-In . SVG Version: 6.00 Build 0)  -->
<svg version="1.1" id="Layer_1" xmlns="http://www.w3.org/2000/svg" xmlns:xlink="http://www.w3.org/1999/xlink" x="0px" y="0px"
	 viewBox="0 0 512 512" style="enable-background:new 0 0 512 512;" xml:space="preserve">
<g transform="translate(1 1)">
	<g>
		<g>
			<path d="M459.8,118.467h-25.6h-27.191l8.684-51.237c0.478,0.02,0.957,0.037,1.44,0.037c18.773,0,34.133-15.36,34.133-34.133
				C451.267,14.36,435.907-1,417.133-1C398.36-1,383,14.36,383,33.133c0,12.096,6.382,22.768,15.94,28.834l-9.576,56.499H75.8H50.2
				c-5.12,0-8.533,3.413-8.533,8.533s3.413,8.533,8.533,8.533h17.067V334.36v108.373c0,37.547,30.72,68.267,68.267,68.267h264.533
				c42.667,0,42.667-37.547,42.667-68.267V323.267V135.533H459.8c5.12,0,8.533-3.413,8.533-8.533S464.92,118.467,459.8,118.467z
				 M417.133,16.067c9.387,0,17.067,7.68,17.067,17.067c0,9.387-7.68,17.067-17.067,17.067c-1.417,0-2.788-0.194-4.107-0.524
				c-0.838-0.57-1.755-0.99-2.719-1.183c-0.242-0.04-0.48-0.062-0.718-0.084c-5.625-2.799-9.522-8.597-9.522-15.276
				C400.067,23.747,407.747,16.067,417.133,16.067z M386.471,135.533l-35.147,207.367c-8.67,4.695-16.748,10.016-23.791,17.06
				c-34.987,32.427-84.48,6.827-116.907-25.6c-34.953-31.154-87.486-36.572-126.293-15.701V135.533H386.471z M425.667,442.733
				c0,38.4-3.413,51.2-25.6,51.2H135.533c-28.16,0-51.2-23.04-51.2-51.2V338.627C116.76,315.587,167.96,319,198.68,347.16
				c36.693,37.547,95.573,66.56,139.947,25.6c2.85-2.85,5.836-5.36,8.932-7.641L331.8,458.093c-0.853,5.12,2.56,9.387,6.827,10.24
				c0.853,0,0.853,0,1.707,0c4.267,0,7.68-2.56,8.533-6.827l18.281-107.855c2.128-1.04,4.284-2.06,6.466-3.078l5.12-2.56
				c14.507-8.533,30.72-13.653,46.933-15.36V442.733z M425.667,315.318c-19.291,1.889-38.249,7.666-54.613,17.336l-0.386,0.232
				l33.449-197.352h21.55V315.318z"/>
			<path d="M220.867,186.733h68.267c5.12,0,8.533-3.413,8.533-8.533s-3.413-8.533-8.533-8.533h-68.267
				c-5.12,0-8.533,3.413-8.533,8.533S215.747,186.733,220.867,186.733z"/>
			<path d="M220.867,237.933h68.267c5.12,0,8.533-3.413,8.533-8.533s-3.413-8.533-8.533-8.533h-68.267
				c-5.12,0-8.533,3.413-8.533,8.533S215.747,237.933,220.867,237.933z"/>
			<path d="M220.867,289.133h68.267c5.12,0,8.533-3.413,8.533-8.533s-3.413-8.533-8.533-8.533h-68.267
				c-5.12,0-8.533,3.413-8.533,8.533S215.747,289.133,220.867,289.133z"/>
		</g>
	</g>
</g>
<g>
</g>
<g>
</g>
<g>
</g>
<g>
</g>
<g>
</g>
<g>
</g>
<g>
</g>
<g>
</g>
<g>
</g>
<g>
</g>
<g>
</g>
<g>
</g>
<g>
</g>
<g>
</g>
<g>
</g>
</svg>
