<?xml version="1.0" encoding="iso-8859-1"?>
<!-- Generator: Adobe Illustrator 19.0.0, SVG Export Plug-In . SVG Version: 6.00 Build 0)  -->
<svg version="1.1" id="Layer_1" xmlns="http://www.w3.org/2000/svg" xmlns:xlink="http://www.w3.org/1999/xlink" x="0px" y="0px"
	 viewBox="0 0 512 512" style="enable-background:new 0 0 512 512;" xml:space="preserve">
<g transform="translate(1 1)">
	<g>
		<g>
			<path d="M271.937,101.4h-34.133c-5.12,0-8.533,3.413-8.533,8.533s3.413,8.533,8.533,8.533h34.133c5.12,0,8.533-3.413,8.533-8.533
				S277.057,101.4,271.937,101.4z"/>
			<path d="M237.804,152.6h17.067c5.12,0,8.533-3.413,8.533-8.533c0-5.12-3.413-8.533-8.533-8.533h-17.067
				c-5.12,0-8.533,3.413-8.533,8.533C229.271,149.187,232.684,152.6,237.804,152.6z"/>
			<path d="M271.937,169.667h-34.133c-5.12,0-8.533,3.413-8.533,8.533s3.413,8.533,8.533,8.533h34.133
				c5.12,0,8.533-3.413,8.533-8.533S277.057,169.667,271.937,169.667z"/>
			<path d="M254.871,203.8h-17.067c-5.12,0-8.533,3.413-8.533,8.533c0,5.12,3.413,8.533,8.533,8.533h17.067
				c5.12,0,8.533-3.413,8.533-8.533C263.404,207.213,259.991,203.8,254.871,203.8z"/>
			<path d="M475.031,488.813l-77.421-100.648c11.448-5.526,19.395-17.262,19.395-30.766c0-18.773-15.36-34.133-34.133-34.133h-4.143
				c-9.661-33.356-32.706-62.443-64.123-79.36V66.179c14.679-3.814,25.6-17.216,25.6-33.046C340.204,14.36,324.844-1,306.071-1
				h-102.4c-18.773,0-34.133,15.36-34.133,34.133c0,15.829,10.921,29.232,25.6,33.046V244.76
				c-31.197,15.999-54.896,44.745-64.066,78.507h-4.201c-18.773,0-34.133,15.36-34.133,34.133c0,13.503,7.947,25.24,19.395,30.766
				L34.711,488.813c-2.56,3.413-1.707,9.387,1.707,11.947c1.707,0.853,3.413,1.707,5.12,1.707c2.56,0,5.12-0.853,6.827-3.413
				l82.708-107.52h0.832c13.816,51.795,60.599,89.901,114.434,93.574v17.359c0,5.12,3.413,8.533,8.533,8.533
				c5.12,0,8.533-3.413,8.533-8.533v-17.359c53.836-3.673,100.656-41.779,115.19-93.574h0.076l82.708,107.52
				c1.707,2.56,4.267,3.413,6.827,3.413c1.707,0,3.413-0.853,5.12-1.707C477.591,498.2,477.591,492.227,475.031,488.813z
				 M186.604,33.133c0-9.387,7.68-17.067,17.067-17.067h102.4c9.387,0,17.067,7.68,17.067,17.067c0,9.387-7.68,17.067-17.067,17.067
				h-102.4C194.284,50.2,186.604,42.52,186.604,33.133z M207.084,257.56c3.413-1.707,5.12-4.267,5.12-7.68V67.267h84.48V249.88
				c0,3.413,2.56,5.973,5.12,7.68c27.307,12.8,48.64,36.693,58.027,65.707H149.057C158.444,294.253,179.777,270.36,207.084,257.56z
				 M126.871,340.333h11.093h233.813h11.093c9.387,0,17.067,7.68,17.067,17.067c0,9.195-7.374,16.733-16.498,17.038
				c-0.37-0.01-0.74-0.005-1.109,0.029h-10.553h-232.96h-11.947c-9.387,0-17.067-7.68-17.067-17.067
				S117.484,340.333,126.871,340.333z M149.057,391.533h97.28v76.466C201.3,464.554,162.709,434.094,149.057,391.533z
				 M263.404,467.991v-76.457h97.28C347.046,434.051,307.765,464.496,263.404,467.991z"/>
		</g>
	</g>
</g>
<g>
</g>
<g>
</g>
<g>
</g>
<g>
</g>
<g>
</g>
<g>
</g>
<g>
</g>
<g>
</g>
<g>
</g>
<g>
</g>
<g>
</g>
<g>
</g>
<g>
</g>
<g>
</g>
<g>
</g>
</svg>
