<?xml version="1.0" encoding="iso-8859-1"?>
<!-- Generator: Adobe Illustrator 19.0.0, SVG Export Plug-In . SVG Version: 6.00 Build 0)  -->
<svg version="1.1" id="Layer_1" xmlns="http://www.w3.org/2000/svg" xmlns:xlink="http://www.w3.org/1999/xlink" x="0px" y="0px"
	 viewBox="0 0 512 512" style="enable-background:new 0 0 512 512;" xml:space="preserve">
<g transform="translate(1 1)">
	<g>
		<path d="M485.4,443.821v-293.19c1.545-0.805,2.968-1.853,4.267-3.151c2.56-3.413,4.267-7.68,4.267-11.947V85.187
			c0-4.267-1.707-9.387-4.267-12.8c-1.298-1.298-2.722-2.346-4.267-3.151V33.133c0-5.12-3.413-8.533-8.533-8.533h-59.733
			c-5.12,0-8.533,3.413-8.533,8.533v36.454c-5.086,2.963-8.533,8.466-8.533,14.746H357.4V75.8c0-5.12-3.413-8.533-8.533-8.533H331.8
			V48.824c10.103-3.391,17.067-12.734,17.067-24.224c0-14.507-11.093-25.6-25.6-25.6H186.733c-14.507,0-25.6,11.093-25.6,25.6
			c0,11.491,6.963,20.833,17.067,24.224v18.443h-17.067c-5.12,0-8.533,3.413-8.533,8.533v8.533h-42.667
			c0-6.28-3.447-11.782-8.533-14.746V33.133c0-5.12-3.413-8.533-8.533-8.533H33.133c-5.12,0-8.533,3.413-8.533,8.533v36.103
			c-1.545,0.804-2.968,1.853-4.267,3.151c-2.56,3.413-4.267,7.68-4.267,11.947v50.347c0,4.267,1.707,9.387,4.267,12.8
			c1.298,1.298,2.722,2.346,4.267,3.151v293.19C9.921,447.635-1,461.037-1,476.867C-1,495.64,14.36,511,33.133,511h179.2
			c2.56,0,4.267-0.853,5.973-2.56l14.507-14.507h52.907l14.507,14.507c1.707,1.707,3.413,2.56,5.973,2.56h170.667
			C495.64,511,511,495.64,511,476.867C511,461.037,500.079,447.635,485.4,443.821z M319.005,442.733
			C357.294,420.639,383,379.29,383,331.8c0-0.131-0.005-0.261-0.006-0.392c0.001-0.154,0.006-0.307,0.006-0.461
			c0-6.827,0-13.653-1.707-22.187c-0.19-0.57-0.429-1.137-0.703-1.688c-6.017-30.748-23.119-58.757-48.79-77.672v-76.8h17.067
			c5.12,0,8.533-3.413,8.533-8.533v-8.533h42.667c0,6.28,3.447,11.782,8.533,14.746v292.454H319.005z M33.133,84.333h59.733v8.533
			V127v8.533H33.133V84.333z M41.667,152.6h42.667v290.133H41.667V152.6z M101.4,150.279c5.086-2.963,8.533-8.466,8.533-14.746
			H152.6v8.533c0,5.12,3.413,8.533,8.533,8.533H178.2v76.8c-30.174,22.234-48.516,57.03-50.921,94.072
			c0,0.006-0.001,0.013-0.001,0.019c-0.08,1.233-0.142,2.469-0.186,3.707c-0.007,0.183-0.018,0.365-0.024,0.548
			c-0.043,1.349-0.068,2.701-0.068,4.055c0,47.49,25.706,88.839,63.995,110.933H101.4V150.279z M144.067,331.8
			c0-12.773,2.287-25.325,6.569-37.162c1.736-4.747,3.805-9.428,6.231-14.038c24.747-0.853,48.64,7.68,66.56,23.04
			c36.693,37.547,95.573,66.56,139.947,25.6c0.81-0.81,1.621-1.621,2.431-2.431c0.077,1.66,0.129,3.323,0.129,4.991
			c0,61.44-49.493,110.933-110.933,110.933S144.067,393.24,144.067,331.8z M476.867,135.533h-59.733V127V92.867v-8.533h59.733
			V135.533z M425.667,152.6h42.667v290.133h-42.667V152.6z M425.667,41.667h42.667v25.6h-42.667V41.667z M400.067,101.4v17.067
			H357.4V101.4H400.067z M340.333,92.867V127v8.533h-17.067v-51.2h17.067V92.867z M186.733,16.067h136.533
			c5.12,0,8.533,3.413,8.533,8.533s-3.413,8.533-8.533,8.533H186.733c-5.12,0-8.533-3.413-8.533-8.533
			S181.613,16.067,186.733,16.067z M195.267,50.2h119.467v17.067c-5.12,0-8.533,3.413-8.533,8.533v68.267
			c0,5.12,3.413,8.533,8.533,8.533v81.067c0,2.56,0.853,5.12,3.413,6.827c22.935,16.382,38.813,40.315,44.954,66.77
			c-4.251,3.059-7.761,6.118-10.82,9.177c-34.987,32.427-84.48,6.827-116.907-25.6c-18.769-15.988-42.634-25.745-67.444-27.43
			c6.739-8.628,14.767-16.376,23.924-22.917c1.707-1.707,3.413-4.267,3.413-6.827V152.6c5.12,0,8.533-3.413,8.533-8.533V75.8
			c0-5.12-3.413-8.533-8.533-8.533V50.2z M169.667,84.333h17.067v51.2h-17.067V127V92.867V84.333z M152.6,101.4v17.067h-42.667
			V101.4H152.6z M41.667,41.667h42.667v25.6H41.667V41.667z M476.867,493.933H309.613l-14.507-14.507
			c-1.707-1.707-3.413-2.56-5.973-2.56H229.4c-2.56,0-4.267,0.853-5.973,2.56l-14.507,14.507H33.133
			c-9.387,0-17.067-7.68-17.067-17.067s7.68-17.067,17.067-17.067h59.733h324.267h59.733c9.387,0,17.067,7.68,17.067,17.067
			S486.253,493.933,476.867,493.933z"/>
	</g>
</g>
<g>
</g>
<g>
</g>
<g>
</g>
<g>
</g>
<g>
</g>
<g>
</g>
<g>
</g>
<g>
</g>
<g>
</g>
<g>
</g>
<g>
</g>
<g>
</g>
<g>
</g>
<g>
</g>
<g>
</g>
</svg>
