<?xml version="1.0" encoding="iso-8859-1"?>
<!-- Generator: Adobe Illustrator 19.0.0, SVG Export Plug-In . SVG Version: 6.00 Build 0)  -->
<svg version="1.1" id="Layer_1" xmlns="http://www.w3.org/2000/svg" xmlns:xlink="http://www.w3.org/1999/xlink" x="0px" y="0px"
	 viewBox="0 0 512 512" style="enable-background:new 0 0 512 512;" xml:space="preserve">
<g transform="translate(1 1)">
	<g>
		<g>
			<path d="M237.507,169.667h34.133c5.12,0,8.533-3.413,8.533-8.533s-3.413-8.533-8.533-8.533h-34.133
				c-5.12,0-8.533,3.413-8.533,8.533S232.387,169.667,237.507,169.667z"/>
			<path d="M237.507,203.8h17.067c5.12,0,8.533-3.413,8.533-8.533s-3.413-8.533-8.533-8.533h-17.067
				c-5.12,0-8.533,3.413-8.533,8.533S232.387,203.8,237.507,203.8z"/>
			<path d="M237.507,237.933h34.133c5.12,0,8.533-3.413,8.533-8.533s-3.413-8.533-8.533-8.533h-34.133
				c-5.12,0-8.533,3.413-8.533,8.533S232.387,237.933,237.507,237.933z"/>
			<path d="M237.507,272.067h17.067c5.12,0,8.533-3.413,8.533-8.533S259.693,255,254.573,255h-17.067
				c-5.12,0-8.533,3.413-8.533,8.533S232.387,272.067,237.507,272.067z"/>
			<path d="M382.246,373.857c-3.135-44.141-28.809-83.588-67.939-104.35V66.179c14.679-3.814,25.6-17.216,25.6-33.046
				C339.907,14.36,324.547-1,305.773-1h-102.4C184.6-1,169.24,14.36,169.24,33.133c0,15.829,10.921,29.232,25.6,33.046v203.328
				c-40.787,21.642-66.946,64.396-68.206,110.043c-0.036,1.15-0.061,2.3-0.061,3.45c0,70.827,57.173,128,128,128
				c2.213,0,4.413-0.056,6.599-0.166c67.746-3.42,121.428-59.22,122.255-127.834c0-0.853,0-2.56,0-3.413v-1.707
				C383.427,376.479,382.99,375.081,382.246,373.857z M186.307,33.133c0-9.387,7.68-17.067,17.067-17.067h102.4
				c9.387,0,17.067,7.68,17.067,17.067c0,9.387-7.68,17.067-17.067,17.067h-102.4C193.987,50.2,186.307,42.52,186.307,33.133z
				 M206.787,283.16c3.413-1.707,5.12-4.267,5.12-7.68V67.267h85.333V275.48c0,3.413,2.56,5.973,5.12,7.68
				c33.601,15.681,56.748,47.696,62.009,84.039c-23.859-3.889-45.506,1.598-62.862,17.508l-0.853,0.853
				c-34.987,32.427-84.48,6.827-116.907-25.6c-9.106-8.406-19.938-15.082-31.55-19.565
				C162.556,315.567,181.77,294.834,206.787,283.16z M143.64,383c0-7.305,0.742-14.506,2.138-21.522
				c0.372-1.647,0.783-3.29,1.276-4.932c9.387,3.413,17.067,9.387,24.747,15.36c36.693,36.693,95.573,65.707,139.093,26.453
				l0.853-0.853c14.502-13.649,32.415-17.917,53.739-12.805c-0.134,8.984-1.318,17.704-3.451,26.04
				c-0.007,0.029-0.015,0.058-0.022,0.086c-0.202,0.786-0.414,1.568-0.632,2.347c-0.052,0.183-0.103,0.366-0.156,0.549
				c-0.175,0.612-0.357,1.221-0.542,1.828c-0.109,0.355-0.218,0.709-0.33,1.062c-0.134,0.424-0.271,0.846-0.41,1.268
				c-0.177,0.537-0.357,1.073-0.543,1.606c-0.078,0.225-0.157,0.449-0.236,0.673c-0.259,0.73-0.523,1.458-0.797,2.18
				c-0.006,0.017-0.013,0.034-0.02,0.052c-15.576,41.026-54.833,70.346-100.935,71.505c-0.943,0.023-1.89,0.036-2.839,0.036
				C193.133,493.933,143.64,444.44,143.64,383z"/>
		</g>
	</g>
</g>
<g>
</g>
<g>
</g>
<g>
</g>
<g>
</g>
<g>
</g>
<g>
</g>
<g>
</g>
<g>
</g>
<g>
</g>
<g>
</g>
<g>
</g>
<g>
</g>
<g>
</g>
<g>
</g>
<g>
</g>
</svg>
