<?xml version="1.0" encoding="iso-8859-1"?>
<!-- Generator: Adobe Illustrator 19.0.0, SVG Export Plug-In . SVG Version: 6.00 Build 0)  -->
<svg version="1.1" id="Layer_1" xmlns="http://www.w3.org/2000/svg" xmlns:xlink="http://www.w3.org/1999/xlink" x="0px" y="0px"
	 viewBox="0 0 512 512" style="enable-background:new 0 0 512 512;" xml:space="preserve">
<g transform="translate(1 1)">
	<g>
		<path d="M485.4,443.821v-293.19c1.545-0.805,2.968-1.853,4.267-3.151c2.56-3.413,4.267-7.68,4.267-11.947V85.187
			c0-4.267-1.707-9.387-4.267-12.8c-1.298-1.298-2.722-2.346-4.267-3.151V33.133c0-5.12-3.413-8.533-8.533-8.533h-59.733
			c-5.12,0-8.533,3.413-8.533,8.533v36.454c-5.086,2.963-8.533,8.466-8.533,14.746h-85.333V75.8c0-5.12-3.413-8.533-8.533-8.533
			h-17.067V48.824C299.237,45.433,306.2,36.091,306.2,24.6c0-14.507-11.093-25.6-25.6-25.6H161.133c-14.507,0-25.6,11.093-25.6,25.6
			c0,11.491,6.963,20.833,17.067,24.224v18.443h-17.067c-5.12,0-8.533,3.413-8.533,8.533v68.267c0,5.12,3.413,8.533,8.533,8.533
			H152.6v8.533c-38.448,20.597-64.728,56.114-73.537,97.207c-0.429,0.746-0.703,1.62-0.703,2.633
			c-1.378,7.58-2.19,15.16-2.455,22.74c-0.009,0.258-0.018,0.517-0.026,0.775c-0.046,1.548-0.078,3.096-0.078,4.644
			c0,80.213,64.853,145.067,145.067,145.067c1.253,0,2.503-0.016,3.749-0.047c78.476-1.983,141.318-66.059,141.318-145.019
			c0-53.76-29.013-102.4-76.8-128V152.6H306.2c5.12,0,8.533-3.413,8.533-8.533v-8.533h85.333c0,6.28,3.447,11.782,8.533,14.746
			v292.454H33.133C14.36,442.733-1,458.093-1,476.867C-1,495.64,14.36,511,33.133,511h179.2c2.56,0,4.267-0.853,5.973-2.56
			l14.507-14.507h52.907l14.507,14.507c1.707,1.707,3.413,2.56,5.973,2.56h170.667C495.64,511,511,495.64,511,476.867
			C511,461.037,500.079,447.635,485.4,443.821z M417.133,127V92.867v-8.533h59.733v51.2h-59.733V127z M425.667,41.667h42.667v25.6
			h-42.667V41.667z M161.133,16.067H280.6c5.12,0,8.533,3.413,8.533,8.533s-3.413,8.533-8.533,8.533H161.133
			c-5.12,0-8.533-3.413-8.533-8.533S156.013,16.067,161.133,16.067z M144.067,84.333h17.067v51.2h-17.067V84.333z M92.867,289.133
			c0-0.936,0.029-1.865,0.048-2.797c0.179-5.653,0.859-11.393,1.563-17.686c0.046-0.292,0.09-0.585,0.138-0.876
			c33.278-20.451,81.037-16.177,111.744,10.265c36.693,37.547,96.427,66.56,139.947,25.6c0.853-0.853,0.853-0.853,1.707-1.707
			c-1.389,15.085-5.413,29.383-11.604,42.448c-16.999,35.581-49.933,62.019-89.637,70.142c-0.051,0.01-0.101,0.021-0.152,0.031
			c-0.941,0.191-1.886,0.371-2.835,0.541c-0.143,0.026-0.286,0.052-0.429,0.077c-0.857,0.151-1.718,0.292-2.581,0.426
			c-0.217,0.034-0.434,0.068-0.652,0.101c-0.795,0.119-1.593,0.229-2.393,0.334c-0.273,0.036-0.545,0.073-0.819,0.107
			c-0.75,0.093-1.502,0.177-2.256,0.257c-0.317,0.034-0.632,0.07-0.95,0.101c-0.719,0.071-1.441,0.132-2.163,0.191
			c-0.347,0.028-0.693,0.061-1.041,0.086c-0.711,0.053-1.424,0.094-2.138,0.135c-0.356,0.02-0.71,0.046-1.067,0.063
			c-0.745,0.037-1.494,0.061-2.242,0.085c-0.324,0.01-0.646,0.026-0.97,0.034c-1.069,0.026-2.142,0.041-3.218,0.041
			C150.04,417.133,92.867,359.96,92.867,289.133z M277.187,173.933c41.369,20.685,67.893,59.914,71.297,105.237
			c-5.264,3.932-9.978,7.524-14.124,11.669c-34.987,32.427-84.48,6.827-116.907-25.6c-32.025-27.658-79.563-34.811-117.212-19.377
			c10.927-30.832,33.496-56.525,64.305-71.93c3.413-1.707,5.12-4.267,5.12-7.68V152.6c5.12,0,8.533-3.413,8.533-8.533V75.8
			c0-5.12-3.413-8.533-8.533-8.533V50.2h102.4v17.067c-5.12,0-8.533,3.413-8.533,8.533v68.267c0,5.12,3.413,8.533,8.533,8.533
			v13.653C272.067,169.667,273.773,173.08,277.187,173.933z M297.667,135.533H280.6v-51.2h17.067v8.533V127V135.533z
			 M314.733,118.467V101.4h85.333v17.067H314.733z M425.667,152.6h42.667v290.133h-42.667V152.6z M476.867,493.933H309.613
			l-14.507-14.507c-1.707-1.707-3.413-2.56-5.973-2.56H229.4c-2.56,0-4.267,0.853-5.973,2.56l-14.507,14.507H33.133
			c-9.387,0-17.067-7.68-17.067-17.067s7.68-17.067,17.067-17.067h384h59.733c9.387,0,17.067,7.68,17.067,17.067
			S486.253,493.933,476.867,493.933z"/>
	</g>
</g>
<g>
</g>
<g>
</g>
<g>
</g>
<g>
</g>
<g>
</g>
<g>
</g>
<g>
</g>
<g>
</g>
<g>
</g>
<g>
</g>
<g>
</g>
<g>
</g>
<g>
</g>
<g>
</g>
<g>
</g>
</svg>
