<?xml version="1.0" encoding="iso-8859-1"?>
<!-- Generator: Adobe Illustrator 19.0.0, SVG Export Plug-In . SVG Version: 6.00 Build 0)  -->
<svg version="1.1" id="Layer_1" xmlns="http://www.w3.org/2000/svg" xmlns:xlink="http://www.w3.org/1999/xlink" x="0px" y="0px"
	 viewBox="0 0 512 512" style="enable-background:new 0 0 512 512;" xml:space="preserve">
<g transform="translate(1 1)">
	<g>
		<g>
			<path d="M84.426,331.8H46.88c-5.12,0-8.533,3.413-8.533,8.533c0,5.12,3.413,8.533,8.533,8.533h37.547
				c5.12,0,8.533-3.413,8.533-8.533C92.96,335.213,89.546,331.8,84.426,331.8z"/>
			<path d="M67.36,365.933H50.293c-5.12,0-8.533,3.413-8.533,8.533S45.173,383,50.293,383H67.36c5.12,0,8.533-3.413,8.533-8.533
				S72.48,365.933,67.36,365.933z"/>
			<path d="M152.693,195.267H118.56c-5.12,0-8.533,3.413-8.533,8.533c0,5.12,3.413,8.533,8.533,8.533h34.133
				c5.12,0,8.533-3.413,8.533-8.533C161.226,198.68,157.813,195.267,152.693,195.267z"/>
			<path d="M101.493,229.4H84.426c-5.12,0-8.533,3.413-8.533,8.533s3.413,8.533,8.533,8.533h17.067c5.12,0,8.533-3.413,8.533-8.533
				S106.613,229.4,101.493,229.4z"/>
			<path d="M92.96,263.533H58.826c-5.12,0-8.533,3.413-8.533,8.533c0,5.12,3.413,8.533,8.533,8.533H92.96
				c5.12,0,8.533-3.413,8.533-8.533C101.493,266.947,98.08,263.533,92.96,263.533z"/>
			<path d="M54.56,314.733h12.8c5.12,0,8.533-3.413,8.533-8.533s-3.413-8.533-8.533-8.533h-12.8c-5.12,0-8.533,3.413-8.533,8.533
				S49.44,314.733,54.56,314.733z"/>
			<path d="M499.146,398.36l-107.52-221.013V58.435c14.888-2.057,25.6-14.738,25.6-29.568C417.226,12.653,404.426-1,387.36-1
				H242.293c-16.213,0-29.867,13.653-29.867,29.867c0,14.768,11.328,27.407,25.6,29.544v25.922h-115.2
				c-16.213,0-29.867,13.653-29.867,29.867c0,14.768,11.328,27.407,25.6,29.544v22.509C52,193.56,7.626,259.267,7.626,331.8
				c0,98.987,80.213,179.2,179.2,179.2c53.082,0,100.757-23.074,133.567-59.733h147.179c11.093,0,22.187-5.973,28.16-17.067
				C503.413,423.107,504.266,409.453,499.146,398.36z M229.493,28.867c0-6.827,5.973-12.8,12.8-12.8H387.36
				c7.68,0,12.8,5.973,12.8,12.8c0,6.827-5.12,12.8-12.8,12.8h-4.267H246.56h-4.267C235.466,41.667,229.493,35.693,229.493,28.867z
				 M110.026,114.2c0-6.827,5.973-12.8,12.8-12.8H246.56h4.267c6.827,0,12.8,5.973,12.8,12.8s-5.973,12.8-12.8,12.8h-3.413h-0.853
				H127.093h-4.267C116,127,110.026,121.027,110.026,114.2z M186.826,493.933c-89.6,0-162.133-72.533-162.133-162.133
				c0-67.413,42.667-128.853,104.96-152.747c3.413-0.853,5.973-4.267,5.973-7.68v-27.307h102.4v27.307
				c0,2.518,0.896,4.438,2.328,5.942c0.849,1.243,2.061,2.195,3.645,2.591c21.668,8.199,40.824,20.719,56.641,36.352
				c30.061,29.908,48.318,71.444,48.319,115.539c0,0.001,0,0.002,0,0.003c0,1.291-0.019,2.578-0.049,3.863
				c-0.014,0.592-0.038,1.183-0.059,1.775c-0.022,0.654-0.044,1.308-0.074,1.96c-0.038,0.819-0.085,1.638-0.136,2.456
				c-0.022,0.368-0.045,0.735-0.07,1.102c-0.071,1.033-0.15,2.065-0.241,3.096c-0.005,0.061-0.011,0.122-0.016,0.183
				c-2.979,33.276-16.228,65.162-38.608,90.526c-0.438,0.657-0.818,1.371-1.115,2.126
				C278.888,472.64,235.365,493.933,186.826,493.933z M482.08,425.667c-3.413,5.12-9.387,8.533-15.36,8.533H333.901
				c10.856-15.565,19.302-32.933,24.803-51.568c0.047-0.159,0.095-0.318,0.142-0.477c0.263-0.902,0.519-1.807,0.769-2.714
				c0.095-0.346,0.188-0.693,0.281-1.04c0.23-0.857,0.459-1.715,0.677-2.577c0.067-0.264,0.128-0.529,0.193-0.793
				c0.383-1.546,0.745-3.1,1.087-4.661c0.116-0.528,0.234-1.056,0.345-1.585c0.15-0.714,0.293-1.431,0.434-2.148
				c0.117-0.594,0.231-1.188,0.342-1.784c0.129-0.69,0.257-1.379,0.378-2.072c0.126-0.723,0.242-1.447,0.36-2.172
				c0.154-0.951,0.3-1.903,0.439-2.859c0.118-0.816,0.236-1.632,0.343-2.451c0.079-0.604,0.152-1.211,0.225-1.817
				c0.092-0.763,0.18-1.527,0.262-2.292c0.062-0.575,0.124-1.149,0.18-1.726c0.1-1.022,0.19-2.045,0.272-3.069
				c0.033-0.404,0.067-0.808,0.097-1.213c0.09-1.217,0.166-2.437,0.232-3.657c0.024-0.454,0.044-0.909,0.065-1.363
				c0.045-0.978,0.082-1.958,0.112-2.938c0.013-0.428,0.027-0.856,0.036-1.284c0.031-1.378,0.052-2.758,0.052-4.139
				c0-72.533-44.373-138.24-110.933-165.547v-22.187c14.507-2.56,25.6-14.507,25.6-29.867s-11.093-27.307-25.6-29.867v-25.6H374.56
				v121.173c0,0.853,0,2.56,0.853,3.413l108.373,222.72C486.346,412.013,486.346,419.693,482.08,425.667z"/>
		</g>
	</g>
</g>
<g>
</g>
<g>
</g>
<g>
</g>
<g>
</g>
<g>
</g>
<g>
</g>
<g>
</g>
<g>
</g>
<g>
</g>
<g>
</g>
<g>
</g>
<g>
</g>
<g>
</g>
<g>
</g>
<g>
</g>
</svg>
