<?xml version="1.0" encoding="iso-8859-1"?>
<!-- Generator: Adobe Illustrator 19.0.0, SVG Export Plug-In . SVG Version: 6.00 Build 0)  -->
<svg version="1.1" id="Layer_1" xmlns="http://www.w3.org/2000/svg" xmlns:xlink="http://www.w3.org/1999/xlink" x="0px" y="0px"
	 viewBox="0 0 512 512" style="enable-background:new 0 0 512 512;" xml:space="preserve">
<g transform="translate(1 1)">
	<g>
		<path d="M383,374.467c0,28.16,23.04,51.2,51.2,51.2c28.16,0,51.2-23.04,51.2-51.2v-34.133V280.6h17.067
			c5.12,0,8.533-3.413,8.533-8.533V203.8c0-5.12-3.413-8.533-8.533-8.533H485.4V178.2h8.533c5.12,0,8.533-3.413,8.533-8.533v-51.2
			c0-5.12-3.413-8.533-8.533-8.533H374.467c-5.12,0-8.533,3.413-8.533,8.533v51.2c0,5.12,3.413,8.533,8.533,8.533H383v17.067
			h-17.067c-5.12,0-8.533,3.413-8.533,8.533v8.533h-51.2c0-6.28-3.447-11.782-8.533-14.746v-30.242
			c5.086-2.963,8.533-8.466,8.533-14.746v-51.2c0-6.28-3.447-11.782-8.533-14.746V58.733c0-5.12-3.413-8.533-8.533-8.533H229.4
			c-5.12,0-8.533,3.413-8.533,8.533v27.569c-1.545,0.804-2.968,1.853-4.267,3.151c-2.56,3.413-4.267,7.68-4.267,11.947H152.6v-8.533
			c0-5.12-3.413-8.533-8.533-8.533H127V67.267h8.533c5.12,0,8.533-3.413,8.533-8.533v-51.2c0-5.12-3.413-8.533-8.533-8.533H16.067
			c-5.12,0-8.533,3.413-8.533,8.533v51.2c0,5.12,3.413,8.533,8.533,8.533H24.6v17.067H7.533C2.413,84.333-1,87.747-1,92.867v68.267
			c0,5.12,3.413,8.533,8.533,8.533H24.6v25.6v68.267c0,28.16,23.04,51.2,51.2,51.2c28.16,0,51.2-23.04,51.2-51.2v-68.267v-25.6
			h17.067c5.12,0,8.533-3.413,8.533-8.533V152.6h59.774c0.205,4.082,1.833,8.756,4.226,11.947c1.298,1.298,2.722,2.346,4.267,3.151
			v29.538c-1.545,0.804-2.968,1.853-4.267,3.151c-2.56,3.413-4.267,7.68-4.267,11.947v50.347c0,4.267,1.707,9.387,4.267,12.8
			c0.805,0.805,1.661,1.506,2.56,2.121v165.132H33.133C14.36,442.733-1,458.093-1,476.867C-1,495.64,14.36,511,33.133,511h179.2
			c2.56,0,4.267-0.853,5.973-2.56l14.507-14.507h52.907l14.507,14.507c1.707,1.707,3.413,2.56,5.973,2.56h170.667
			C495.64,511,511,495.64,511,476.867c0-18.773-15.36-34.133-34.133-34.133H295.96V279.157c6.012-2.648,10.24-8.662,10.24-15.623
			h51.2v8.533c0,5.12,3.413,8.533,8.533,8.533H383v59.733V374.467z M468.333,374.467c0,18.773-15.36,34.133-34.133,34.133
			c-18.773,0-34.133-15.36-34.133-34.133v-25.6h68.267V374.467z M493.933,263.533h-17.067v-51.2h17.067V263.533z M383,127h102.4
			v34.133h-8.533h-85.333H383V127z M229.4,212.333h59.733v8.533V255v8.533h-1.707H229.4V212.333z M229.4,144.067v-34.133V101.4
			h59.733v51.2H229.4V144.067z M237.933,169.667H280.6v25.6h-42.667V169.667z M237.933,67.267H280.6v17.067h-42.667V67.267z
			 M24.6,16.067H127V50.2h-8.533H33.133H24.6V16.067z M16.067,101.4h17.067v51.2H16.067V101.4z M109.933,263.533
			c0,18.773-15.36,34.133-34.133,34.133c-18.773,0-34.133-15.36-34.133-34.133V203.8h68.267V263.533z M109.933,186.733H41.667
			v-17.067c5.12,0,8.533-3.413,8.533-8.533V92.867c0-5.12-3.413-8.533-8.533-8.533V67.267h68.267v17.067
			c-5.12,0-8.533,3.413-8.533,8.533v68.267c0,5.12,3.413,8.533,8.533,8.533V186.733z M135.533,152.6h-17.067v-51.2h17.067v8.533
			v34.133V152.6z M152.6,118.467h59.733v17.067H152.6V118.467z M493.933,476.867c0,9.387-7.68,17.067-17.067,17.067H309.613
			l-14.507-14.507c-1.707-1.707-3.413-2.56-5.973-2.56H229.4c-2.56,0-4.267,0.853-5.973,2.56l-14.507,14.507H33.133
			c-9.387,0-17.067-7.68-17.067-17.067s7.68-17.067,17.067-17.067h194.56h59.733h189.44
			C486.253,459.8,493.933,467.48,493.933,476.867z M236.227,442.733V280.6h42.667v162.133H236.227z M306.2,246.467V229.4h51.2
			v17.067H306.2z M374.467,255v-34.133v-8.533h17.067v51.2h-17.067V255z M400.067,195.267V178.2h68.267v17.067
			c-5.12,0-8.533,3.413-8.533,8.533v68.267c0,5.12,3.413,8.533,8.533,8.533v51.2h-68.267v-51.2c5.12,0,8.533-3.413,8.533-8.533
			V203.8C408.6,198.68,405.187,195.267,400.067,195.267z"/>
	</g>
</g>
<g>
</g>
<g>
</g>
<g>
</g>
<g>
</g>
<g>
</g>
<g>
</g>
<g>
</g>
<g>
</g>
<g>
</g>
<g>
</g>
<g>
</g>
<g>
</g>
<g>
</g>
<g>
</g>
<g>
</g>
</svg>
