<?xml version="1.0" encoding="iso-8859-1"?>
<!-- Generator: Adobe Illustrator 19.0.0, SVG Export Plug-In . SVG Version: 6.00 Build 0)  -->
<svg version="1.1" id="Layer_1" xmlns="http://www.w3.org/2000/svg" xmlns:xlink="http://www.w3.org/1999/xlink" x="0px" y="0px"
	 viewBox="0 0 512 512" style="enable-background:new 0 0 512 512;" xml:space="preserve">
<g transform="translate(1 1)">
	<g>
		<g>
			<path d="M502.467,378.733H485.4V90.307C485.4,74.947,474.307,63,459.8,63H50.2c-13.653,0-25.6,11.947-25.6,27.307v288.427H7.533
				c-5.12,0-8.533,3.413-8.533,8.533v30.72C-1,434.2,11.8,447,28.013,447h453.973C498.2,447,511,434.2,511,417.987v-30.72
				C511,382.147,507.587,378.733,502.467,378.733z M41.667,90.307c0-5.973,4.267-10.24,8.533-10.24h409.6
				c4.267,0,8.533,4.267,8.533,10.24v288.427h-153.6h0c-2.56,0-4.267,0.853-5.973,2.56L294.253,395.8h-78.507l-14.507-14.507
				c-1.707-1.707-3.413-2.56-5.973-2.56h-153.6V90.307z M493.933,417.987c0,6.827-5.12,11.947-11.947,11.947H28.013
				c-6.827,0-11.947-5.12-11.947-11.947V395.8h17.067h158.72l14.507,14.507c1.707,1.707,3.413,2.56,5.973,2.56h85.333
				c2.56,0,4.267-0.853,5.973-2.56l14.507-14.507h158.72h17.067V417.987z"/>
			<path d="M67.267,114.2h68.267c5.12,0,8.533-3.413,8.533-8.533c0-5.12-3.413-8.533-8.533-8.533H67.267
				c-5.12,0-8.533,3.413-8.533,8.533C58.733,110.787,62.147,114.2,67.267,114.2z"/>
			<path d="M109.933,131.267H67.267c-5.12,0-8.533,3.413-8.533,8.533s3.413,8.533,8.533,8.533h42.667
				c5.12,0,8.533-3.413,8.533-8.533S115.053,131.267,109.933,131.267z"/>
			<path d="M229.4,199.533c5.12,0,8.533-3.413,8.533-8.533v-25.6l20.48-9.387c4.267-1.707,5.973-6.827,4.267-11.093
				s-6.827-5.973-11.093-4.267l-25.6,11.093c-3.413,0.853-5.12,4.267-5.12,7.68V191C220.867,196.12,224.28,199.533,229.4,199.533z"
				/>
			<path d="M199.533,352.28L255,320.585l55.467,31.695c1.707,0.853,2.56,0.853,4.267,0.853s2.56,0,4.267-0.853l59.733-34.133
				c2.56-1.707,4.267-4.267,4.267-7.68V242.2c0-3.413-1.707-5.973-4.267-7.68l-55.467-31.695V139.8c0-3.413-1.707-5.973-4.267-7.68
				l-59.733-34.133c-2.56-1.707-5.973-1.707-8.533,0L191,132.12c-2.56,1.707-4.267,4.267-4.267,7.68v63.025l-55.467,31.695
				c-2.56,1.707-4.267,4.267-4.267,7.68v68.267c0,3.413,1.707,5.973,4.267,7.68L191,352.28c1.707,0.853,2.56,0.853,4.267,0.853
				S197.827,353.133,199.533,352.28z M365.933,305.347l-51.2,29.013l-51.2-29.013v-57.905l25.6-14.629l25.6-14.507l51.2,29.013
				V305.347z M255,115.907l51.2,29.013v57.905l-25.594,14.625L255,231.96l-25.606-14.51L203.8,202.825V144.92L255,115.907z
				 M144.067,305.347V247.32l51.2-29.013l25.6,14.507l25.6,14.629v57.905l-51.2,29.013L144.067,305.347z"/>
			<path d="M202.947,247.32c-1.707-4.267-6.827-5.973-11.093-4.267l-25.6,11.093c-3.413,0.853-5.12,4.267-5.12,7.68V293.4
				c0,5.12,3.413,8.533,8.533,8.533s8.533-3.413,8.533-8.533v-25.6l20.48-9.387C202.947,256.707,204.653,251.587,202.947,247.32z"/>
			<path d="M311.32,243.053l-25.6,11.093c-3.413,0.853-5.12,4.267-5.12,7.68V293.4c0,5.12,3.413,8.533,8.533,8.533
				s8.533-3.413,8.533-8.533v-25.6l20.48-9.387c4.267-1.707,5.973-6.827,4.267-11.093S315.587,241.347,311.32,243.053z"/>
		</g>
	</g>
</g>
<g>
</g>
<g>
</g>
<g>
</g>
<g>
</g>
<g>
</g>
<g>
</g>
<g>
</g>
<g>
</g>
<g>
</g>
<g>
</g>
<g>
</g>
<g>
</g>
<g>
</g>
<g>
</g>
<g>
</g>
</svg>
