<?xml version="1.0" encoding="iso-8859-1"?>
<!-- Generator: Adobe Illustrator 19.0.0, SVG Export Plug-In . SVG Version: 6.00 Build 0)  -->
<svg version="1.1" id="Layer_1" xmlns="http://www.w3.org/2000/svg" xmlns:xlink="http://www.w3.org/1999/xlink" x="0px" y="0px"
	 viewBox="0 0 512 512" style="enable-background:new 0 0 512 512;" xml:space="preserve">
<g transform="translate(1 1)">
	<g>
		<g>
			<path d="M219.07,133.737c-94.316,0-170.667,76.351-170.667,170.667S124.754,475.07,219.07,475.07s170.667-76.351,170.667-170.667
				S313.386,133.737,219.07,133.737z M219.07,457.105c-84.435,0-152.702-68.267-152.702-152.702s68.267-152.702,152.702-152.702
				s152.702,68.267,152.702,152.702S303.505,457.105,219.07,457.105z"/>
			<path d="M488.544-1H344.825c-5.389,0-8.982,3.593-8.982,8.982v35.93c0,5.389,3.593,8.982,8.982,8.982h61.081l-77.249,76.351
				c-32.337-20.66-70.063-31.439-109.586-31.439c-114.077,0-206.596,92.519-206.596,206.596S104.993,511,219.07,511
				s206.596-92.519,206.596-207.495c0-52.098-18.863-101.502-54.793-140.126l72.758-72.758v61.081c0,5.389,3.593,8.982,8.982,8.982
				h35.93c5.389,0,8.982-3.593,8.982-8.982V7.982C497.526,2.593,493.933-1,488.544-1z M479.561,142.719h-17.965V69.063
				c0-3.593-1.797-6.288-5.39-8.084c-3.593-1.797-7.186-0.898-9.881,1.797l-94.316,95.214c-1.797,1.797-2.695,3.593-2.695,6.288
				c0,2.695,0.898,4.491,2.695,6.288c35.93,35.032,55.691,83.537,55.691,133.839c0,104.196-84.435,188.632-188.632,188.632
				S30.439,408.6,30.439,304.404s84.435-188.632,188.632-188.632c37.726,0,74.554,11.677,105.993,32.337
				c3.593,2.695,8.982,1.797,11.677-0.898l97.011-97.01c2.695-2.695,3.593-6.288,1.796-9.881c-0.898-3.593-4.491-5.389-8.084-5.389
				h-73.656V16.965h125.754V142.719z"/>
		</g>
	</g>
</g>
<g>
</g>
<g>
</g>
<g>
</g>
<g>
</g>
<g>
</g>
<g>
</g>
<g>
</g>
<g>
</g>
<g>
</g>
<g>
</g>
<g>
</g>
<g>
</g>
<g>
</g>
<g>
</g>
<g>
</g>
</svg>
