<?xml version="1.0" encoding="iso-8859-1"?>
<!-- Generator: Adobe Illustrator 19.0.0, SVG Export Plug-In . SVG Version: 6.00 Build 0)  -->
<svg version="1.1" id="Layer_1" xmlns="http://www.w3.org/2000/svg" xmlns:xlink="http://www.w3.org/1999/xlink" x="0px" y="0px"
	 viewBox="0 0 512.099 512.099" style="enable-background:new 0 0 512.099 512.099;" xml:space="preserve">
<g transform="translate(1 1)">
	<g>
		<g>
			<path d="M485.45,459.899H372.736l-14.317-48.032c33.306-35.467,51.938-81.247,51.938-129.461
				c0-45.138-16.152-87.724-45.058-121.824c-2.205-14.622-9.613-27.403-20.305-36.461l13.31-20.915
				c1.707-2.56,1.707-4.267,1.707-6.827c0-1.707-1.707-4.267-3.413-5.12l-6.818-4.6l5.168-8.076
				c1.939,0.465,3.927,0.729,5.916,0.729c1.707,0,3.413-0.853,5.12-0.853c6.827-1.707,12.8-5.12,16.213-11.093
				c4.267-5.12,5.973-11.947,4.267-18.773s-5.12-12.8-11.093-16.213L332.703,3.366c-11.947-7.68-28.16-5.12-35.84,6.827
				c-4.267,5.973-5.12,12.8-4.267,19.627c0.974,3.896,2.507,7.234,4.751,10.177l-5.045,7.884l-6.532-4.407
				c-4.267-2.56-9.387-1.707-11.947,2.56l-98.317,145.809c-2.116,1.619-3.979,3.76-4.073,5.916
				c-0.279,0.686-0.388,1.428-0.295,2.258l-4.835,35.457l-17.067,25.6c-1.707,1.707-2.56,3.413-1.707,5.973
				c0,1.707,1.707,4.267,3.413,5.12l0.783,0.532l-14.436,21.654c-1.707,1.707-2.56,3.413-1.707,5.973
				c0,1.707,1.707,4.267,3.413,5.12l28.16,18.773c1.707,0.853,3.413,1.707,5.12,1.707c0.853,0,0.853,0,2.56,0.853
				c1.707,0,4.267-1.707,5.12-3.413l14.51-21.764c1.421,0.691,2.843,1.284,4.264,1.284c0,0,0.853,0,2.56,0s4.267-1.707,5.12-3.413
				l18.773-28.16c0.062-0.104,0.113-0.211,0.172-0.315l26.993-15.227c2.226-0.482,4.574-1.856,5.262-3.231l20.279-30.069
				c8.412,4.488,18.058,7.029,28.361,7.029c0.963,0,1.919-0.027,2.87-0.071c9.001,15.532,14.196,33.827,14.196,52.125
				c0,16.448-3.612,32.292-11.306,47.039c-13.611-8.751-29.747-13.76-46.72-13.76c-38.264,0-71.052,25.17-82.602,59.733H58.783
				c-5.12,0-8.533,3.413-8.533,8.533v34.133c0,5.12,3.413,8.533,8.533,8.533H178.25v34.133H24.65c-5.12,0-8.533,3.413-8.533,8.533
				v34.133c0,5.12,3.413,8.533,8.533,8.533h460.8c5.12,0,8.533-3.413,8.533-8.533v-34.133
				C493.983,463.313,490.57,459.899,485.45,459.899z M348.916,169.766c0,23.893-18.773,42.667-42.667,42.667
				c-9.23,0-17.688-2.81-24.603-7.626c-0.305-0.327-0.633-0.634-0.997-0.907c-7.566-5.82-12.745-13.23-15.277-21.685
				c-0.078-0.262-0.148-0.528-0.221-0.793c-0.118-0.423-0.23-0.849-0.335-1.277c-0.095-0.392-0.183-0.787-0.267-1.184
				c-0.07-0.327-0.135-0.655-0.197-0.984c-0.081-0.428-0.157-0.858-0.225-1.291c-0.052-0.335-0.098-0.672-0.142-1.009
				c-0.055-0.415-0.111-0.83-0.155-1.249c-0.044-0.423-0.075-0.849-0.107-1.276c-0.026-0.34-0.057-0.678-0.075-1.02
				c-0.04-0.783-0.065-1.571-0.065-2.365c0-23.893,18.773-42.667,42.667-42.667c0.533,0,1.061,0.02,1.589,0.039
				c7.146,0.325,14.242,2.815,20.597,6.788c0.904,0.542,1.846,0.883,2.794,1.067C342,142.671,348.916,155.272,348.916,169.766z
				 M311.37,19.579c1.707-2.56,4.267-3.413,6.827-3.413c1.707,0,3.413,0.853,5.12,1.707l42.667,29.013
				c1.707,0.853,2.56,2.56,3.413,5.12c0,1.707-0.853,4.267-1.707,5.973c-1.707,1.707-3.413,2.56-5.973,3.413
				c-1.707,0.853-4.267,0-5.973-0.853l-42.667-29.013c-1.707-0.853-3.413-2.56-3.413-5.12S309.663,21.286,311.37,19.579z
				 M310.984,50.993l28.009,19.046l-3.73,6.714l-14.08-9.387l-14.034-9.469L310.984,50.993z M170.57,305.446l-14.507-9.387
				l9.172-14.175l14.292,9.719L170.57,305.446z M196.17,281.553l-28.16-18.773l8.957-13.843l27.991,19.034L196.17,281.553z
				 M217.557,255.921l-5.601-3.809l-27.733-19.2l2.513-18.425l23.514,15.865l23.467,16.214L217.557,255.921z M248.644,234.842
				l-56.502-38.122l90.215-133.62l56.32,38.4l-9.063,13.183c-7.157-2.997-15.047-4.649-23.363-4.649
				c-0.145,0-0.287,0.01-0.431,0.011c-0.142-0.001-0.28-0.011-0.422-0.011c-33.28,0-59.733,26.453-59.733,59.733
				c0,16.213,6.827,31.573,17.92,42.667L248.644,234.842z M363.509,186.971c17.866,28.128,28.074,60.503,28.074,93.729
				c0,39.951-14.398,78.206-39.812,108.866l-3.708-12.439c-4.267-15.36-11.947-28.16-23.04-38.4
				c10.24-17.92,15.36-37.547,15.36-58.88c0-18.546-5.003-37.088-13.351-53.989C344.613,219.442,358.175,205.068,363.509,186.971z
				 M67.316,408.699v-17.067h111.546c-0.07,0.584-0.136,1.17-0.194,1.757c-0.413,2.236-0.419,4.767-0.419,6.776v1.707v6.827H67.316z
				 M195.316,417.233v-15.36c0-3.158,0.234-6.264,0.647-9.315c0.427-2.44,1.064-4.775,1.913-6.898
				c0.354-1.061,0.401-2.122,0.229-3.183c8.493-29.081,35.506-50.577,67.185-50.577c15.471,0,30.072,5.415,41.85,14.492
				c0.46,0.647,1.017,1.232,1.67,1.721c11.093,8.533,18.773,20.48,23.04,34.133l23.04,77.653H195.316V417.233z M476.916,494.033
				H33.183v-17.067h153.6h179.2h110.933V494.033z"/>
			<path d="M263.583,348.966c-28.16,0-51.2,23.04-51.2,51.2c0,28.16,23.04,51.2,51.2,51.2s51.2-23.04,51.2-51.2
				C314.783,372.006,291.743,348.966,263.583,348.966z M263.583,434.299c-18.773,0-34.133-15.36-34.133-34.133
				c0-18.773,15.36-34.133,34.133-34.133s34.133,15.36,34.133,34.133C297.716,418.939,282.356,434.299,263.583,434.299z"/>
			<path d="M329.29,146.726c-3.413-3.413-8.533-3.413-11.947,0l-11.093,11.093l-11.093-11.093c-3.413-3.413-8.533-3.413-11.947,0
				s-3.413,8.533,0,11.947l11.093,11.093l-11.093,11.093c-3.413,3.413-3.413,8.533,0,11.947c1.707,1.707,3.413,2.56,5.973,2.56
				c2.56,0,4.267-0.853,5.973-2.56l11.093-11.093l11.093,11.093c1.707,1.707,3.413,2.56,5.973,2.56s4.267-0.853,5.973-2.56
				c3.413-3.413,3.413-8.533,0-11.947l-11.093-11.093l11.093-11.093C332.703,155.259,332.703,150.139,329.29,146.726z"/>
			<path d="M281.503,382.246c-3.413-3.413-8.533-3.413-11.947,0l-5.973,5.973l-5.973-5.973c-3.413-3.413-8.533-3.413-11.947,0
				c-3.413,3.413-3.413,8.533,0,11.947l5.973,5.973l-5.973,5.973c-3.413,3.413-3.413,8.533,0,11.947
				c1.707,1.707,3.413,2.56,5.973,2.56c1.707,0,4.267-0.853,5.973-2.56l5.973-5.973l5.973,5.973c1.707,1.707,3.413,2.56,5.973,2.56
				s4.267-0.853,5.973-2.56c3.413-3.413,3.413-8.533,0-11.947l-5.973-5.973l5.973-5.973
				C284.916,390.779,284.916,385.659,281.503,382.246z"/>
		</g>
	</g>
</g>
<g>
</g>
<g>
</g>
<g>
</g>
<g>
</g>
<g>
</g>
<g>
</g>
<g>
</g>
<g>
</g>
<g>
</g>
<g>
</g>
<g>
</g>
<g>
</g>
<g>
</g>
<g>
</g>
<g>
</g>
</svg>
