<?xml version="1.0" encoding="iso-8859-1"?>
<!-- Generator: Adobe Illustrator 19.0.0, SVG Export Plug-In . SVG Version: 6.00 Build 0)  -->
<svg version="1.1" id="Layer_1" xmlns="http://www.w3.org/2000/svg" xmlns:xlink="http://www.w3.org/1999/xlink" x="0px" y="0px"
	 viewBox="0 0 512 512" style="enable-background:new 0 0 512 512;" xml:space="preserve">
<g transform="translate(1 1)">
	<g>
		<path d="M485.4,408.6h-25.6V134.708c19.681-3.86,34.133-20.878,34.133-41.841c0-23.893-18.773-42.667-42.667-42.667
			c-14.218,0-26.621,6.649-34.336,17.067H93.07C85.354,56.849,72.951,50.2,58.733,50.2c-23.893,0-42.667,18.773-42.667,42.667
			c0,20.963,14.452,37.981,34.133,41.841V408.6H24.6C10.093,408.6-1,419.693-1,434.2c0,14.507,11.093,25.6,25.6,25.6h460.8
			c14.507,0,25.6-11.093,25.6-25.6C511,419.693,499.907,408.6,485.4,408.6z M451.267,67.267c14.507,0,25.6,11.093,25.6,25.6
			s-11.093,25.6-25.6,25.6c-9.144,0-16.929-4.411-21.437-11.303c-0.199-0.519-0.435-1.026-0.75-1.497
			c-1.233-2.055-2.062-4.109-2.599-6.164c-0.216-0.858-0.393-1.734-0.525-2.629c-0.002-0.017-0.005-0.034-0.007-0.05
			c-0.058-0.403-0.107-0.81-0.148-1.22c-0.009-0.095-0.015-0.189-0.023-0.284c-0.03-0.345-0.057-0.691-0.075-1.041
			c-0.022-0.471-0.037-0.942-0.037-1.412s0.015-0.942,0.037-1.412c0.018-0.349,0.045-0.696,0.075-1.041
			c0.008-0.095,0.014-0.189,0.023-0.284c0.041-0.41,0.089-0.817,0.148-1.22c0.002-0.017,0.005-0.034,0.007-0.05
			c0.131-0.895,0.308-1.772,0.525-2.63c0.537-2.054,1.366-4.108,2.598-6.163c0.314-0.472,0.551-0.978,0.75-1.497
			C434.338,71.677,442.122,67.267,451.267,67.267z M409.425,84.333c-0.017,0.085-0.029,0.172-0.045,0.258
			c-0.773,2.529-0.781,5.798-0.781,8.276c0,2.477,0.007,5.747,0.781,8.276c0.016,0.085,0.028,0.172,0.045,0.258h-65.909
			c-1.839-0.676-3.873-0.748-5.743,0H100.575c0.017-0.085,0.029-0.172,0.045-0.258c0.773-2.529,0.781-5.798,0.781-8.276
			c0-2.477-0.007-5.747-0.781-8.276c-0.016-0.085-0.028-0.172-0.045-0.258H409.425z M289.133,246.467
			c9.387,0,17.067,7.68,17.067,17.067c0,9.387-7.68,17.067-17.067,17.067s-17.067-7.68-17.067-17.067
			C272.067,254.147,279.747,246.467,289.133,246.467z M280.6,230.488c-6.701,1.741-12.613,5.486-17.067,10.543
			c-4.453-5.057-10.365-8.802-17.067-10.543V118.467H280.6V230.488z M135.533,246.467c9.387,0,17.067,7.68,17.067,17.067
			c0,9.387-7.68,17.067-17.067,17.067s-17.067-7.68-17.067-17.067C118.467,254.147,126.147,246.467,135.533,246.467z
			 M144.067,230.488V118.467H178.2v112.021c-6.701,1.741-12.613,5.486-17.067,10.543
			C156.68,235.974,150.768,232.229,144.067,230.488z M186.733,246.467c9.387,0,17.067,7.68,17.067,17.067
			c0,9.387-7.68,17.067-17.067,17.067s-17.067-7.68-17.067-17.067C169.667,254.147,177.347,246.467,186.733,246.467z
			 M195.267,230.488V118.467H229.4v112.021c-6.701,1.741-12.613,5.486-17.067,10.543
			C207.88,235.974,201.968,232.229,195.267,230.488z M237.933,246.467c9.387,0,17.067,7.68,17.067,17.067
			c0,9.387-7.68,17.067-17.067,17.067s-17.067-7.68-17.067-17.067C220.867,254.147,228.547,246.467,237.933,246.467z M33.133,92.867
			c0-14.507,11.093-25.6,25.6-25.6c9.144,0,16.929,4.41,21.437,11.303c0.199,0.519,0.435,1.026,0.75,1.497
			c1.233,2.054,2.062,4.108,2.598,6.163c0.217,0.858,0.393,1.735,0.525,2.63c0.002,0.017,0.005,0.034,0.007,0.05
			c0.058,0.403,0.107,0.81,0.148,1.22c0.009,0.095,0.015,0.189,0.023,0.284c0.03,0.345,0.057,0.691,0.075,1.041
			c0.022,0.471,0.037,0.942,0.037,1.412s-0.015,0.942-0.037,1.412c-0.018,0.349-0.045,0.696-0.075,1.041
			c-0.008,0.095-0.014,0.189-0.023,0.284c-0.041,0.41-0.089,0.817-0.148,1.22c-0.002,0.017-0.005,0.034-0.007,0.05
			c-0.131,0.895-0.308,1.771-0.525,2.629c-0.537,2.055-1.366,4.109-2.599,6.164c-0.314,0.472-0.551,0.978-0.75,1.497
			c-4.508,6.892-12.293,11.303-21.437,11.303C44.227,118.467,33.133,107.373,33.133,92.867z M67.267,134.708
			c10.597-2.078,19.678-7.97,25.803-16.241H127v112.021c-14.679,3.814-25.6,17.216-25.6,33.046c0,18.773,15.36,34.133,34.133,34.133
			c10.17,0,19.333-4.514,25.6-11.63c6.267,7.117,15.43,11.63,25.6,11.63s19.333-4.514,25.6-11.63
			c6.267,7.117,15.43,11.63,25.6,11.63s19.333-4.514,25.6-11.63c6.267,7.117,15.43,11.63,25.6,11.63
			c18.773,0,34.133-15.36,34.133-34.133c0-15.829-10.921-29.232-25.6-33.046V118.467h36.991l38.943,116.065
			c-9.703,6.036-16.201,16.795-16.201,29.001c0,18.773,15.36,34.133,34.133,34.133c18.773,0,34.133-15.36,34.133-34.133
			s-15.36-34.133-34.133-34.133c-0.746,0-1.485,0.033-2.219,0.081l-36.518-111.014h64.134c6.125,8.271,15.206,14.163,25.803,16.241
			V408.6H67.267V134.708z M384.346,248.085c0.308-0.096,0.616-0.253,0.925-0.405c0.297-0.118,0.597-0.23,0.902-0.332
			c0.08-0.014,0.16-0.028,0.24-0.028c0.114-0.046,0.222-0.103,0.334-0.154c1.521-0.448,3.125-0.7,4.786-0.7
			c9.387,0,17.067,7.68,17.067,17.067c0,9.387-7.68,17.067-17.067,17.067c-9.387,0-17.067-7.68-17.067-17.067
			C374.467,256.714,378.529,250.812,384.346,248.085z M485.4,442.733H24.6c-5.12,0-8.533-3.413-8.533-8.533s3.413-8.533,8.533-8.533
			h460.8c5.12,0,8.533,3.413,8.533,8.533S490.52,442.733,485.4,442.733z"/>
	</g>
</g>
<g>
</g>
<g>
</g>
<g>
</g>
<g>
</g>
<g>
</g>
<g>
</g>
<g>
</g>
<g>
</g>
<g>
</g>
<g>
</g>
<g>
</g>
<g>
</g>
<g>
</g>
<g>
</g>
<g>
</g>
</svg>
