<?xml version="1.0" encoding="iso-8859-1"?>
<!-- Generator: Adobe Illustrator 19.0.0, SVG Export Plug-In . SVG Version: 6.00 Build 0)  -->
<svg version="1.1" id="Layer_1" xmlns="http://www.w3.org/2000/svg" xmlns:xlink="http://www.w3.org/1999/xlink" x="0px" y="0px"
	 viewBox="0 0 512 512" style="enable-background:new 0 0 512 512;" xml:space="preserve">
<g transform="translate(1 1)">
	<g>
		<g>
			<path d="M229.4,201.24c5.12,0,8.533-4.267,8.533-8.533v-23.893l21.333-11.947c4.267-2.56,5.973-7.68,3.413-11.947
				s-7.68-5.973-11.947-3.413l-25.6,14.507c-2.56,1.707-4.267,4.267-4.267,7.68v29.013C220.867,197.827,224.28,201.24,229.4,201.24z
				"/>
			<path d="M127,246.467v68.267c0,3.413,1.707,5.973,4.267,7.68L191,356.547c1.707,0.853,2.56,0.853,4.267,0.853s2.56,0,4.267-0.853
				L255,324.852l55.467,31.695c1.707,0.853,2.56,0.853,4.267,0.853s2.56,0,4.267-0.853l59.733-34.133
				c2.56-1.707,4.267-4.267,4.267-7.68v-68.267c0-3.413-1.707-5.973-4.267-7.68l-55.467-31.695v-63.025
				c0-3.413-1.707-5.973-4.267-7.68l-59.733-34.133c-2.56-1.707-5.973-1.707-8.533,0L191,136.387
				c-2.56,1.707-4.267,4.267-4.267,7.68v63.025l-55.467,31.695C128.707,240.493,127,243.053,127,246.467z M365.933,309.613
				l-51.2,29.013l-51.2-29.013v-57.905l25.6-14.629l25.6-14.507l51.2,29.013V309.613z M255,120.173l51.2,29.013v57.905l-25.6,14.629
				L255,236.227l-25.6-14.507l-25.6-14.629v-57.905L255,120.173z M144.067,251.587l51.2-29.013l25.6,14.507l25.6,14.629v57.905
				l-51.2,29.013l-51.2-29.013V251.587z"/>
			<path d="M202.947,247.32c-2.56-4.267-7.68-5.973-11.947-3.413l-25.6,14.507c-2.56,1.707-4.267,4.267-4.267,7.68v29.013
				c0,5.12,3.413,8.533,8.533,8.533c5.12,0,8.533-4.267,8.533-8.533v-23.893l21.333-11.947
				C203.8,256.707,205.507,251.587,202.947,247.32z"/>
			<path d="M310.467,243.907l-25.6,14.507c-2.56,1.707-4.267,4.267-4.267,7.68v29.013c0,5.12,3.413,8.533,8.533,8.533
				c5.12,0,8.533-4.267,8.533-8.533v-23.893L319,259.267c4.267-2.56,5.973-7.68,3.413-11.947S314.733,241.347,310.467,243.907z"/>
			<path d="M425.667,16.067H331.8C331.8,6.68,324.12-1,314.733-1H195.267C185.88-1,178.2,6.68,178.2,16.067H84.333
				c-14.507,0-25.6,11.093-25.6,25.6V485.4c0,14.507,11.093,25.6,25.6,25.6h341.333c14.507,0,25.6-11.093,25.6-25.6V41.667
				C451.267,27.16,440.173,16.067,425.667,16.067z M195.267,84.333h119.467c9.387,0,17.067-7.68,17.067-17.067h68.267V459.8H109.933
				V67.267H178.2C178.2,76.653,185.88,84.333,195.267,84.333z M195.267,16.067h119.467V24.6v34.133v8.533H195.267v-8.533V24.6
				V16.067z M434.2,485.4c0,5.12-3.413,8.533-8.533,8.533H84.333c-5.12,0-8.533-3.413-8.533-8.533V41.667
				c0-5.12,3.413-8.533,8.533-8.533H178.2V50.2h-68.267c-9.387,0-17.067,7.68-17.067,17.067V459.8
				c0,9.387,7.68,17.067,17.067,17.067h290.133c9.387,0,17.067-7.68,17.067-17.067V67.267c0-9.387-7.68-17.067-17.067-17.067H331.8
				V33.133h93.867c5.12,0,8.533,3.413,8.533,8.533V485.4z"/>
			<path d="M374.467,383h-85.333c-5.12,0-8.533,3.413-8.533,8.533c0,5.12,3.413,8.533,8.533,8.533h85.333
				c5.12,0,8.533-3.413,8.533-8.533C383,386.413,379.587,383,374.467,383z"/>
			<path d="M374.467,417.133H306.2c-5.12,0-8.533,3.413-8.533,8.533s3.413,8.533,8.533,8.533h68.267c5.12,0,8.533-3.413,8.533-8.533
				S379.587,417.133,374.467,417.133z"/>
		</g>
	</g>
</g>
<g>
</g>
<g>
</g>
<g>
</g>
<g>
</g>
<g>
</g>
<g>
</g>
<g>
</g>
<g>
</g>
<g>
</g>
<g>
</g>
<g>
</g>
<g>
</g>
<g>
</g>
<g>
</g>
<g>
</g>
</svg>
