<?xml version="1.0" encoding="iso-8859-1"?>
<!-- Generator: Adobe Illustrator 19.0.0, SVG Export Plug-In . SVG Version: 6.00 Build 0)  -->
<svg version="1.1" id="Layer_1" xmlns="http://www.w3.org/2000/svg" xmlns:xlink="http://www.w3.org/1999/xlink" x="0px" y="0px"
	 viewBox="0 0 512 512" style="enable-background:new 0 0 512 512;" xml:space="preserve">
<g transform="translate(1 1)">
	<g>
		<g>
			<path d="M425.667,16.067H331.8C331.8,6.68,324.12-1,314.733-1H195.267C185.88-1,178.2,6.68,178.2,16.067H84.333
				c-14.507,0-25.6,11.093-25.6,25.6V485.4c0,14.507,11.093,25.6,25.6,25.6h341.333c14.507,0,25.6-11.093,25.6-25.6V41.667
				C451.267,27.16,440.173,16.067,425.667,16.067z M195.267,84.333h119.467c9.387,0,17.067-7.68,17.067-17.067h68.267V459.8H109.933
				V67.267H178.2C178.2,76.653,185.88,84.333,195.267,84.333z M195.267,16.067h119.467V24.6v34.133v8.533H195.267v-8.533V24.6
				V16.067z M434.2,485.4c0,5.12-3.413,8.533-8.533,8.533H84.333c-5.12,0-8.533-3.413-8.533-8.533V41.667
				c0-5.12,3.413-8.533,8.533-8.533H178.2V50.2h-68.267c-9.387,0-17.067,7.68-17.067,17.067V459.8
				c0,9.387,7.68,17.067,17.067,17.067h290.133c9.387,0,17.067-7.68,17.067-17.067V67.267c0-9.387-7.68-17.067-17.067-17.067H331.8
				V33.133h93.867c5.12,0,8.533,3.413,8.533,8.533V485.4z"/>
			<path d="M374.467,383h-85.333c-5.12,0-8.533,3.413-8.533,8.533c0,5.12,3.413,8.533,8.533,8.533h85.333
				c5.12,0,8.533-3.413,8.533-8.533C383,386.413,379.587,383,374.467,383z"/>
			<path d="M374.467,417.133H306.2c-5.12,0-8.533,3.413-8.533,8.533s3.413,8.533,8.533,8.533h68.267c5.12,0,8.533-3.413,8.533-8.533
				S379.587,417.133,374.467,417.133z"/>
			<path d="M144.067,144.067c0,18.773,15.36,34.133,34.133,34.133c0.523,0,1.042-0.016,1.559-0.04l31.348,99.27
				c-9.503,6.077-15.841,16.716-15.841,28.77c0,18.773,15.36,34.133,34.133,34.133c18.773,0,34.133-15.36,34.133-34.133
				c0-6.005-1.578-11.657-4.33-16.573l71.004-65.826c5.373,3.533,11.785,5.599,18.659,5.599c18.773,0,34.133-15.36,34.133-34.133
				c0-18.773-15.36-34.133-34.133-34.133c-11.998,0-22.595,6.28-28.686,15.709L212.325,144.41c0.001-0.115,0.009-0.228,0.009-0.344
				c0-18.773-15.36-34.133-34.133-34.133C159.427,109.933,144.067,125.293,144.067,144.067z M229.4,323.267
				c-9.387,0-17.067-7.68-17.067-17.067c0-7.261,4.604-13.483,11.03-15.937c0.295-0.078,0.599-0.17,0.916-0.276
				c0.124-0.062,0.247-0.11,0.371-0.163c1.51-0.441,3.101-0.69,4.749-0.69c4.417,0,8.443,1.715,11.482,4.494
				c0.453,0.454,0.892,0.947,1.318,1.48c0.185,0.185,0.371,0.356,0.557,0.521c2.314,2.914,3.709,6.585,3.709,10.572
				C246.467,315.587,238.787,323.267,229.4,323.267z M348.867,178.2c9.387,0,17.067,7.68,17.067,17.067s-7.68,17.067-17.067,17.067
				c-7.598,0-14.074-5.034-16.268-11.93c-0.013-0.043-0.029-0.085-0.041-0.128c-0.096-0.311-0.167-0.631-0.245-0.949
				c-0.065-0.272-0.139-0.543-0.192-0.818c-0.033-0.168-0.051-0.341-0.078-0.511c-0.06-0.366-0.122-0.732-0.158-1.1
				c-0.052-0.538-0.083-1.081-0.083-1.632c0-0.875,0.088-1.729,0.216-2.569c0.214-0.85,0.64-1.701,1.49-2.551
				c0.329-0.988,0.401-1.974,0.32-2.913C336.712,181.87,342.38,178.2,348.867,178.2z M314.733,193.56c0,0.853,0,0.853,0,1.707
				c0,0.732,0.031,1.457,0.077,2.178c0.001,0.018,0.003,0.037,0.004,0.055c0.331,5.062,1.772,9.834,4.091,14.067l-70.733,65.62
				c-5.383-3.076-10.773-4.753-16.781-5.057c-0.66-0.038-1.323-0.063-1.992-0.063c-0.853,0-0.853,0-1.707,0l-31.35-99.134
				c4.633-2.929,8.519-6.938,11.3-11.67L314.733,193.56z M195.267,144.067c0,0.881-0.088,1.74-0.219,2.585
				c-0.227,0.513-0.431,1.071-0.635,1.682c-1.707,5.12-5.973,9.387-11.093,11.093c-1.107,0.369-2.086,0.905-2.936,1.55
				c-0.717,0.093-1.443,0.157-2.184,0.157c-9.387,0-17.067-7.68-17.067-17.067c0-9.387,7.68-17.067,17.067-17.067
				S195.267,134.68,195.267,144.067z"/>
		</g>
	</g>
</g>
<g>
</g>
<g>
</g>
<g>
</g>
<g>
</g>
<g>
</g>
<g>
</g>
<g>
</g>
<g>
</g>
<g>
</g>
<g>
</g>
<g>
</g>
<g>
</g>
<g>
</g>
<g>
</g>
<g>
</g>
</svg>
