<?xml version="1.0" encoding="iso-8859-1"?>
<!-- Generator: Adobe Illustrator 19.0.0, SVG Export Plug-In . SVG Version: 6.00 Build 0)  -->
<svg version="1.1" id="Layer_1" xmlns="http://www.w3.org/2000/svg" xmlns:xlink="http://www.w3.org/1999/xlink" x="0px" y="0px"
	 viewBox="0 0 512 512" style="enable-background:new 0 0 512 512;" xml:space="preserve">
<g transform="translate(1)">
	<g>
		<g>
			<path d="M229.4,196.267c0-5.049-1.12-9.847-3.109-14.17c0.82-2.115,0.943-4.44-0.304-6.31c-1.302-3.256-4.593-5.015-7.975-4.91
				c-6.049-5.428-14.028-8.743-22.745-8.743c-18.773,0-34.133,15.36-34.133,34.133c0,8.357,3.049,16.033,8.083,21.984
				c-0.824,3.899,0.942,8.08,4.717,9.59c0.853,0.853,2.56,0.853,3.413,0.853c1.673,0,3.345-0.815,5.018-0.847
				c3.986,1.641,8.342,2.554,12.902,2.554C214.04,230.4,229.4,215.04,229.4,196.267z M195.267,179.2
				c4.254,0,8.147,1.588,11.144,4.187c0.349,0.992,0.915,1.899,1.656,2.64c0.853,0.853,0.853,1.707,1.707,2.56
				c0.437,0.656,0.932,1.253,1.482,1.783c0.685,1.842,1.078,3.824,1.078,5.897c0,0.829-0.08,1.638-0.196,2.436
				c-0.299,0.583-0.531,1.195-0.658,1.831c0,0.853-0.853,1.707-0.853,2.56c-0.182,0.456-0.318,0.923-0.423,1.393
				c-1.504,2.714-3.73,4.97-6.409,6.529c-0.863,0.08-1.725,0.279-2.555,0.611c-0.853,0-1.707,0.853-2.56,0.853
				c-0.721,0.144-1.388,0.419-2.003,0.782c-0.466,0.039-0.934,0.072-1.41,0.072c-9.387,0-17.067-7.68-17.067-17.067
				S185.88,179.2,195.267,179.2z"/>
			<path d="M357.4,418.133c18.773,0,34.133-15.36,34.133-34.133c0-7.54-2.482-14.526-6.663-20.191
				c0.872-2.97-0.246-6.345-2.723-8.822c-2.41-1.607-5.576-2.455-8.786-1.126c-4.771-2.544-10.203-3.994-15.96-3.994
				c-0.69,0-1.373,0.027-2.052,0.068c-1.018-0.226-2.066-0.268-3.068-0.068c-1.707,0.853-4.267,0.853-5.973,1.707
				c-0.419,0.168-0.816,0.377-1.2,0.606c-6.904,2.688-12.734,7.563-16.63,13.766c-0.029,0.046-0.062,0.087-0.09,0.134
				c-0.004,0.009-0.009,0.017-0.013,0.026c-3.233,5.212-5.107,11.344-5.107,17.894c0,3.402,0.511,6.689,1.448,9.796
				c-1.529,2.509-2.213,5.742-0.595,8.978c1.707,2.56,4.267,4.267,7.68,4.267c0.139,0,0.304,0,0.476,0
				C338.527,413.848,347.486,418.133,357.4,418.133z M357.4,401.067c-9.387,0-17.067-7.68-17.067-17.067
				c0-2.321,0.473-4.536,1.321-6.558c0.426-0.658,0.58-1.317,1.239-1.975c0.292-0.486,0.533-0.984,0.736-1.487
				c3.111-4.257,8.125-7.046,13.77-7.046c2.628,0,5.112,0.619,7.341,1.692c0.365,0.312,0.756,0.606,1.193,0.868
				c0.853,0.853,1.707,0.853,2.56,1.707c0.335,0.335,0.708,0.627,1.096,0.896c3.01,3.081,4.878,7.283,4.878,11.904
				C374.467,393.387,366.787,401.067,357.4,401.067z"/>
			<path d="M331.8,34.133c0,17.229,12.941,31.574,29.581,33.819c0.652,0.198,1.321,0.315,1.993,0.315c0.853,0,1.707,0,2.56,0
				s2.56,0,4.267,0c0.786-0.131,1.526-0.351,2.222-0.631c7.267-1.414,13.728-5.148,18.573-10.398
				c3.306,0.675,6.564-0.997,8.218-3.478c2.069-3.449,1.906-7.454-0.485-10.215c0.865-2.994,1.339-6.149,1.339-9.412
				C400.067,15.36,384.707,0,365.933,0c-11.251,0-21.271,5.52-27.499,13.982c-3.508-0.026-6.992,2.271-8.341,5.644
				c-0.806,3.224-0.069,6.44,2.17,8.945C331.964,30.383,331.8,32.24,331.8,34.133z M365.933,17.067
				c9.387,0,17.067,7.68,17.067,17.067c0,9.387-7.68,17.067-17.067,17.067c-0.508,0-1.008-0.033-1.505-0.077
				c-0.13-0.013-0.26-0.028-0.388-0.036c-3.865-0.432-7.346-2.167-9.999-4.754c-0.263-0.383-0.557-0.756-0.909-1.107
				c-0.853-0.853-0.853-1.707-1.707-2.56c-0.206-0.275-0.434-0.534-0.671-0.785c-1.198-2.33-1.889-4.96-1.889-7.748
				C348.867,24.747,356.547,17.067,365.933,17.067z"/>
			<path d="M220.867,256c0,18.773,15.36,34.133,34.133,34.133c18.773,0,34.133-15.36,34.133-34.133
				c0-18.773-15.36-34.133-34.133-34.133C236.227,221.867,220.867,237.227,220.867,256z M272.067,256
				c0,9.387-7.68,17.067-17.067,17.067s-17.067-7.68-17.067-17.067s7.68-17.067,17.067-17.067S272.067,246.613,272.067,256z"/>
			<path d="M178.2,260.267c0-1.707,0-2.56,0-3.413c0-1.707,0-2.56,0-4.267c0.853-5.12-2.56-9.387-7.68-9.387
				c-5.12-0.853-9.387,2.56-9.387,7.68c0,1.707,0,3.413,0,5.12c0,0.853,0,2.56,0,3.413c0,5.12,4.267,8.533,8.533,8.533
				C174.787,267.947,178.2,263.68,178.2,260.267z"/>
			<path d="M173.08,283.307c-4.267,1.707-5.973,6.827-4.267,11.093c1.707,2.56,2.56,5.12,4.267,7.68s5.12,4.267,7.68,4.267
				c0.853,0,2.56,0,3.413,0c4.267-2.56,5.973-7.68,3.413-11.947c-1.707-2.56-2.56-4.267-3.413-6.827
				C182.467,283.307,177.347,281.6,173.08,283.307z"/>
			<path d="M215.747,331.947c2.56-4.267,1.707-9.387-2.56-11.947c-2.56-1.707-4.267-2.56-5.973-4.267
				c-3.413-3.413-9.387-2.56-11.947,0.853c-3.413,3.413-2.56,9.387,0.853,11.947c1.707,1.707,4.267,3.413,6.827,5.12
				c1.707,0.853,3.413,1.707,5.12,1.707C210.627,335.36,213.187,334.507,215.747,331.947z"/>
			<path d="M250.733,179.2c1.707,0,2.56,0,4.267,0c0.853,0,2.56,0,3.413,0c4.267,0,8.533-3.413,8.533-8.533
				c0-4.267-3.413-8.533-8.533-8.533c-0.853,0-2.56,0-3.413,0c-1.707,0-3.413,0-5.12,0c-4.267,0.853-7.68,4.267-7.68,9.387
				C242.2,175.787,246.467,179.2,250.733,179.2z"/>
			<path d="M245.613,349.013c4.267,0,7.68-2.56,8.533-8.533c0-4.267-3.413-8.533-7.68-9.387c-1.707,0-4.267,0-6.827-0.853
				c-5.12-0.853-9.387,1.707-10.24,6.827c-0.853,5.12,2.56,9.387,6.827,10.24c2.56,0.853,5.973,1.707,8.533,1.707H245.613z"/>
			<path d="M348.867,245.76c-0.853-2.56-0.853-5.973-1.707-8.533c-0.853-5.12-5.973-7.68-10.24-6.827
				c-5.12,0.853-7.68,5.973-6.827,10.24c0,1.707,0.853,4.267,0.853,6.827c0.853,4.267,4.267,7.68,8.533,7.68
				c0.853,0,0.853,0,1.707,0C346.307,254.293,349.72,250.027,348.867,245.76z"/>
			<path d="M314.733,208.213c1.707,1.707,2.56,4.267,4.267,5.973c1.707,1.707,4.267,3.413,6.827,3.413
				c1.707,0,3.413-0.853,5.12-0.853c4.267-2.56,5.12-7.68,2.56-11.947c-1.707-2.56-3.413-4.267-5.12-6.827
				c-2.56-4.267-8.533-4.267-11.947-1.707C312.173,198.827,312.173,204.8,314.733,208.213z"/>
			<path d="M285.72,186.027c2.56,0.853,5.12,2.56,6.827,3.413s2.56,0.853,4.267,0.853c3.413,0,5.973-1.707,6.827-3.413
				c1.707-4.267,0.853-9.387-3.413-11.947c-2.56-1.707-5.12-3.413-7.68-4.267c-4.267-1.707-9.387,0-11.093,4.267
				S281.453,184.32,285.72,186.027z"/>
			<path d="M329.24,275.627c-0.853,2.56-1.707,4.267-2.56,6.827c-1.707,4.267,0.853,9.387,5.12,11.093
				c1.707,0.853,2.56,0.853,3.413,0.853c3.413,0,5.973-1.707,7.68-5.973c0.853-2.56,1.707-5.973,2.56-8.533
				c0.853-4.267-1.707-9.387-5.973-10.24S330.093,271.36,329.24,275.627z"/>
			<path d="M292.547,333.653c-1.707-4.267-6.827-6.827-11.093-5.12c-2.56,0.853-4.267,1.707-6.827,2.56
				c-4.267,0.853-6.827,5.973-5.973,10.24c1.707,3.413,5.12,5.973,8.533,5.973c0.853,0,1.707-0.853,1.707,0
				c2.56-0.853,5.973-1.707,8.533-2.56C291.693,343.04,294.253,337.92,292.547,333.653z"/>
			<path d="M324.12,307.2c-3.413-2.56-8.533-2.56-11.947,0.853c-1.707,1.707-3.413,3.413-5.12,5.12
				c-3.413,3.413-4.267,8.533-0.853,11.947c1.707,1.707,3.413,2.56,5.973,2.56s4.267-0.853,6.827-2.56
				c1.707-1.707,4.267-3.413,5.973-5.973C327.533,315.733,327.533,310.613,324.12,307.2z"/>
			<path d="M255.853,17.067c2.56,0,5.12,0,8.533,0c5.12,0,8.533-3.413,8.533-8.533c0-4.267-3.413-8.533-8.533-8.533
				c-2.56,0-5.973,0-8.533,0c-4.267,0-8.533,3.413-8.533,8.533C247.32,12.8,250.733,17.067,255.853,17.067z"/>
			<path d="M296.813,20.48c2.56,0.853,5.12,0.853,7.68,1.707c0.853,0,0.853,0,1.707,0c4.267,0,7.68-2.56,8.533-5.973
				c0.853-5.12-2.56-9.387-6.827-10.24c-2.56-0.853-5.973-0.853-8.533-1.707c-5.12-0.853-9.387,2.56-10.24,6.827
				C289.133,15.36,291.693,19.627,296.813,20.48z"/>
			<path d="M348.013,476.16c-2.56,1.707-5.12,2.56-7.68,3.413c-4.267,1.707-6.827,6.827-5.12,11.093
				c0.853,3.413,4.267,5.12,7.68,5.12c0.853,0,1.707,0,4.267-0.853c2.56-0.853,5.12-2.56,7.68-3.413
				c4.267-1.707,5.973-6.827,4.267-11.093C357.4,476.16,352.28,474.453,348.013,476.16z"/>
			<path d="M383,457.387c-2.56,1.707-4.267,2.56-6.827,4.267c-4.267,2.56-5.973,7.68-3.413,11.947c1.707,2.56,5.12,4.267,7.68,4.267
				c1.707,0,2.56,0,4.267-1.707c2.56-0.853,5.12-2.56,7.68-4.267c4.267-2.56,5.12-7.68,2.56-11.947
				C392.387,455.68,387.267,454.827,383,457.387z"/>
			<path d="M136.387,47.787c0.853,0,2.56-0.853,4.267-2.56c1.707-0.853,4.267-2.56,6.827-3.413c4.267-1.707,5.12-6.827,3.413-11.093
				c-1.707-3.413-6.827-5.12-11.093-3.413c-2.56,1.707-5.12,2.56-7.68,4.267c-4.267,2.56-5.973,7.68-3.413,11.947
				C130.413,46.08,132.973,47.787,136.387,47.787z"/>
			<path d="M101.4,70.827c1.707,0,3.413-0.853,5.12-1.707c2.56-1.707,4.267-3.413,6.827-5.12c3.413-2.56,4.267-8.533,1.707-11.947
				s-8.533-4.267-11.947-1.707c-2.56,1.707-4.267,3.413-6.827,5.12c-4.267,2.56-4.267,8.533-1.707,11.947
				C96.28,69.973,98.84,70.827,101.4,70.827z"/>
			<path d="M214.893,20.48c0,0,0.853,0,0.853,0.853c2.56,0,5.12-0.853,7.68-0.853c5.12-0.853,8.533-4.267,7.68-9.387
				s-5.12-8.533-9.387-7.68c-2.56,0-5.973,0-8.533,0.853c-4.267,0-7.68,5.12-6.827,9.387S210.627,20.48,214.893,20.48z"/>
			<path d="M41.667,130.56c0.853,1.707,2.56,1.707,4.267,1.707c2.56,0,5.12-1.707,7.68-3.413c0.853-2.56,2.56-4.267,4.267-6.827
				c2.56-4.267,1.707-9.387-2.56-11.947s-9.387-1.707-11.947,2.56c-1.707,1.707-3.413,4.267-5.12,6.827
				C35.693,122.88,37.4,128,41.667,130.56z"/>
			<path d="M414.573,433.493c-1.707,1.707-4.267,3.413-5.973,5.12c-3.413,2.56-4.267,8.533-0.853,11.947
				c1.707,2.56,4.267,3.413,6.827,3.413c1.707,0,3.413-0.853,4.267-1.707c2.56-2.56,4.267-4.267,6.827-5.973
				c3.413-3.413,4.267-8.533,0.853-11.947C423.107,430.933,417.987,430.08,414.573,433.493z"/>
			<path d="M173.933,30.72c1.707,0,2.56,0,2.56-0.853c2.56-0.853,5.12-1.707,7.68-2.56c5.12-0.853,7.68-5.973,5.973-10.24
				c-0.853-5.12-5.973-7.68-10.24-5.973c-3.413,0.853-5.973,1.707-8.533,2.56c-4.267,1.707-6.827,6.827-5.12,11.093
				C167.107,28.16,170.52,30.72,173.933,30.72z"/>
			<path d="M479.427,175.787c0.853,2.56,1.707,5.12,2.56,7.68c1.707,3.413,5.12,5.973,8.533,5.973c0.853,0,1.707-0.853,2.56,0
				c4.267-1.707,6.827-6.827,5.12-11.093c-0.853-3.413-1.707-5.973-2.56-8.533c-1.707-4.267-6.827-6.827-11.093-5.12
				S477.72,171.52,479.427,175.787z"/>
			<path d="M466.627,145.92c1.707,2.56,4.267,4.267,7.68,4.267c1.707,0,3.413,0,5.12-0.853c4.267-1.707,5.973-6.827,3.413-11.093
				c-1.707-2.56-2.56-5.12-4.267-7.68c-2.56-4.267-7.68-5.973-11.947-3.413s-5.973,7.68-3.413,11.947
				C464.067,140.8,465.773,143.36,466.627,145.92z"/>
			<path d="M502.467,245.76c-5.12,0-8.533,3.413-8.533,8.533V256c0,2.56,0,4.267,0,6.827c0,4.267,3.413,8.533,8.533,8.533
				c4.267,0,8.533-3.413,8.533-8.533c0-1.707,0-4.267,0-6.827v-1.707C511,249.173,507.587,245.76,502.467,245.76z"/>
			<path d="M22.893,168.107c0.853,0.853,2.56,0.853,3.413,0.853c3.413,0,6.827-1.707,7.68-5.12c0.853-2.56,2.56-5.12,3.413-7.68
				c1.707-4.267,0-9.387-4.267-11.093c-4.267-1.707-9.387,0-11.093,4.267c-0.853,2.56-2.56,5.12-3.413,7.68
				C16.92,161.28,18.627,166.4,22.893,168.107z"/>
			<path d="M490.52,214.187c0,2.56,0.853,5.12,0.853,7.68c0.853,4.267,4.267,7.68,8.533,7.68c0.853,0,0.853,0,1.707-0.853
				c5.12,0,8.533-5.12,7.68-9.387c-0.853-2.56-0.853-5.973-1.707-8.533c-0.853-4.267-5.973-7.68-10.24-6.827
				S489.667,209.92,490.52,214.187z"/>
			<path d="M499.907,288.427c-4.267-0.853-8.533,2.56-9.387,6.827c-0.853,2.56-0.853,5.12-1.707,7.68
				c-0.853,5.12,2.56,9.387,6.827,10.24c0.853,0,0.853,0,1.707,0c4.267,0,7.68-3.413,7.68-6.827c0.853-2.56,0.853-5.973,1.707-8.533
				C507.587,293.547,504.173,289.28,499.907,288.427z"/>
			<path d="M491.373,328.533c-4.267-1.707-9.387,0.853-11.093,5.12c-0.853,2.56-1.707,5.12-2.56,7.68
				c-1.707,4.267,0.853,9.387,5.12,11.093c1.707,0.853,2.56,0.853,3.413,0.853c3.413,0,6.827-2.56,7.68-5.973
				c0.853-2.56,1.707-5.12,2.56-7.68C498.2,335.36,495.64,330.24,491.373,328.533z"/>
			<path d="M452.973,94.72c-2.56-3.413-8.533-3.413-11.947-0.853s-3.413,8.533-0.853,11.947c1.707,1.707,3.413,3.413,5.12,5.973
				s4.267,3.413,6.827,3.413c1.707,0,4.267,0,4.267-1.707c3.413-2.56,4.267-8.533,1.707-11.947
				C456.387,98.987,454.68,97.28,452.973,94.72z"/>
			<path d="M454.68,402.773c-3.413-2.56-9.387-1.707-11.947,1.707c-1.707,1.707-3.413,4.267-5.12,5.973
				c-3.413,3.413-2.56,8.533,0.853,11.947c0.853,0.853,3.413,1.707,5.12,1.707c2.56,0,5.12-0.853,7.68-2.56
				c1.707-2.56,3.413-4.267,5.12-6.827C458.947,411.307,458.093,405.333,454.68,402.773z"/>
			<path d="M423.96,64c-3.413-3.413-8.533-2.56-11.947,0.853s-2.56,8.533,0.853,11.947c1.707,1.707,4.267,3.413,5.973,5.12
				s4.267,2.56,5.973,2.56s4.267-0.853,5.973-2.56c3.413-3.413,3.413-8.533,0-11.947C428.227,68.267,426.52,65.707,423.96,64z"/>
			<path d="M476.867,367.787c-4.267-2.56-9.387-0.853-11.947,3.413c-1.707,2.56-2.56,4.267-4.267,6.827
				c-1.707,4.267-0.853,9.387,3.413,11.947c1.707,0.853,2.56,0.853,4.267,0.853c2.56,0,5.12-1.707,7.68-3.413
				c1.707-2.56,2.56-5.12,4.267-7.68C482.84,375.467,481.133,370.347,476.867,367.787z"/>
			<path d="M228.547,494.08c-2.56,0-5.12-0.853-7.68-0.853c-4.267-0.853-8.533,2.56-9.387,6.827
				c-0.853,4.267,2.56,8.533,6.827,9.387c2.56,0,5.973,0.853,8.533,0.853h0.853c4.267,0,7.68-3.413,8.533-6.827
				C236.227,499.2,232.813,494.933,228.547,494.08z"/>
			<path d="M76.653,96.427c1.707-1.707,3.413-4.267,5.12-5.973c3.413-3.413,3.413-8.533,0-11.947s-8.533-3.413-11.947,0
				c-1.707,1.707-4.267,3.413-5.973,5.973c-2.56,3.413-2.56,8.533,0.853,11.947c1.707,1.707,4.267,2.56,5.973,2.56
				C73.24,98.987,75.8,98.133,76.653,96.427z"/>
			<path d="M39.96,360.107c-0.853-2.56-2.56-5.12-3.413-7.68c-1.707-4.267-6.827-5.973-11.093-4.267
				c-4.267,1.707-5.973,6.827-4.267,11.093c0.853,2.56,2.56,5.12,3.413,7.68c1.707,3.413,4.267,5.12,7.68,5.12
				c0.853,0,2.56-0.853,3.413-0.853C39.96,369.493,41.667,364.373,39.96,360.107z"/>
			<path d="M55.32,388.267c-2.56-4.267-7.68-5.12-11.947-2.56s-5.12,7.68-2.56,11.947c1.707,1.707,3.413,4.267,5.12,6.827
				c1.707,2.56,4.267,3.413,6.827,3.413c1.707,0,4.267-0.853,5.12-0.853c3.413-2.56,4.267-7.68,1.707-11.947
				C58.733,392.533,57.027,390.827,55.32,388.267z"/>
			<path d="M116.76,451.413c-2.56-1.707-4.267-3.413-6.827-5.12c-3.413-2.56-9.387-1.707-11.947,1.707
				c-2.56,3.413-1.707,9.387,1.707,11.947c2.56,1.707,4.267,3.413,6.827,5.12c1.707,0.853,3.413,1.707,5.12,1.707
				c2.56,0,5.973-1.707,6.827-3.413C121.88,459.093,121.027,453.973,116.76,451.413z"/>
			<path d="M80.067,418.987c-3.413-3.413-8.533-3.413-11.947,0c-3.413,3.413-3.413,8.533,0,11.947
				c1.707,1.707,4.267,4.267,5.973,5.973s3.413,2.56,5.973,2.56s4.267-0.853,5.973-2.56c3.413-3.413,3.413-8.533,0-11.947
				C83.48,423.253,81.773,420.693,80.067,418.987z"/>
			<path d="M268.653,494.933c-2.56,0-5.12,0-7.68,0c-5.12,0-8.533,3.413-8.533,8.533s4.267,8.533,8.533,8.533
				c3.413,0,5.973,0,9.387,0c4.267-0.853,7.68-4.267,7.68-9.387C277.187,498.347,272.92,494.933,268.653,494.933z"/>
			<path d="M189.293,486.4c-2.56-0.853-5.12-1.707-7.68-2.56c-5.12-1.707-9.387,0-11.093,5.12c-1.707,5.12,0.853,9.387,5.12,11.093
				c3.413,0.853,5.973,1.707,8.533,2.56c0.853,0,1.707,0,2.56,0c3.413,0,6.827-2.56,8.533-5.973
				C196.12,492.373,193.56,488.107,189.293,486.4z"/>
			<path d="M308.76,488.96c-2.56,0.853-5.12,0.853-7.68,1.707c-5.12,0.853-7.68,5.973-6.827,10.24
				c0.853,4.267,4.267,6.827,8.533,6.827c0,0,0.853,0,1.707-0.853c2.56-0.853,5.973-0.853,8.533-1.707
				c4.267-0.853,6.827-5.973,5.973-10.24S313.027,488.107,308.76,488.96z"/>
			<path d="M150.893,471.04c-1.707-0.853-4.267-2.56-6.827-3.413c-3.413-2.56-8.533-0.853-11.093,3.413
				c-2.56,3.413-0.853,8.533,3.413,11.093c2.56,1.707,5.12,3.413,7.68,4.267c0.853,0.853,2.56,0.853,3.413,0.853
				c3.413,0,6.827-1.707,7.68-5.12C156.867,477.867,155.16,472.747,150.893,471.04z"/>
			<path d="M11.8,209.067c0.853,0,0.853,0,1.707,0c4.267,0,7.68-2.56,7.68-6.827c0-2.56,0.853-5.12,1.707-7.68
				c1.707-4.267-1.707-9.387-5.973-10.24c-4.267-1.707-9.387,1.707-10.24,5.973c0,2.56-0.853,5.973-1.707,8.533
				C4.12,203.093,7.533,208.213,11.8,209.067z"/>
			<path d="M10.093,290.987c5.12-0.853,8.533-5.12,7.68-9.387c0-2.56-0.853-5.12-0.853-7.68c-0.853-4.267-5.12-7.68-9.387-7.68
				c-4.267,0.853-7.68,4.267-7.68,9.387c0,2.56,0.853,5.973,0.853,8.533c0.853,4.267,4.267,7.68,8.533,7.68
				C9.24,291.84,9.24,291.84,10.093,290.987z"/>
			<path d="M7.533,250.027c5.12,0,8.533-3.413,8.533-8.533c0-2.56,0.853-5.12,0.853-7.68c0.853-5.12-3.413-9.387-7.68-9.387
				c-5.12,0-9.387,3.413-9.387,7.68C-1,234.667-1,238.08-1,240.64C-1,245.76,2.413,250.027,7.533,250.027z"/>
			<path d="M23.747,321.707c0-2.56-0.853-5.12-1.707-7.68c-0.853-4.267-5.973-6.827-10.24-5.973s-6.827,5.973-5.973,10.24
				c0.853,2.56,1.707,5.973,2.56,8.533c1.707,3.413,5.12,5.973,8.533,5.973c0.853,0,1.707,0,0.853-0.853
				C22.04,331.093,25.453,325.973,23.747,321.707z"/>
			<path d="M404.333,289.28c0,2.56-0.853,5.12-1.707,7.68c-0.853,4.267,1.707,9.387,5.973,10.24c0.853,0,1.707,0,2.56,0
				c4.267,0,7.68-2.56,8.533-5.973c0-3.413,0.853-5.973,1.707-8.533c0.853-4.267-2.56-9.387-6.827-10.24
				S405.187,285.013,404.333,289.28z"/>
			<path d="M402.627,320.853c-3.413-2.56-9.387-0.853-11.093,3.413c-0.853,2.56-2.56,4.267-3.413,6.827
				c-1.707,4.267-0.853,9.387,3.413,11.947c1.707,0.853,2.56,0.853,4.267,0.853c3.413,0,5.973-0.853,5.973-4.267
				c1.707-2.56,3.413-5.12,4.267-7.68C408.6,328.533,406.893,322.56,402.627,320.853z"/>
			<path d="M229.4,87.04c-3.413,0.853-5.973,0.853-8.533,1.707c-5.12,0.853-7.68,5.973-6.827,10.24
				c0.853,4.267,4.267,6.827,8.533,6.827c0.853,0,0.853,0,1.707-0.853c2.56-0.853,5.12-1.707,7.68-1.707
				c4.267,0,7.68-5.12,6.827-9.387C238.787,89.6,233.667,86.187,229.4,87.04z"/>
			<path d="M294.253,422.4c3.413-0.853,5.973-1.707,8.533-2.56c5.12-0.853,6.827-5.12,5.973-10.24
				c-0.853-5.12-5.973-7.68-10.24-5.973c-2.56,0.853-5.12,0.853-7.68,1.707c-4.267,0.853-6.827,5.973-5.973,10.24
				s5.12,6.827,8.533,6.827C294.253,422.4,295.107,421.547,294.253,422.4z"/>
			<path d="M377.027,136.533c-3.413-3.413-8.533-3.413-11.947,0c-3.413,3.413-3.413,8.533,0,11.947
				c1.707,2.56,3.413,4.267,5.12,5.973c1.707,1.707,3.413,2.56,5.973,2.56c1.707,0,3.413-0.853,5.973-2.56
				c3.413-3.413,4.267-8.533,0.853-11.947C381.293,140.8,378.733,138.24,377.027,136.533z"/>
			<path d="M255,426.667c2.56,0,4.267,0,5.973,0c5.12,0,8.533-3.413,8.533-8.533s-3.413-8.533-8.533-8.533c-1.707,0-3.413,0-5.973,0
				h-1.707c-4.267,0-8.533,3.413-8.533,8.533c0,4.267,3.413,8.533,8.533,8.533H255z"/>
			<path d="M93.72,244.053h0.853c4.267,0,7.68-3.413,9.387-6.827c0-2.56,0-5.12,0.853-7.68c0.853-5.12-2.56-9.387-6.827-10.24
				c-5.12-0.853-9.387,2.56-10.24,6.827c-0.853,2.56-1.707,5.973-1.707,8.533C86.04,238.933,89.453,243.2,93.72,244.053z"/>
			<path d="M92.013,258.56c-4.267,0.853-7.68,4.267-7.68,9.387c0,2.56,0.853,5.973,0.853,8.533c0.853,4.267,4.267,7.68,8.533,7.68
				c0.853,0,0.853,0,0.853-0.853c5.12-0.853,8.533-5.12,7.68-9.387c-0.853-2.56-0.853-5.12-0.853-7.68
				C100.547,261.973,96.28,258.56,92.013,258.56z"/>
			<path d="M425.667,259.413v-2.56c0-2.56,0-4.267,0-5.973c0-5.12-3.413-8.533-8.533-8.533s-8.533,3.413-8.533,8.533
				c0,1.707,0,3.413,0,5.12v2.56c0,4.267,3.413,8.533,8.533,8.533C421.4,267.093,425.667,263.68,425.667,259.413z"/>
			<path d="M220.013,423.253c0.853,0,0.853,0,1.707,0c3.413,0,7.68-2.56,8.533-5.973c0.853-5.12-2.56-9.387-6.827-10.24
				c-2.56-0.853-5.12-0.853-7.68-1.707c-4.267-1.707-9.387,1.707-10.24,5.973c-1.707,4.267,1.707,9.387,5.973,10.24
				C214.893,422.4,217.453,422.4,220.013,423.253z"/>
			<path d="M391.533,166.4c-4.267,2.56-5.973,7.68-3.413,11.947c0.853,2.56,2.56,4.267,3.413,6.827
				c1.707,2.56,4.267,4.267,7.68,4.267c0.853,0,2.56,0,5.12-0.853c4.267-1.707,5.973-6.827,3.413-11.093
				c-1.707-2.56-2.56-5.12-4.267-7.68C400.92,165.547,395.8,163.84,391.533,166.4z"/>
			<path d="M333.507,124.587c2.56,1.707,5.12,2.56,6.827,4.267c1.707,0.853,3.413,1.707,5.12,1.707c2.56,0,5.973-1.707,6.827-4.267
				c2.56-4.267,1.707-9.387-2.56-11.947c-1.707-0.853-4.267-2.56-6.827-4.267c-4.267-2.56-9.387-1.707-11.947,2.56
				S329.24,122.027,333.507,124.587z"/>
			<path d="M418.84,208.213c-0.853-4.267-5.973-7.68-10.24-5.973c-4.267,0.853-7.68,5.973-5.973,10.24
				c0.853,2.56,0.853,5.12,1.707,7.68c0.853,4.267,4.267,6.827,8.533,6.827c0.853,0,0.853,0,2.56,0
				c4.267-0.853,6.827-5.973,5.973-10.24C420.547,213.333,419.693,210.773,418.84,208.213z"/>
			<path d="M144.067,136.533c1.707,2.56,4.267,3.413,6.827,3.413c1.707,0,4.267,0,5.12-1.707c1.707-1.707,4.267-3.413,5.973-5.12
				c3.413-2.56,4.267-8.533,1.707-11.947s-8.533-4.267-11.947-1.707c-2.56,1.707-4.267,3.413-6.827,5.12
				C141.507,127.147,140.653,133.12,144.067,136.533z"/>
			<path d="M103.96,323.413c0.853,0,1.707-0.853,3.413-0.853c4.267-1.707,6.827-6.827,5.12-11.093
				c-0.853-1.707-1.707-4.267-2.56-6.827c-1.707-4.267-6.827-6.827-11.093-5.12s-6.827,6.827-5.12,11.093
				c0.853,2.56,1.707,5.12,2.56,7.68C97.133,321.707,100.547,323.413,103.96,323.413z"/>
			<path d="M125.293,338.773c-2.56-4.267-7.68-5.12-11.947-2.56c-4.267,2.56-5.12,7.68-2.56,11.947
				c1.707,2.56,3.413,4.267,5.12,6.827s4.267,3.413,6.827,3.413c1.707,0,3.413-0.853,5.12-1.707
				c3.413-2.56,4.267-8.533,1.707-11.947C127.853,343.04,127,341.333,125.293,338.773z"/>
			<path d="M172.227,405.333c2.56,1.707,5.12,3.413,7.68,4.267c0.853,0.853,2.56,0.853,3.413,0.853c3.413,0,6.827-1.707,8.533-5.973
				c1.707-4.267,0-9.387-4.267-11.093c-2.56-0.853-4.267-2.56-6.827-3.413c-4.267-2.56-9.387-0.853-11.947,3.413
				S167.96,402.773,172.227,405.333z"/>
			<path d="M180.76,102.4c-4.267,1.707-5.973,6.827-4.267,11.093c1.707,3.413,4.267,5.12,7.68,5.12c1.707,0,2.56,0,4.267-0.853
				c2.56-1.707,4.267-2.56,6.827-3.413c4.267-1.707,5.973-6.827,4.267-11.093s-6.827-5.973-11.093-4.267
				C185.88,99.84,183.32,101.547,180.76,102.4z"/>
			<path d="M261.827,85.333c-4.267,0-8.533,3.413-8.533,8.533c0,4.267,3.413,8.533,8.533,8.533c2.56,0,5.12,0.853,8.533,0.853
				c5.12,0,8.533-3.413,7.68-7.68c0.853-5.12-3.413-8.533-7.68-9.387C267.8,85.333,264.387,85.333,261.827,85.333z"/>
			<path d="M133.827,147.627c-3.413-2.56-9.387-1.707-11.947,1.707c-1.707,2.56-3.413,4.267-5.12,6.827
				c-2.56,4.267-1.707,9.387,1.707,11.947c1.707,0.853,3.413,1.707,5.12,1.707c2.56,0,5.12-0.853,7.68-4.267
				c0.853-1.707,2.56-4.267,4.267-5.973C138.093,156.16,137.24,150.187,133.827,147.627z"/>
			<path d="M150.893,368.64c-3.413-3.413-8.533-3.413-11.947,0c-3.413,3.413-3.413,8.533,0,11.947
				c1.707,2.56,3.413,4.267,5.973,5.973c0.853,0.853,3.413,1.707,5.12,1.707c2.56,0,5.12-0.853,7.68-2.56
				c3.413-3.413,2.56-8.533-0.853-11.947C154.307,372.053,152.6,370.347,150.893,368.64z"/>
			<path d="M109.933,180.907c-4.267-1.707-9.387,0-11.093,4.267c-0.853,2.56-2.56,5.12-3.413,7.68
				c-1.707,4.267,0.853,9.387,5.12,11.093c1.707,0.853,2.56,0.853,3.413,0.853c3.413,0,6.827-1.707,7.68-5.973
				c0.853-2.56,1.707-4.267,2.56-6.827C115.907,187.733,114.2,182.613,109.933,180.907z"/>
			<path d="M304.493,92.16c-4.267-0.853-8.533,1.707-10.24,5.973c-0.853,4.267,1.707,8.533,5.973,10.24
				c1.707,0.853,4.267,1.707,6.827,2.56c0.853,0.853,1.707,0.853,2.56,0.853c3.413,0,6.827-1.707,7.68-5.973
				c1.707-4.267-0.853-9.387-5.12-11.093C309.613,93.867,307.053,93.013,304.493,92.16z"/>
		</g>
	</g>
</g>
<g>
</g>
<g>
</g>
<g>
</g>
<g>
</g>
<g>
</g>
<g>
</g>
<g>
</g>
<g>
</g>
<g>
</g>
<g>
</g>
<g>
</g>
<g>
</g>
<g>
</g>
<g>
</g>
<g>
</g>
</svg>
