<?xml version="1.0" encoding="iso-8859-1"?>
<!-- Generator: Adobe Illustrator 19.0.0, SVG Export Plug-In . SVG Version: 6.00 Build 0)  -->
<svg version="1.1" id="Layer_1" xmlns="http://www.w3.org/2000/svg" xmlns:xlink="http://www.w3.org/1999/xlink" x="0px" y="0px"
	 viewBox="0 0 512 512" style="enable-background:new 0 0 512 512;" xml:space="preserve">
<g transform="translate(1 1)">
	<g>
		<g>
			<path d="M58.733,127H127c5.12,0,8.533-3.413,8.533-8.533s-3.413-8.533-8.533-8.533H58.733c-5.12,0-8.533,3.413-8.533,8.533
				S53.613,127,58.733,127z"/>
			<path d="M58.733,161.133H101.4c5.12,0,8.533-3.413,8.533-8.533s-3.413-8.533-8.533-8.533H58.733c-5.12,0-8.533,3.413-8.533,8.533
				S53.613,161.133,58.733,161.133z"/>
			<path d="M246.467,212.333c5.12,0,8.533-3.413,8.533-8.533v-25.6l20.48-9.387c4.267-1.707,5.973-6.827,4.267-11.093
				c-1.707-4.267-6.827-5.973-11.093-4.267l-25.6,11.093c-3.413,0.853-5.12,4.267-5.12,7.68V203.8
				C237.933,208.92,241.347,212.333,246.467,212.333z"/>
			<path d="M148.333,330.947l59.733,34.133c1.707,0.853,2.56,0.853,4.267,0.853c1.707,0,2.56,0,4.267-0.853l55.467-31.695
				l55.467,31.695c1.707,0.853,2.56,0.853,4.267,0.853c1.707,0,2.56,0,4.267-0.853l59.733-34.133c2.56-1.707,4.267-4.267,4.267-7.68
				V255c0-3.413-1.707-5.973-4.267-7.68l-55.467-31.695V152.6c0-3.413-1.707-5.973-4.267-7.68l-59.733-34.133
				c-2.56-1.707-5.973-1.707-8.533,0l-59.733,34.133c-2.56,1.707-4.267,4.267-4.267,7.68v63.025l-55.467,31.695
				c-2.56,1.707-4.267,4.267-4.267,7.68v68.267C144.067,326.68,145.773,329.24,148.333,330.947z M383,318.147l-51.2,29.013
				l-51.2-29.013v-57.905l25.604-14.631l25.596-14.505L383,260.12V318.147z M272.067,128.707l51.2,29.013v57.905l-25.604,14.631
				l-25.596,14.505l-25.6-14.507l-25.6-14.629V157.72L272.067,128.707z M161.133,260.12l51.2-29.013l25.596,14.505l25.604,14.631
				v57.905l-51.2,29.013l-51.2-29.013V260.12z"/>
			<path d="M220.013,260.12c-1.707-4.267-6.827-5.973-11.093-4.267l-25.6,11.093c-3.413,0.853-5.12,4.267-5.12,7.68V306.2
				c0,5.12,3.413,8.533,8.533,8.533s8.533-3.413,8.533-8.533v-25.6l20.48-9.387C220.013,269.507,221.72,264.387,220.013,260.12z"/>
			<path d="M328.387,255.853l-25.6,11.093c-3.413,0.853-5.12,4.267-5.12,7.68V306.2c0,5.12,3.413,8.533,8.533,8.533
				s8.533-3.413,8.533-8.533v-25.6l20.48-9.387c4.267-1.707,5.973-6.827,4.267-11.093
				C337.773,255.853,332.653,254.147,328.387,255.853z"/>
			<path d="M485.4,24.6H24.6C10.093,24.6-1,35.693-1,50.2v17.067C-1,78.757,5.963,88.1,16.067,91.491v300.043
				c0,5.12,3.413,8.533,8.533,8.533h221.867v18.154c-14.679,3.814-25.6,17.216-25.6,33.046c0,18.773,15.36,34.133,34.133,34.133
				c18.773,0,34.133-15.36,34.133-34.133c0-15.83-10.921-29.232-25.6-33.046v-18.154H485.4c5.12,0,8.533-3.413,8.533-8.533V91.491
				C504.037,88.1,511,78.757,511,67.267V50.2C511,35.693,499.907,24.6,485.4,24.6z M272.067,451.267
				c0,9.387-7.68,17.067-17.067,17.067s-17.067-7.68-17.067-17.067S245.613,434.2,255,434.2S272.067,441.88,272.067,451.267z
				 M476.867,383H33.133V92.867h443.733V383z M493.933,67.267c0,5.12-3.413,8.533-8.533,8.533H24.6c-5.12,0-8.533-3.413-8.533-8.533
				V50.2c0-5.12,3.413-8.533,8.533-8.533h460.8c5.12,0,8.533,3.413,8.533,8.533V67.267z"/>
		</g>
	</g>
</g>
<g>
</g>
<g>
</g>
<g>
</g>
<g>
</g>
<g>
</g>
<g>
</g>
<g>
</g>
<g>
</g>
<g>
</g>
<g>
</g>
<g>
</g>
<g>
</g>
<g>
</g>
<g>
</g>
<g>
</g>
</svg>
