<?xml version="1.0" encoding="iso-8859-1"?>
<!-- Generator: Adobe Illustrator 19.0.0, SVG Export Plug-In . SVG Version: 6.00 Build 0)  -->
<svg version="1.1" id="Layer_1" xmlns="http://www.w3.org/2000/svg" xmlns:xlink="http://www.w3.org/1999/xlink" x="0px" y="0px"
	 viewBox="0 0 512 512" style="enable-background:new 0 0 512 512;" xml:space="preserve">
<g transform="translate(1 1)">
	<g>
		<g>
			<path d="M485.4,24.6H24.6C10.093,24.6-1,35.693-1,50.2v17.067C-1,78.757,5.963,88.1,16.067,91.491v300.043
				c0,5.12,3.413,8.533,8.533,8.533h221.867v18.154c-14.679,3.814-25.6,17.216-25.6,33.046c0,18.773,15.36,34.133,34.133,34.133
				c18.773,0,34.133-15.36,34.133-34.133c0-15.83-10.921-29.232-25.6-33.046v-18.154H485.4c5.12,0,8.533-3.413,8.533-8.533V91.491
				C504.037,88.1,511,78.757,511,67.267V50.2C511,35.693,499.907,24.6,485.4,24.6z M272.067,451.267
				c0,9.387-7.68,17.067-17.067,17.067s-17.067-7.68-17.067-17.067S245.613,434.2,255,434.2S272.067,441.88,272.067,451.267z
				 M476.867,383H33.133V92.867h443.733V383z M493.933,67.267c0,5.12-3.413,8.533-8.533,8.533H24.6c-5.12,0-8.533-3.413-8.533-8.533
				V50.2c0-5.12,3.413-8.533,8.533-8.533h460.8c5.12,0,8.533,3.413,8.533,8.533V67.267z"/>
			<path d="M383,323.267c-5.12,0-8.533,3.413-8.533,8.533s3.413,8.533,8.533,8.533h42.667v8.533c0,5.12,3.413,8.533,8.533,8.533
				s8.533-3.413,8.533-8.533V135.533c0-5.12-3.413-8.533-8.533-8.533s-8.533,3.413-8.533,8.533V152.6h-25.6
				c-5.12,0-8.533,3.413-8.533,8.533c0,5.12,3.413,8.533,8.533,8.533h25.6v17.067H383c-5.12,0-8.533,3.413-8.533,8.533
				S377.88,203.8,383,203.8h42.667v17.067h-25.6c-5.12,0-8.533,3.413-8.533,8.533c0,5.12,3.413,8.533,8.533,8.533h25.6V255H383
				c-5.12,0-8.533,3.413-8.533,8.533s3.413,8.533,8.533,8.533h42.667v17.067h-25.6c-5.12,0-8.533,3.413-8.533,8.533
				s3.413,8.533,8.533,8.533h25.6v17.067H383z"/>
			<path d="M127,203.8c1.794,0,3.556-0.142,5.277-0.412l24.939,58.885c-7.988,6.262-13.149,15.985-13.149,26.861
				c0,18.773,15.36,34.133,34.133,34.133s34.133-15.36,34.133-34.133c0-8.353-3.046-16.025-8.075-21.975l46.925-65.695
				c3.836,1.502,7.999,2.336,12.351,2.336c18.773,0,34.133-15.36,34.133-34.133c0-18.773-15.36-34.133-34.133-34.133
				c-16.134,0-29.736,11.348-33.245,26.453h-70.042c-3.509-15.106-17.112-26.453-33.245-26.453
				c-18.773,0-34.133,15.36-34.133,34.133C92.867,188.44,108.227,203.8,127,203.8z M178.2,306.2c-9.387,0-17.067-7.68-17.067-17.067
				c0-6.411,3.585-12.021,8.847-14.937c0.47-0.105,0.937-0.241,1.393-0.423c5.12-2.56,11.093-1.707,16.213,1.707
				c0.636,0.318,1.271,0.635,1.907,0.909c3.529,3.133,5.773,7.684,5.773,12.744C195.267,298.52,187.587,306.2,178.2,306.2z
				 M190.361,257.26c-3.305-1.271-6.85-2.045-10.547-2.219c-0.537-0.027-1.075-0.041-1.614-0.041c-0.893,0-1.789,0.003-2.803,0.125
				c-1.114,0.092-2.212,0.237-3.293,0.435l-24.623-58.587c0.174-0.149,0.342-0.302,0.513-0.453
				c5.821-4.567,10.142-10.968,12.052-18.32h70.208c0.853,5.12,3.413,9.387,6.827,13.653L190.361,257.26z M263.533,152.6
				c9.387,0,17.067,7.68,17.067,17.067c0,9.387-7.68,17.067-17.067,17.067c-9.387,0-17.067-7.68-17.067-17.067
				C246.467,160.28,254.147,152.6,263.533,152.6z M127,152.6c9.387,0,17.067,7.68,17.067,17.067c0,9.387-7.68,17.067-17.067,17.067
				s-17.067-7.68-17.067-17.067C109.933,160.28,117.613,152.6,127,152.6z"/>
		</g>
	</g>
</g>
<g>
</g>
<g>
</g>
<g>
</g>
<g>
</g>
<g>
</g>
<g>
</g>
<g>
</g>
<g>
</g>
<g>
</g>
<g>
</g>
<g>
</g>
<g>
</g>
<g>
</g>
<g>
</g>
<g>
</g>
</svg>
