<?xml version="1.0" encoding="iso-8859-1"?>
<!-- Generator: Adobe Illustrator 19.0.0, SVG Export Plug-In . SVG Version: 6.00 Build 0)  -->
<svg version="1.1" id="Layer_1" xmlns="http://www.w3.org/2000/svg" xmlns:xlink="http://www.w3.org/1999/xlink" x="0px" y="0px"
	 viewBox="0 0 511.573 511.573" style="enable-background:new 0 0 511.573 511.573;" xml:space="preserve">
<g transform="translate(1 1)">
	<g>
		<path d="M442.52,177.773c18.773,0,34.133-15.36,34.133-34.133c0-18.773-15.36-34.133-34.133-34.133
			c-15.829,0-29.232,10.921-33.046,25.6h-73.249L261.613,2.84c-2.56-5.12-11.093-5.12-14.507,0l-74.612,132.267h-72.396
			c-3.814-14.679-17.216-25.6-33.046-25.6c-18.773,0-34.133,15.36-34.133,34.133c0,18.773,15.36,34.133,34.133,34.133
			c3.035,0,5.979-0.407,8.785-1.16l36.557,65.033L59.373,335.64c-1.707,2.56-1.707,5.973,0,8.533s4.267,4.267,7.68,4.267h105.374
			l58.35,103.801c-6.242,6.194-10.124,14.765-10.124,24.199c0,18.773,15.36,34.133,34.133,34.133
			c18.773,0,34.133-15.36,34.133-34.133c0-9.703-4.11-18.487-10.666-24.716l58.364-103.284H442.52c3.413,0,5.973-1.707,6.827-4.267
			c1.707-2.56,1.707-5.973,0-8.533l-52.702-93.426l37.073-65.606C436.529,177.364,439.479,177.773,442.52,177.773z M442.52,126.573
			c9.387,0,17.067,7.68,17.067,17.067c0,9.387-7.68,17.067-17.067,17.067c-2.601,0-5.061-0.607-7.273-1.659
			c-0.392-0.324-0.809-0.63-1.261-0.901c-4.366-2.183-7.483-6.85-8.308-11.88c-0.029-0.185-0.063-0.369-0.086-0.556
			c-0.027-0.209-0.047-0.419-0.066-0.629c-0.04-0.476-0.073-0.955-0.073-1.441C425.453,134.253,433.133,126.573,442.52,126.573z
			 M254.787,24.173l62.554,110.933H192.233L254.787,24.173z M326.483,151.32l50.659,89.838l-50.834,90.216H183.265l-50.834-90.216
			l50.659-89.838H326.483z M49.987,143.64c0-9.387,7.68-17.067,17.067-17.067s17.067,7.68,17.067,17.067
			c0,0.475-0.033,0.943-0.072,1.409c-0.022,0.246-0.045,0.491-0.079,0.734c-0.007,0.051-0.016,0.102-0.023,0.153
			c-0.75,4.986-3.908,9.244-8.359,12.211c-0.452,0.271-0.868,0.576-1.261,0.901c-2.212,1.052-4.672,1.659-7.273,1.659
			C57.667,160.707,49.987,153.027,49.987,143.64z M91.099,167.804c4.386-4.365,7.594-9.907,9.109-16.096
			c0.039-0.13,0.088-0.259,0.125-0.389h63.015l-40.792,72.313L91.099,167.804z M81.56,331.373l40.7-72.178l40.573,72.178H81.56z
			 M254.787,493.507c-9.387,0-17.067-7.68-17.067-17.067c0-5.771,2.909-10.888,7.326-13.98c0.433-0.165,0.843-0.344,1.207-0.526
			c2.923-1.67,5.845-2.517,8.668-2.553c1.452,0.011,2.857,0.22,4.204,0.577c1.447,0.426,2.851,1.08,4.195,1.976
			c0.438,0.219,0.819,0.381,1.174,0.502c4.436,3.09,7.359,8.22,7.359,14.005C271.853,485.827,264.173,493.507,254.787,493.507z
			 M263.32,443.16c-2.56-0.853-5.973-0.853-8.533-0.853s-5.973,0-8.533,0.853l-53.372-94.72h123.81L263.32,443.16z M428.013,331.373
			h-81.751l40.919-72.411L428.013,331.373z M386.59,224.39l-41.219-73.07h63.869c0.037,0.13,0.086,0.259,0.125,0.388
			c1.515,6.189,4.723,11.731,9.109,16.096L386.59,224.39z"/>
	</g>
</g>
<g>
</g>
<g>
</g>
<g>
</g>
<g>
</g>
<g>
</g>
<g>
</g>
<g>
</g>
<g>
</g>
<g>
</g>
<g>
</g>
<g>
</g>
<g>
</g>
<g>
</g>
<g>
</g>
<g>
</g>
</svg>
