<?xml version="1.0" encoding="iso-8859-1"?>
<!-- Generator: Adobe Illustrator 19.0.0, SVG Export Plug-In . SVG Version: 6.00 Build 0)  -->
<svg version="1.1" id="Capa_1" xmlns="http://www.w3.org/2000/svg" xmlns:xlink="http://www.w3.org/1999/xlink" x="0px" y="0px"
	 viewBox="0 0 507.358 507.358" style="enable-background:new 0 0 507.358 507.358;" xml:space="preserve">
<g>
	<g>
		<g>
			<path d="M487.773,19.435c-39.12-39.12-124.672-14.24-172.144,33.264c-38.928,38.912-42.368,86.4-10.576,126.864l-35.504,35.472
				c-11.728,11.658-18.298,27.528-18.24,44.064c0.001,8.841-3.834,17.247-10.512,23.04c-6.439,5.718-15.086,8.28-23.6,6.992
				c-5.408-0.784-11.376-2.24-17.6-3.728c-23.152-5.552-51.952-12.48-71.648,7.216c-15.331,15.721-22.892,37.437-20.64,59.28
				c2.074,13.318-2.098,26.85-11.312,36.688l22.624,22.624c15.358-15.72,22.937-37.451,20.688-59.312
				c-2.074-13.318,2.098-26.85,11.312-36.688c7.024-7.008,25.344-2.608,41.6,1.28c7.2,1.728,14.176,3.392,20.496,4.288
				c17.684,2.499,35.584-2.789,49.072-14.496c13.679-11.861,21.532-29.079,21.52-47.184c-0.023-8.033,3.169-15.742,8.864-21.408
				l35.504-35.504c16.141,13.481,36.383,21.081,57.408,21.552c26.528-0.932,51.559-12.527,69.424-32.16
				c23.218-23.888,39.874-53.368,48.352-85.584C512.221,69.243,506.861,38.507,487.773,19.435z M471.869,98.123
				c-7.008,26.662-20.787,51.062-40,70.832c-38.72,38.736-72.288,21.344-93.664,0c-21.376-21.344-38.704-54.96,0-93.664
				c25.641-25.672,59.772-41.102,95.984-43.392c11.26-0.795,22.381,2.871,30.96,10.208
				C475.757,52.699,478.221,73.115,471.869,98.123z"/>
			
				<rect x="7.312" y="466.978" transform="matrix(-0.7071 -0.7071 0.7071 -0.7071 -302.4053 842.6329)" width="32" height="33.936"/>
			
				<rect x="59.308" y="418.939" transform="matrix(-0.7071 -0.7071 0.7071 -0.7071 -179.6736 797.3918)" width="32" height="33.936"/>
		</g>
	</g>
</g>
<g>
</g>
<g>
</g>
<g>
</g>
<g>
</g>
<g>
</g>
<g>
</g>
<g>
</g>
<g>
</g>
<g>
</g>
<g>
</g>
<g>
</g>
<g>
</g>
<g>
</g>
<g>
</g>
<g>
</g>
</svg>
