<?xml version="1.0" encoding="iso-8859-1"?>
<!-- Generator: Adobe Illustrator 19.0.0, SVG Export Plug-In . SVG Version: 6.00 Build 0)  -->
<svg version="1.1" id="Layer_1" xmlns="http://www.w3.org/2000/svg" xmlns:xlink="http://www.w3.org/1999/xlink" x="0px" y="0px"
	 viewBox="0 0 509.397 509.397" style="enable-background:new 0 0 509.397 509.397;" xml:space="preserve">
<g transform="translate(1 1)">
	<g>
		<g>
			<path d="M475.42,51.068l-12.149-12.149l-25.166-25.166L425.956,1.603c-3.471-3.471-8.678-3.471-12.149,0s-3.471,8.678,0,12.149
				l6.136,6.136l-30.925,31.556l-30.75-30.75c-3.471-3.471-8.678-3.471-12.149,0L321.82,44.993
				c-1.736,1.736-2.603,3.471-2.603,6.075s0.868,4.339,2.603,6.075l6.075,6.075L297.522,93.59c-0.147,0.147-0.279,0.301-0.414,0.454
				c-0.153,0.135-0.307,0.266-0.454,0.414l-95.457,95.457c0,0-0.001,0.001-0.001,0.001l-26.902,26.902
				c-3.471,3.471-3.471,8.678,0,12.149l19.091,19.092l-18.224,18.224c-0.147,0.147-0.279,0.301-0.413,0.454
				c-0.153,0.135-0.307,0.267-0.455,0.414l-26.034,26.034c-7.718,7.718-9.189,18.837-4.427,27.858L58.01,406.864
				c-3.471,3.471-3.471,8.678,0,12.149c1.736,1.736,3.471,2.603,6.075,2.603c2.603,0,4.339-0.868,6.075-2.603l85.415-85.415
				c3.764,2.445,8.203,3.843,12.646,3.843c6.075,0,12.149-2.603,16.488-7.81l26.034-26.034c0.165-0.165,0.314-0.337,0.464-0.509
				c0.136-0.118,0.277-0.231,0.404-0.358l18.224-18.224l18.224,18.224c1.736,1.736,3.471,2.603,6.075,2.603
				c2.603,0,4.339-0.868,6.075-2.603l100.664-100.664l21.695-21.695c0.191-0.191,0.368-0.383,0.538-0.576
				c0.11-0.098,0.226-0.188,0.329-0.292l30.373-30.373l6.075,6.075c1.736,1.736,3.471,2.603,6.075,2.603s4.339-0.868,6.075-2.603
				l24.298-24.298c3.471-3.471,3.471-8.678,0-12.149l-30.373-30.373l31.241-31.241l6.075,6.075c1.736,1.736,3.471,2.603,6.075,2.603
				c1.736,0,4.339-0.868,6.075-2.603C478.892,59.746,478.892,54.539,475.42,51.068z M173.427,318.349
				c-2.603,2.603-6.942,2.603-9.546,0l-3.471-3.471c-2.603-1.736-2.603-6.075,0-8.678l19.959-19.959l13.017,12.149L173.427,318.349z
				 M204.668,283.637l-12.149-12.149l12.149-12.149l12.149,12.149L204.668,283.637z M340.044,75.366l12.583,12.583l-24.298,24.298
				l-12.583-12.583L340.044,75.366z M340.478,124.397l23.864-23.864l12.149,12.149l-23.864,23.864L340.478,124.397z
				 M254.132,284.505l-30.496-30.496l-12.026-12.026c0,0,0,0-0.001-0.001l-19.091-19.091l18.224-18.224h123.227L254.132,284.505z
				 M351.325,187.312H228.098l74.631-74.631l61.614,61.614L351.325,187.312z M377.359,161.278l-12.583-12.583l24.298-24.298
				l12.583,12.583L377.359,161.278z M425.956,136.98l-6.075-6.075l-73.763-73.763l-6.075-6.075l12.149-12.149l85.912,85.912
				L425.956,136.98z M413.807,75.366l-12.149-12.149l30.373-30.373l12.149,12.149L413.807,75.366z"/>
			<path d="M68.424,434.634c-3.471-3.471-8.678-3.471-12.149,0L38.919,451.99c-6.075,6.075-9.546,14.753-9.546,23.431
				s3.471,17.356,9.546,23.43s14.753,9.546,23.43,9.546c8.678,0,17.356-3.471,23.431-9.546s9.546-14.753,9.546-23.43
				s-3.471-17.356-9.546-23.431L68.424,434.634z M73.63,486.702c-6.075,6.075-16.488,6.075-22.563,0
				c-2.603-3.471-4.339-6.942-4.339-11.281s1.736-8.678,4.339-11.281l11.281-11.281l11.281,11.281
				c2.603,3.471,4.339,6.942,4.339,11.281S76.234,484.098,73.63,486.702z"/>
		</g>
	</g>
</g>
<g>
</g>
<g>
</g>
<g>
</g>
<g>
</g>
<g>
</g>
<g>
</g>
<g>
</g>
<g>
</g>
<g>
</g>
<g>
</g>
<g>
</g>
<g>
</g>
<g>
</g>
<g>
</g>
<g>
</g>
</svg>
