<?xml version="1.0" encoding="iso-8859-1"?>
<!-- Generator: Adobe Illustrator 19.0.0, SVG Export Plug-In . SVG Version: 6.00 Build 0)  -->
<svg version="1.1" id="Layer_1" xmlns="http://www.w3.org/2000/svg" xmlns:xlink="http://www.w3.org/1999/xlink" x="0px" y="0px"
	 viewBox="0 0 506.88 506.88" style="enable-background:new 0 0 506.88 506.88;" xml:space="preserve">
<g transform="translate(1 1)">
	<g>
		<g>
			<path d="M473.453,62.147l-12.799-12.799c0,0-0.001-0.001-0.001-0.001l-35.84-35.84c0,0,0,0,0,0L412.867,1.56
				c-3.413-3.413-8.533-3.413-11.947,0c-3.413,3.413-3.413,8.533,0,11.947l6.034,6.034L376.966,50.14l-30.66-30.66
				c-3.413-3.413-8.533-3.413-11.947,0l-23.893,24.747c-1.707,1.707-2.56,3.413-2.56,5.973s0.853,4.267,2.56,5.973l5.973,5.973
				l-29.867,29.867c0,0-0.001,0.001-0.001,0.001l-90.452,90.452c-4.954,5.17-8.654,11.102-11.107,17.396
				c-6.82,16.711-4.541,34.966,5.975,49.176L172.227,267.8c-0.824,0.824-1.445,1.749-1.871,2.724l-24.583,24.583
				c-7.426,7.426-8.953,18.05-4.628,26.815L57.027,406.04c-3.413,3.413-3.413,8.533,0,11.947c1.707,1.707,3.413,2.56,5.973,2.56
				c2.56,0,4.267-0.853,5.973-2.56l83.48-83.48c3.807,2.616,8.375,4.12,12.947,4.12c5.973,0,11.947-2.56,16.213-7.68l25.6-25.6
				c0.824-0.824,1.445-1.749,1.871-2.724l17.716-17.716c8.589,6.221,19.076,9.347,29.053,9.347c13.653,0,26.453-5.12,37.547-15.36
				l74.24-74.24c0.903-0.903,1.559-1.809,1.985-2.838L383,188.44l29.867-29.867l5.973,5.973c1.707,1.707,3.413,2.56,5.973,2.56
				s4.267-0.853,5.973-2.56l24.747-23.893c0.853-1.707,2.56-3.413,2.56-5.973s-0.853-4.267-2.56-5.973L425.24,98.413l30.293-30.293
				l5.973,5.973c1.707,1.707,3.413,2.56,5.973,2.56c1.707,0,4.267-0.853,5.973-2.56C476.867,70.68,476.867,65.56,473.453,62.147z
				 M328.387,74.093l12.373,12.373l-23.893,23.893l-12.373-12.373L328.387,74.093z M355.693,190.147h-143.36l80.213-80.213
				l15.935,15.935c0.425,1.029,1.082,1.935,1.985,2.838l35.84,35.84c0.903,0.903,1.809,1.559,2.838,1.985l15.082,15.082
				L355.693,190.147z M279.747,266.093c-12.8,13.653-34.133,13.653-47.787,0L208.067,242.2c-2.904-2.722-5.184-5.833-6.853-9.172
				c-3.466-7.913-3.745-17.063-0.827-25.815h138.24L279.747,266.093z M328.813,122.307L352.28,98.84l23.893,23.893L352.707,146.2
				L328.813,122.307z M170.52,319.853c-2.318,2.318-6.03,2.53-8.612,0.651c-0.236-1.771-1.057-3.493-2.481-4.918
				c-1.053-1.053-2.269-1.779-3.547-2.182c-0.296-1.837,0.313-3.97,1.841-5.498l19.627-19.627l12.8,11.947L170.52,319.853z
				 M201.24,284.867l-11.947-11.947l11.947-11.947l11.947,11.947L201.24,284.867z M377.027,170.52l-12.373-12.373l23.893-23.893
				l12.373,12.373L377.027,170.52z M424.813,146.627L328.387,50.2l11.947-11.947l96.427,96.427L424.813,146.627z M412.867,86.04
				l-23.893-23.893L418.84,32.28l23.893,23.893L412.867,86.04z"/>
			<path d="M67.267,433.347c-3.413-3.413-8.533-3.413-11.947,0l-17.067,17.067c-5.973,5.973-9.387,14.507-9.387,23.04
				s3.413,17.067,9.387,23.04s14.507,9.387,23.04,9.387s17.067-3.413,23.04-9.387s9.387-14.507,9.387-23.04
				s-3.413-17.067-9.387-23.04L67.267,433.347z M72.387,484.547c-5.973,5.973-16.213,5.973-22.187,0
				c-2.56-3.413-4.267-6.827-4.267-11.093s1.707-8.533,4.267-11.093l11.093-11.093l11.093,11.093
				c2.56,3.413,4.267,6.827,4.267,11.093S74.947,481.987,72.387,484.547z"/>
		</g>
	</g>
</g>
<g>
</g>
<g>
</g>
<g>
</g>
<g>
</g>
<g>
</g>
<g>
</g>
<g>
</g>
<g>
</g>
<g>
</g>
<g>
</g>
<g>
</g>
<g>
</g>
<g>
</g>
<g>
</g>
<g>
</g>
</svg>
