<?xml version="1.0" encoding="iso-8859-1"?>
<!-- Generator: Adobe Illustrator 19.0.0, SVG Export Plug-In . SVG Version: 6.00 Build 0)  -->
<svg version="1.1" id="Layer_1" xmlns="http://www.w3.org/2000/svg" xmlns:xlink="http://www.w3.org/1999/xlink" x="0px" y="0px"
	 viewBox="0 0 512 512" style="enable-background:new 0 0 512 512;" xml:space="preserve">
<g transform="translate(1 1)">
	<g>
		<g>
			<path d="M331.8,300.227V75.8C331.8,33.133,297.667-1,255-1s-76.8,34.133-76.8,76.8v224.427
				c-27.307,23.04-42.667,55.467-42.667,91.307C135.533,457.24,189.293,511,255,511s119.467-53.76,119.467-119.467
				C374.467,355.693,359.107,323.267,331.8,300.227z M255,493.933c-56.32,0-102.4-46.08-102.4-102.4
				c0-31.573,14.507-60.587,39.253-80.213c2.56-1.707,3.413-4.267,3.413-6.827V75.8c0-33.28,26.453-59.733,59.733-59.733
				c33.28,0,59.733,26.453,59.733,59.733v228.693c0,2.56,1.707,5.12,3.413,6.827c24.747,19.627,39.253,48.64,39.253,80.213
				C357.4,447.853,311.32,493.933,255,493.933z"/>
			<path d="M307.907,324.12l-10.24-7.68V127c0-23.893-18.773-42.667-42.667-42.667S212.333,103.107,212.333,127v189.44l-10.24,7.68
				c-20.48,16.213-32.427,40.96-32.427,67.413c0,46.933,38.4,85.333,85.333,85.333s85.333-38.4,85.333-85.333
				C340.333,365.08,328.387,340.333,307.907,324.12z M255,459.8c-37.547,0-68.267-30.72-68.267-68.267
				c0-21.333,9.387-40.96,26.453-53.76l12.8-10.24c2.56-1.707,3.413-4.267,3.413-6.827V127c0-14.507,11.093-25.6,25.6-25.6
				c14.507,0,25.6,11.093,25.6,25.6v193.707c0,2.56,0.853,5.12,3.413,6.827l12.8,10.24c17.067,12.8,26.453,32.427,26.453,53.76
				C323.267,429.08,292.547,459.8,255,459.8z"/>
		</g>
	</g>
</g>
<g>
</g>
<g>
</g>
<g>
</g>
<g>
</g>
<g>
</g>
<g>
</g>
<g>
</g>
<g>
</g>
<g>
</g>
<g>
</g>
<g>
</g>
<g>
</g>
<g>
</g>
<g>
</g>
<g>
</g>
</svg>
