<?xml version="1.0" encoding="utf-8"?>
<!-- Svg Vector Icons : http://www.onlinewebfonts.com/icon -->
<!DOCTYPE svg PUBLIC "-//W3C//DTD SVG 1.1//EN" "http://www.w3.org/Graphics/SVG/1.1/DTD/svg11.dtd">
<svg version="1.1" xmlns="http://www.w3.org/2000/svg" xmlns:xlink="http://www.w3.org/1999/xlink" x="0px" y="0px" viewBox="0 0 1000 1000" enable-background="new 0 0 1000 1000" xml:space="preserve">
<metadata> Svg Vector Icons : http://www.onlinewebfonts.com/icon </metadata>
<g><g transform="translate(0.000000,512.000000) scale(0.100000,-0.100000)"><path d="M999.6,3919.4V2818.8h373.2h373.2V-980.6V-4780h3215.6h3215.6v3799.4v3799.4h411.5h411.5v1100.6V5020H5000H999.6V3919.4z M1937.5,3919.4V3393h-181.8h-181.8v526.4v526.4h181.8h181.8V3919.4z M2645.7,3919.4V3393H2483h-162.7v526.4v526.4H2483h162.7V3919.4z M3526.2,3919.4V3393h-248.8h-248.8v526.4v526.4h248.8h248.8V3919.4z M4808.6,3919.4V3393h-449.8H3909v526.4v526.4h449.8h449.8V3919.4z M6091,3919.4V3393h-449.8h-449.8v526.4v526.4h449.8H6091V3919.4z M6971.5,3919.4V3393h-248.8h-248.8v526.4v526.4h248.8h248.8V3919.4z M7679.7,3919.4V3393H7517h-162.7v526.4v526.4H7517h162.7V3919.4z M8426.2,3919.4V3393h-181.8h-181.8v526.4v526.4h181.8h181.8V3919.4z M7603.1,2426.4v-392.4H6426H5248.8l-3.8-681.4l-5.7-683.3l-76.6-26.8c-143.6-49.7-342.6-67-511.1-44C4420,631.1,4219.1,701.9,3909,858.8c-338.8,172.3-501.5,218.2-775.2,218.2c-235.4,0-430.7-45.9-639.3-147.4c-80.4-40.2-151.2-74.6-158.9-78.5c-9.6-3.8-15.3,436.4-15.3,980v987.7h2641.4h2641.4V2426.4z M7603.1,1182.3V713.4h-641.2h-641.2V522V330.5h641.2h641.2V43.4v-287.1h-641.2h-641.2v-191.4v-191.4h641.2h641.2v-287.1v-287.1h-641.2h-641.2v-191.4v-191.4h641.2h641.2v-516.8v-516.8h-985.8h-985.7v2134.2v2134.2h985.7h985.8V1182.3z M3432.4,644.5c57.4-15.3,216.3-84.2,356-153.1c285.2-139.7,578-241.2,796.2-275.6c176.1-28.7,465.1-15.3,583.8,26.8l80.4,28.7v-1634.6v-1636.5H6426h1177.1v-602.9v-602.9H4961.7H2320.3v2293V378.4l111,70.8c134,86.1,264.1,145.4,415.4,189.5C2996,682.7,3290.7,684.6,3432.4,644.5z"/><path d="M2741.4,2053.2v-191.4h679.5h679.5v191.4v191.4h-679.5h-679.5V2053.2z"/><path d="M2760.5,1421.6v-191.4h363.7h363.7v191.4V1613h-363.7h-363.7V1421.6z"/><path d="M2760.5,177.4V-14h363.7h363.7v191.4v191.4h-363.7h-363.7V177.4z"/><path d="M2741.4-454.2v-191.4h679.5h679.5v191.4v191.4h-679.5h-679.5V-454.2z"/><path d="M2760.5-1085.9v-191.4h363.7h363.7v191.4v191.4h-363.7h-363.7V-1085.9z"/><path d="M2741.4-1717.5v-191.4h679.5h679.5v191.4v191.4h-679.5h-679.5V-1717.5z"/><path d="M2760.5-2330v-191.4h363.7h363.7v191.4v191.4h-363.7h-363.7V-2330z"/><path d="M2741.4-2961.6V-3153h679.5h679.5v191.4v191.4h-679.5h-679.5V-2961.6z"/><path d="M2760.5-3593.3v-191.4h363.7h363.7v191.4v191.4h-363.7h-363.7V-3593.3z"/></g></g>
</svg>